<svg xmlns="http://www.w3.org/2000/svg" width="600" height="482" viewBox="20 -20 510 410">
  <style>
    @import url('https://fonts.googleapis.com/css2?family=Nunito:wght@400;600;700&amp;display=swap');
  </style>
  <rect x="20" y="-20" width="510" height="410" rx="12" fill="#141414"/>
  <text x="150" y="31.6" fill="#e5e5e5" font-family="Nunito, sans-serif" font-size="24" opacity="1">Dart 실행 모델 개요</text>
  <rect x="50" y="60" width="450" height="180" rx="27" fill="#1e3a5f" stroke="#4a9eed" stroke-width="2" opacity="1"/>
  <text x="275" y="154.5" text-anchor="middle" fill="#e5e5e5" font-family="Nunito, sans-serif" font-size="18">Main Isolate</text>
  <rect x="80" y="100" width="160" height="60" rx="9" fill="#2d1b69" stroke="#8b5cf6" stroke-width="2" opacity="1"/>
  <text x="160" y="134" text-anchor="middle" fill="#e5e5e5" font-family="Nunito, sans-serif" font-size="16">코드 실행</text>
  <rect x="300" y="100" width="170" height="60" rx="9" fill="#1a4d2e" stroke="#22c55e" stroke-width="2" opacity="1"/>
  <text x="385" y="134" text-anchor="middle" fill="#e5e5e5" font-family="Nunito, sans-serif" font-size="16">Event Queue</text>
  <defs><marker id="arrow-arrow-eq-to-ce" markerWidth="10" markerHeight="7" refX="9" refY="3.5" orient="auto"><polygon points="0 0, 10 3.5, 0 7" fill="#22c55e"/></marker></defs>
  <path d="M300,130 L245,130" fill="none" stroke="#22c55e" stroke-width="2" opacity="1" marker-end="url(#arrow-arrow-eq-to-ce)"/>
  <text x="272.5" y="122" text-anchor="middle" fill="#a0a0a0" font-family="Nunito, sans-serif" font-size="12">비동기 결과</text>
  <text x="100" y="267.6" fill="#a0a0a0" font-family="Nunito, sans-serif" font-size="14" opacity="1">단일 스레드, 공유 메모리 없음</text>
  <rect x="60" y="300" width="180" height="60" rx="9" fill="#5c3d1a" stroke="#f59e0b" stroke-width="2" opacity="1"/>
  <text x="150" y="334" text-anchor="middle" fill="#e5e5e5" font-family="Nunito, sans-serif" font-size="16">Isolate A</text>
  <rect x="310" y="300" width="180" height="60" rx="9" fill="#5c3d1a" stroke="#f59e0b" stroke-width="2" opacity="1"/>
  <text x="400" y="334" text-anchor="middle" fill="#e5e5e5" font-family="Nunito, sans-serif" font-size="16">Isolate B</text>
  <defs><marker id="arrow-arrow-a-to-b" markerWidth="10" markerHeight="7" refX="9" refY="3.5" orient="auto"><polygon points="0 0, 10 3.5, 0 7" fill="#f59e0b"/></marker></defs>
  <path d="M240,330 L310,330" fill="none" stroke="#f59e0b" stroke-width="2" opacity="1" marker-end="url(#arrow-arrow-a-to-b)"/>
  <text x="275" y="322" text-anchor="middle" fill="#a0a0a0" font-family="Nunito, sans-serif" font-size="12">메시지 패싱</text>
</svg>