<svg xmlns="http://www.w3.org/2000/svg" width="720" height="335" viewBox="30 -20 720 335">
  <style>
    @import url('https://fonts.googleapis.com/css2?family=Nunito:wght@400;600;700&amp;display=swap');
  </style>
  <rect x="30" y="-20" width="720" height="335" rx="12" fill="#141414"/>
  <text x="150" y="31.6" fill="#e5e5e5" font-family="Nunito, sans-serif" font-size="24" opacity="1">Flutter 프로젝트 디렉토리 구조</text>
  <rect x="80" y="55" width="160" height="35" rx="5.25" fill="#1e3a5f" stroke="#4a9eed" stroke-width="2" opacity="1"/>
  <text x="160" y="76.5" text-anchor="middle" fill="#e5e5e5" font-family="Nunito, sans-serif" font-size="16">my_app/</text>
  <rect x="60" y="110" width="160" height="55" rx="8.25" fill="#1a4d2e" stroke="#22c55e" stroke-width="2" opacity="1"/>
  <text x="140" y="132.29999999999998" text-anchor="middle" fill="#e5e5e5" font-family="Nunito, sans-serif" font-size="13">lib/ ★</text>
  <text x="140" y="149.2" text-anchor="middle" fill="#e5e5e5" font-family="Nunito, sans-serif" font-size="13">main.dart (진입점)</text>
  <rect x="240" y="110" width="160" height="40" rx="6" fill="#2d1b69" stroke="#8b5cf6" stroke-width="1" opacity="1"/>
  <text x="320" y="133.5" text-anchor="middle" fill="#e5e5e5" font-family="Nunito, sans-serif" font-size="14">android/</text>
  <rect x="420" y="110" width="160" height="40" rx="6" fill="#2d1b69" stroke="#8b5cf6" stroke-width="1" opacity="1"/>
  <text x="500" y="133.5" text-anchor="middle" fill="#e5e5e5" font-family="Nunito, sans-serif" font-size="14">ios/</text>
  <rect x="600" y="110" width="120" height="40" rx="6" fill="#1a4d4d" stroke="#06b6d4" stroke-width="1" opacity="1"/>
  <text x="660" y="133.5" text-anchor="middle" fill="#e5e5e5" font-family="Nunito, sans-serif" font-size="14">web/</text>
  <rect x="60" y="185" width="160" height="40" rx="6" fill="#5c3d1a" stroke="#f59e0b" stroke-width="1" opacity="1"/>
  <text x="140" y="208.5" text-anchor="middle" fill="#e5e5e5" font-family="Nunito, sans-serif" font-size="14">test/</text>
  <rect x="240" y="185" width="160" height="40" rx="6" fill="#5c3d1a" stroke="#f59e0b" stroke-width="1" opacity="1"/>
  <text x="320" y="208.25" text-anchor="middle" fill="#e5e5e5" font-family="Nunito, sans-serif" font-size="13">assets/ (직접 생성)</text>
  <rect x="60" y="245" width="300" height="40" rx="6" fill="#5c1a1a" stroke="#ef4444" stroke-width="2" opacity="1"/>
  <text x="210" y="268.5" text-anchor="middle" fill="#e5e5e5" font-family="Nunito, sans-serif" font-size="14">pubspec.yaml ★ (핵심 설정 파일)</text>
  <rect x="380" y="245" width="340" height="40" rx="6" fill="#1a4d4d" stroke="#06b6d4" stroke-width="1" opacity="0.8"/>
  <text x="550" y="268.25" text-anchor="middle" fill="#a0a0a0" font-family="Nunito, sans-serif" font-size="13">pubspec.lock, .dart_tool/ (자동 생성)</text>
</svg>