<svg xmlns="http://www.w3.org/2000/svg" width="660" height="317" viewBox="20 -20 660 317">
  <style>
    @import url('https://fonts.googleapis.com/css2?family=Nunito:wght@400;600;700&amp;display=swap');
  </style>
  <rect x="20" y="-20" width="660" height="317" rx="12" fill="#141414"/>
  <text x="50" y="31.6" fill="#e5e5e5" font-family="Nunito, sans-serif" font-size="24" opacity="1">브랜치 전략별 파이프라인</text>
  <rect x="50" y="60" width="200" height="42" rx="6.3" fill="#1e3a5f" stroke="#4a9eed" stroke-width="2" opacity="1"/>
  <text x="150" y="84.75" text-anchor="middle" fill="#e5e5e5" font-family="Nunito, sans-serif" font-size="15">feature/*</text>
  <defs><marker id="arrow-el874" markerWidth="10" markerHeight="7" refX="9" refY="3.5" orient="auto"><polygon points="0 0, 10 3.5, 0 7" fill="#4a9eed"/></marker></defs>
  <path d="M250,81 L290,81" fill="none" stroke="#4a9eed" stroke-width="2" opacity="1" marker-end="url(#arrow-el874)"/>
  <rect x="300" y="60" width="350" height="42" rx="6.3" fill="#1e3a5f" stroke="#4a9eed" stroke-width="2" opacity="1"/>
  <text x="475" y="84.5" text-anchor="middle" fill="#e5e5e5" font-family="Nunito, sans-serif" font-size="14">Lint + Unit Test</text>
  <rect x="50" y="115" width="200" height="42" rx="6.3" fill="#1a4d2e" stroke="#22c55e" stroke-width="2" opacity="1"/>
  <text x="150" y="139.75" text-anchor="middle" fill="#e5e5e5" font-family="Nunito, sans-serif" font-size="15">develop</text>
  <defs><marker id="arrow-el879" markerWidth="10" markerHeight="7" refX="9" refY="3.5" orient="auto"><polygon points="0 0, 10 3.5, 0 7" fill="#22c55e"/></marker></defs>
  <path d="M250,136 L290,136" fill="none" stroke="#22c55e" stroke-width="2" opacity="1" marker-end="url(#arrow-el879)"/>
  <rect x="300" y="115" width="350" height="42" rx="6.3" fill="#1a4d2e" stroke="#22c55e" stroke-width="2" opacity="1"/>
  <text x="475" y="139.5" text-anchor="middle" fill="#e5e5e5" font-family="Nunito, sans-serif" font-size="14">Full Test + Dev Build</text>
  <rect x="50" y="170" width="200" height="42" rx="6.3" fill="#5c3d1a" stroke="#f59e0b" stroke-width="2" opacity="1"/>
  <text x="150" y="194.75" text-anchor="middle" fill="#e5e5e5" font-family="Nunito, sans-serif" font-size="15">release/*</text>
  <defs><marker id="arrow-el884" markerWidth="10" markerHeight="7" refX="9" refY="3.5" orient="auto"><polygon points="0 0, 10 3.5, 0 7" fill="#f59e0b"/></marker></defs>
  <path d="M250,191 L290,191" fill="none" stroke="#f59e0b" stroke-width="2" opacity="1" marker-end="url(#arrow-el884)"/>
  <rect x="300" y="170" width="350" height="42" rx="6.3" fill="#5c3d1a" stroke="#f59e0b" stroke-width="2" opacity="1"/>
  <text x="475" y="194.5" text-anchor="middle" fill="#e5e5e5" font-family="Nunito, sans-serif" font-size="14">Test + Stage Deploy</text>
  <rect x="50" y="225" width="200" height="42" rx="6.3" fill="#5c1a1a" stroke="#ef4444" stroke-width="2" opacity="1"/>
  <text x="150" y="249.75" text-anchor="middle" fill="#e5e5e5" font-family="Nunito, sans-serif" font-size="15">main</text>
  <defs><marker id="arrow-el889" markerWidth="10" markerHeight="7" refX="9" refY="3.5" orient="auto"><polygon points="0 0, 10 3.5, 0 7" fill="#ef4444"/></marker></defs>
  <path d="M250,246 L290,246" fill="none" stroke="#ef4444" stroke-width="2" opacity="1" marker-end="url(#arrow-el889)"/>
  <rect x="300" y="225" width="350" height="42" rx="6.3" fill="#5c1a1a" stroke="#ef4444" stroke-width="2" opacity="1"/>
  <text x="475" y="249.5" text-anchor="middle" fill="#e5e5e5" font-family="Nunito, sans-serif" font-size="14">Test + Production Deploy</text>
</svg>