<svg xmlns="http://www.w3.org/2000/svg" width="660" height="400" viewBox="20 -20 660 400">
  <style>
    @import url('https://fonts.googleapis.com/css2?family=Nunito:wght@400;600;700&amp;display=swap');
  </style>
  <rect x="20" y="-20" width="660" height="400" rx="12" fill="#141414"/>
  <text x="50" y="31.6" fill="#e5e5e5" font-family="Nunito, sans-serif" font-size="24" opacity="1">실무 앱의 HTTP 통신 레이어 구조</text>
  <rect x="100" y="60" width="550" height="50" rx="7.5" fill="#1e3a5f" stroke="#4a9eed" stroke-width="2" opacity="1"/>
  <text x="375" y="89" text-anchor="middle" fill="#e5e5e5" font-family="Nunito, sans-serif" font-size="16">UI Layer (Screen/Widget)</text>
  <text x="105" y="98.8" fill="#a0a0a0" font-family="Nunito, sans-serif" font-size="12" opacity="1">FutureBuilder / StreamBuilder</text>
  <defs><marker id="arrow-el63" markerWidth="10" markerHeight="7" refX="9" refY="3.5" orient="auto"><polygon points="0 0, 10 3.5, 0 7" fill="#4a9eed"/></marker></defs>
  <path d="M375,110 L375,130" fill="none" stroke="#4a9eed" stroke-width="2" opacity="1" marker-end="url(#arrow-el63)"/>
  <rect x="100" y="140" width="550" height="50" rx="7.5" fill="#2d1b69" stroke="#8b5cf6" stroke-width="2" opacity="1"/>
  <text x="375" y="169" text-anchor="middle" fill="#e5e5e5" font-family="Nunito, sans-serif" font-size="16">State Layer (Provider/Riverpod)</text>
  <text x="105" y="178.8" fill="#a0a0a0" font-family="Nunito, sans-serif" font-size="12" opacity="1">로딩·에러·데이터 상태 관리</text>
  <defs><marker id="arrow-el67" markerWidth="10" markerHeight="7" refX="9" refY="3.5" orient="auto"><polygon points="0 0, 10 3.5, 0 7" fill="#8b5cf6"/></marker></defs>
  <path d="M375,190 L375,210" fill="none" stroke="#8b5cf6" stroke-width="2" opacity="1" marker-end="url(#arrow-el67)"/>
  <rect x="100" y="220" width="550" height="50" rx="7.5" fill="#1a4d2e" stroke="#22c55e" stroke-width="2" opacity="1"/>
  <text x="375" y="249" text-anchor="middle" fill="#e5e5e5" font-family="Nunito, sans-serif" font-size="16">Repository Layer</text>
  <text x="105" y="258.8" fill="#a0a0a0" font-family="Nunito, sans-serif" font-size="12" opacity="1">API 호출 추상화, 에러 변환</text>
  <defs><marker id="arrow-el71" markerWidth="10" markerHeight="7" refX="9" refY="3.5" orient="auto"><polygon points="0 0, 10 3.5, 0 7" fill="#22c55e"/></marker></defs>
  <path d="M375,270 L375,290" fill="none" stroke="#22c55e" stroke-width="2" opacity="1" marker-end="url(#arrow-el71)"/>
  <rect x="100" y="300" width="550" height="50" rx="7.5" fill="#5c3d1a" stroke="#f59e0b" stroke-width="2" opacity="1"/>
  <text x="375" y="329" text-anchor="middle" fill="#e5e5e5" font-family="Nunito, sans-serif" font-size="16">API Client Layer (Dio)</text>
  <text x="105" y="338.8" fill="#a0a0a0" font-family="Nunito, sans-serif" font-size="12" opacity="1">BaseOptions, Interceptors, 인증 토큰</text>
</svg>