<svg xmlns="http://www.w3.org/2000/svg" width="600" height="466" viewBox="20 -20 560 435">
  <style>
    @import url('https://fonts.googleapis.com/css2?family=Nunito:wght@400;600;700&amp;display=swap');
  </style>
  <rect x="20" y="-20" width="560" height="435" rx="12" fill="#141414"/>
  <text x="50" y="29.8" fill="#e5e5e5" font-family="Nunito, sans-serif" font-size="22" opacity="1">5인 팀 Feature 기반 협업 효과</text>
  <rect x="50" y="60" width="150" height="40" rx="6" fill="#1e3a5f" stroke="#4a9eed" stroke-width="2" opacity="1"/>
  <text x="125" y="84" text-anchor="middle" fill="#e5e5e5" font-family="Nunito, sans-serif" font-size="16">팀원 A</text>
  <defs><marker id="arrow-el217" markerWidth="10" markerHeight="7" refX="9" refY="3.5" orient="auto"><polygon points="0 0, 10 3.5, 0 7" fill="#4a9eed"/></marker></defs>
  <path d="M200,80 L240,80" fill="none" stroke="#4a9eed" stroke-width="2" opacity="1" marker-end="url(#arrow-el217)"/>
  <rect x="250" y="60" width="250" height="40" rx="6" fill="#1e3a5f" stroke="#4a9eed" stroke-width="2" opacity="1"/>
  <text x="375" y="83.5" text-anchor="middle" fill="#e5e5e5" font-family="Nunito, sans-serif" font-size="14">features/auth/</text>
  <rect x="50" y="115" width="150" height="40" rx="6" fill="#1a4d2e" stroke="#22c55e" stroke-width="2" opacity="1"/>
  <text x="125" y="139" text-anchor="middle" fill="#e5e5e5" font-family="Nunito, sans-serif" font-size="16">팀원 B</text>
  <defs><marker id="arrow-el222" markerWidth="10" markerHeight="7" refX="9" refY="3.5" orient="auto"><polygon points="0 0, 10 3.5, 0 7" fill="#22c55e"/></marker></defs>
  <path d="M200,135 L240,135" fill="none" stroke="#22c55e" stroke-width="2" opacity="1" marker-end="url(#arrow-el222)"/>
  <rect x="250" y="115" width="250" height="40" rx="6" fill="#1a4d2e" stroke="#22c55e" stroke-width="2" opacity="1"/>
  <text x="375" y="138.5" text-anchor="middle" fill="#e5e5e5" font-family="Nunito, sans-serif" font-size="14">features/search/</text>
  <rect x="50" y="170" width="150" height="40" rx="6" fill="#2d1b69" stroke="#8b5cf6" stroke-width="2" opacity="1"/>
  <text x="125" y="194" text-anchor="middle" fill="#e5e5e5" font-family="Nunito, sans-serif" font-size="16">팀원 C</text>
  <defs><marker id="arrow-el227" markerWidth="10" markerHeight="7" refX="9" refY="3.5" orient="auto"><polygon points="0 0, 10 3.5, 0 7" fill="#8b5cf6"/></marker></defs>
  <path d="M200,190 L240,190" fill="none" stroke="#8b5cf6" stroke-width="2" opacity="1" marker-end="url(#arrow-el227)"/>
  <rect x="250" y="170" width="250" height="40" rx="6" fill="#2d1b69" stroke="#8b5cf6" stroke-width="2" opacity="1"/>
  <text x="375" y="193.5" text-anchor="middle" fill="#e5e5e5" font-family="Nunito, sans-serif" font-size="14">features/listing/</text>
  <rect x="50" y="225" width="150" height="40" rx="6" fill="#5c3d1a" stroke="#f59e0b" stroke-width="2" opacity="1"/>
  <text x="125" y="249" text-anchor="middle" fill="#e5e5e5" font-family="Nunito, sans-serif" font-size="16">팀원 D</text>
  <defs><marker id="arrow-el232" markerWidth="10" markerHeight="7" refX="9" refY="3.5" orient="auto"><polygon points="0 0, 10 3.5, 0 7" fill="#f59e0b"/></marker></defs>
  <path d="M200,245 L240,245" fill="none" stroke="#f59e0b" stroke-width="2" opacity="1" marker-end="url(#arrow-el232)"/>
  <rect x="250" y="225" width="250" height="40" rx="6" fill="#5c3d1a" stroke="#f59e0b" stroke-width="2" opacity="1"/>
  <text x="375" y="248.5" text-anchor="middle" fill="#e5e5e5" font-family="Nunito, sans-serif" font-size="14">features/booking/</text>
  <rect x="50" y="280" width="150" height="40" rx="6" fill="#1a4d4d" stroke="#06b6d4" stroke-width="2" opacity="1"/>
  <text x="125" y="304" text-anchor="middle" fill="#e5e5e5" font-family="Nunito, sans-serif" font-size="16">팀원 E</text>
  <defs><marker id="arrow-el237" markerWidth="10" markerHeight="7" refX="9" refY="3.5" orient="auto"><polygon points="0 0, 10 3.5, 0 7" fill="#06b6d4"/></marker></defs>
  <path d="M200,300 L240,300" fill="none" stroke="#06b6d4" stroke-width="2" opacity="1" marker-end="url(#arrow-el237)"/>
  <rect x="250" y="280" width="250" height="40" rx="6" fill="#1a4d4d" stroke="#06b6d4" stroke-width="2" opacity="1"/>
  <text x="375" y="303.5" text-anchor="middle" fill="#e5e5e5" font-family="Nunito, sans-serif" font-size="14">core/</text>
  <rect x="50" y="345" width="500" height="40" rx="6" fill="#1a4d4d" stroke="#06b6d4" stroke-width="2" opacity="1"/>
  <text x="300" y="368.75" text-anchor="middle" fill="#e5e5e5" font-family="Nunito, sans-serif" font-size="15">→ Git 충돌 최소화, 독립 개발 가능</text>
</svg>