<svg xmlns="http://www.w3.org/2000/svg" width="820" height="192" viewBox="20 -20 820 191.8">
  <style>
    @import url('https://fonts.googleapis.com/css2?family=Nunito:wght@400;600;700&amp;display=swap');
  </style>
  <rect x="20" y="-20" width="820" height="191.8" rx="12" fill="#141414"/>
  <text x="50" y="31.6" fill="#e5e5e5" font-family="Nunito, sans-serif" font-size="24" opacity="1">REST → GraphQL 교체 시나리오</text>
  <rect x="50" y="70" width="160" height="50" rx="7.5" fill="#1a4d2e" stroke="#22c55e" stroke-width="2" opacity="1"/>
  <text x="130" y="99" text-anchor="middle" fill="#e5e5e5" font-family="Nunito, sans-serif" font-size="16">Presentation</text>
  <text x="55" y="135.8" fill="#22c55e" font-family="Nunito, sans-serif" font-size="12" opacity="1">변경 없음</text>
  <defs><marker id="arrow-el269" markerWidth="10" markerHeight="7" refX="9" refY="3.5" orient="auto"><polygon points="0 0, 10 3.5, 0 7" fill="#4a9eed"/></marker></defs>
  <path d="M210,95 L240,95" fill="none" stroke="#4a9eed" stroke-width="2" opacity="1" marker-end="url(#arrow-el269)"/>
  <rect x="250" y="70" width="160" height="50" rx="7.5" fill="#1a4d2e" stroke="#22c55e" stroke-width="2" opacity="1"/>
  <text x="330" y="99" text-anchor="middle" fill="#e5e5e5" font-family="Nunito, sans-serif" font-size="16">Application</text>
  <text x="255" y="135.8" fill="#22c55e" font-family="Nunito, sans-serif" font-size="12" opacity="1">변경 없음</text>
  <defs><marker id="arrow-el273" markerWidth="10" markerHeight="7" refX="9" refY="3.5" orient="auto"><polygon points="0 0, 10 3.5, 0 7" fill="#4a9eed"/></marker></defs>
  <path d="M410,95 L440,95" fill="none" stroke="#4a9eed" stroke-width="2" opacity="1" marker-end="url(#arrow-el273)"/>
  <rect x="450" y="70" width="160" height="50" rx="7.5" fill="#1a4d2e" stroke="#22c55e" stroke-width="2" opacity="1"/>
  <text x="530" y="99" text-anchor="middle" fill="#e5e5e5" font-family="Nunito, sans-serif" font-size="16">Domain</text>
  <text x="455" y="135.8" fill="#22c55e" font-family="Nunito, sans-serif" font-size="12" opacity="1">변경 없음</text>
  <defs><marker id="arrow-el277" markerWidth="10" markerHeight="7" refX="9" refY="3.5" orient="auto"><polygon points="0 0, 10 3.5, 0 7" fill="#4a9eed"/></marker></defs>
  <path d="M610,95 L640,95" fill="none" stroke="#4a9eed" stroke-width="2" opacity="1" marker-end="url(#arrow-el277)"/>
  <rect x="650" y="70" width="160" height="50" rx="7.5" fill="#5c1a1a" stroke="#ef4444" stroke-width="2" opacity="1"/>
  <text x="730" y="99" text-anchor="middle" fill="#e5e5e5" font-family="Nunito, sans-serif" font-size="16">Data</text>
  <text x="655" y="135.8" fill="#ef4444" font-family="Nunito, sans-serif" font-size="12" opacity="1">여기만 변경</text>
</svg>