<svg xmlns="http://www.w3.org/2000/svg" width="600" height="317" viewBox="10 -20 580 306.8">
  <style>
    @import url('https://fonts.googleapis.com/css2?family=Nunito:wght@400;600;700&amp;display=swap');
  </style>
  <rect x="10" y="-20" width="580" height="306.8" rx="12" fill="#141414"/>
  <text x="120" y="29.8" fill="#e5e5e5" font-family="Nunito, sans-serif" font-size="22" opacity="1">상태 공유 문제 예시</text>
  <rect x="40" y="60" width="180" height="40" rx="6" fill="#1e3a5f" stroke="#4a9eed" stroke-width="2" opacity="1"/>
  <text x="130" y="83.5" text-anchor="middle" fill="#e5e5e5" font-family="Nunito, sans-serif" font-size="14">상품 상세 화면</text>
  <defs><marker id="arrow-a1" markerWidth="10" markerHeight="7" refX="9" refY="3.5" orient="auto"><polygon points="0 0, 10 3.5, 0 7" fill="#f59e0b"/></marker></defs>
  <path d="M220,80 L280,80" fill="none" stroke="#f59e0b" stroke-width="2" opacity="1" marker-end="url(#arrow-a1)"/>
  <rect x="280" y="60" width="180" height="40" rx="6" fill="#5c3d1a" stroke="#f59e0b" stroke-width="2" opacity="1"/>
  <text x="370" y="83.5" text-anchor="middle" fill="#e5e5e5" font-family="Nunito, sans-serif" font-size="14">장바구니에 담기</text>
  <defs><marker id="arrow-a2" markerWidth="10" markerHeight="7" refX="9" refY="3.5" orient="auto"><polygon points="0 0, 10 3.5, 0 7" fill="#ef4444"/></marker></defs>
  <path d="M370,100 L370,125" fill="none" stroke="#ef4444" stroke-width="2" opacity="1" marker-end="url(#arrow-a2)"/>
  <rect x="260" y="125" width="220" height="35" rx="5.25" fill="#5c1a1a" stroke="#ef4444" stroke-width="1" opacity="1"/>
  <text x="370" y="145.75" text-anchor="middle" fill="#ef4444" font-family="Nunito, sans-serif" font-size="13">뱃지 숫자 변경 필요</text>
  <defs><marker id="arrow-a3" markerWidth="10" markerHeight="7" refX="9" refY="3.5" orient="auto"><polygon points="0 0, 10 3.5, 0 7" fill="#555555"/></marker></defs>
  <path d="M370,160 L270,185" fill="none" stroke="#555555" stroke-width="1" opacity="1" marker-end="url(#arrow-a3)"/>
  <defs><marker id="arrow-a4" markerWidth="10" markerHeight="7" refX="9" refY="3.5" orient="auto"><polygon points="0 0, 10 3.5, 0 7" fill="#555555"/></marker></defs>
  <path d="M370,160 L470,185" fill="none" stroke="#555555" stroke-width="1" opacity="1" marker-end="url(#arrow-a4)"/>
  <rect x="170" y="185" width="160" height="35" rx="5.25" fill="#2d1b69" stroke="#8b5cf6" stroke-width="1" opacity="1"/>
  <text x="250" y="205.5" text-anchor="middle" fill="#e5e5e5" font-family="Nunito, sans-serif" font-size="12">AppBar CartIcon</text>
  <rect x="380" y="185" width="180" height="35" rx="5.25" fill="#2d1b69" stroke="#8b5cf6" stroke-width="1" opacity="1"/>
  <text x="470" y="205.5" text-anchor="middle" fill="#e5e5e5" font-family="Nunito, sans-serif" font-size="12">BottomNav 장바구니</text>
  <text x="100" y="250.8" fill="#ef4444" font-family="Nunito, sans-serif" font-size="12" opacity="1">이 세 위젯이 서로 다른 위치에 있을 때, setState()만으로는 공유 어려움</text>
</svg>