<svg xmlns="http://www.w3.org/2000/svg" width="600" height="398" viewBox="90 -20 460 305">
  <style>
    @import url('https://fonts.googleapis.com/css2?family=Nunito:wght@400;600;700&amp;display=swap');
  </style>
  <rect x="90" y="-20" width="460" height="305" rx="12" fill="#141414"/>
  <text x="120" y="29.8" fill="#e5e5e5" font-family="Nunito, sans-serif" font-size="22" opacity="1">잘못된 setState 사용의 결과</text>
  <rect x="180" y="55" width="300" height="35" rx="5.25" fill="#5c1a1a" stroke="#ef4444" stroke-width="2" opacity="1"/>
  <text x="330" y="76" text-anchor="middle" fill="#e5e5e5" font-family="Nunito, sans-serif" font-size="14">최상위 위젯에서 setState() 호출</text>
  <defs><marker id="arrow-a1" markerWidth="10" markerHeight="7" refX="9" refY="3.5" orient="auto"><polygon points="0 0, 10 3.5, 0 7" fill="#ef4444"/></marker></defs>
  <path d="M330,90 L330,110" fill="none" stroke="#ef4444" stroke-width="2" opacity="1" marker-end="url(#arrow-a1)"/>
  <rect x="180" y="110" width="300" height="35" rx="5.25" fill="#5c1a1a" stroke="#ef4444" stroke-width="1" opacity="1"/>
  <text x="330" y="131" text-anchor="middle" fill="#e5e5e5" font-family="Nunito, sans-serif" font-size="14">앱 전체 위젯 트리 rebuild</text>
  <defs><marker id="arrow-a2" markerWidth="10" markerHeight="7" refX="9" refY="3.5" orient="auto"><polygon points="0 0, 10 3.5, 0 7" fill="#ef4444"/></marker></defs>
  <path d="M330,145 L330,165" fill="none" stroke="#ef4444" stroke-width="2" opacity="1" marker-end="url(#arrow-a2)"/>
  <rect x="140" y="165" width="380" height="35" rx="5.25" fill="#5c1a1a" stroke="#ef4444" stroke-width="1" opacity="1"/>
  <text x="330" y="186" text-anchor="middle" fill="#e5e5e5" font-family="Nunito, sans-serif" font-size="14">매 탭마다 수백 개 위젯 build() 호출</text>
  <defs><marker id="arrow-a3" markerWidth="10" markerHeight="7" refX="9" refY="3.5" orient="auto"><polygon points="0 0, 10 3.5, 0 7" fill="#ef4444"/></marker></defs>
  <path d="M330,200 L330,220" fill="none" stroke="#ef4444" stroke-width="2" opacity="1" marker-end="url(#arrow-a3)"/>
  <rect x="140" y="220" width="380" height="35" rx="5.25" fill="#5c1a1a" stroke="#ef4444" stroke-width="2" opacity="1"/>
  <text x="330" y="241" text-anchor="middle" fill="#ef4444" font-family="Nunito, sans-serif" font-size="14">프레임 예산(16.6ms) 초과 → Jank 발생</text>
</svg>