<svg xmlns="http://www.w3.org/2000/svg" width="780" height="250" viewBox="20 -20 780 250">
  <style>
    @import url('https://fonts.googleapis.com/css2?family=Nunito:wght@400;600;700&amp;display=swap');
  </style>
  <rect x="20" y="-20" width="780" height="250" rx="12" fill="#141414"/>
  <text x="100" y="29.8" fill="#e5e5e5" font-family="Nunito, sans-serif" font-size="22" opacity="1">TDD 사이클 (Red → Green → Refactor)</text>
  <rect x="50" y="80" width="180" height="60" rx="9" fill="#5c1a1a" stroke="#ef4444" stroke-width="2" opacity="1"/>
  <text x="140" y="103.60000000000001" text-anchor="middle" fill="#e5e5e5" font-family="Nunito, sans-serif" font-size="16">Red</text>
  <text x="140" y="124.4" text-anchor="middle" fill="#e5e5e5" font-family="Nunito, sans-serif" font-size="16">(테스트 작성)</text>
  <text x="50" y="159.9" fill="#ef4444" font-family="Nunito, sans-serif" font-size="11" opacity="1">실패하는 테스트를 먼저 작성</text>
  <defs><marker id="arrow-el372" markerWidth="10" markerHeight="7" refX="9" refY="3.5" orient="auto"><polygon points="0 0, 10 3.5, 0 7" fill="#ef4444"/></marker></defs>
  <path d="M230,110 L280,110" fill="none" stroke="#ef4444" stroke-width="2" opacity="1" marker-end="url(#arrow-el372)"/>
  <rect x="320" y="80" width="180" height="60" rx="9" fill="#1a4d2e" stroke="#22c55e" stroke-width="2" opacity="1"/>
  <text x="410" y="103.60000000000001" text-anchor="middle" fill="#e5e5e5" font-family="Nunito, sans-serif" font-size="16">Green</text>
  <text x="410" y="124.4" text-anchor="middle" fill="#e5e5e5" font-family="Nunito, sans-serif" font-size="16">(구현)</text>
  <text x="320" y="159.9" fill="#22c55e" font-family="Nunito, sans-serif" font-size="11" opacity="1">테스트 통과하는 최소 코드</text>
  <defs><marker id="arrow-el376" markerWidth="10" markerHeight="7" refX="9" refY="3.5" orient="auto"><polygon points="0 0, 10 3.5, 0 7" fill="#22c55e"/></marker></defs>
  <path d="M500,110 L550,110" fill="none" stroke="#22c55e" stroke-width="2" opacity="1" marker-end="url(#arrow-el376)"/>
  <rect x="590" y="80" width="180" height="60" rx="9" fill="#2d1b69" stroke="#8b5cf6" stroke-width="2" opacity="1"/>
  <text x="680" y="103.60000000000001" text-anchor="middle" fill="#e5e5e5" font-family="Nunito, sans-serif" font-size="16">Refactor</text>
  <text x="680" y="124.4" text-anchor="middle" fill="#e5e5e5" font-family="Nunito, sans-serif" font-size="16">(개선)</text>
  <text x="590" y="159.9" fill="#8b5cf6" font-family="Nunito, sans-serif" font-size="11" opacity="1">통과 유지하며 코드 개선</text>
  <defs><marker id="arrow-el380" markerWidth="10" markerHeight="7" refX="9" refY="3.5" orient="auto"><polygon points="0 0, 10 3.5, 0 7" fill="#8b5cf6"/></marker></defs>
  <path d="M680,140 L680,180 L140,180 L140,140" fill="none" stroke="#8b5cf6" stroke-width="2" opacity="1" marker-end="url(#arrow-el380)"/>
</svg>