<svg xmlns="http://www.w3.org/2000/svg" width="665.8" height="317" viewBox="20 -20 665.8 317">
  <style>
    @import url('https://fonts.googleapis.com/css2?family=Nunito:wght@400;600;700&amp;display=swap');
  </style>
  <rect x="20" y="-20" width="665.8" height="317" rx="12" fill="#141414"/>
  <text x="50" y="31.6" fill="#e5e5e5" font-family="Nunito, sans-serif" font-size="24" opacity="1">계층별 커버리지 권장 목표</text>
  <rect x="50" y="60" width="400" height="42" rx="6.3" fill="#1a4d2e" stroke="#22c55e" stroke-width="2" opacity="1"/>
  <text x="250" y="84.75" text-anchor="middle" fill="#e5e5e5" font-family="Nunito, sans-serif" font-size="15">Domain (Entity, UseCase)</text>
  <rect x="480" y="65" width="135" height="32" rx="4.8" fill="#1a4d2e" stroke="#22c55e" stroke-width="2" opacity="1"/>
  <text x="625" y="80.6" fill="#22c55e" font-family="Nunito, sans-serif" font-size="14" opacity="1">90%+</text>
  <rect x="50" y="115" width="400" height="42" rx="6.3" fill="#1e3a5f" stroke="#4a9eed" stroke-width="2" opacity="1"/>
  <text x="250" y="139.75" text-anchor="middle" fill="#e5e5e5" font-family="Nunito, sans-serif" font-size="15">Application (UseCase)</text>
  <rect x="480" y="120" width="120" height="32" rx="4.8" fill="#1e3a5f" stroke="#4a9eed" stroke-width="2" opacity="1"/>
  <text x="610" y="135.6" fill="#4a9eed" font-family="Nunito, sans-serif" font-size="14" opacity="1">80%+</text>
  <rect x="50" y="170" width="400" height="42" rx="6.3" fill="#5c3d1a" stroke="#f59e0b" stroke-width="2" opacity="1"/>
  <text x="250" y="194.75" text-anchor="middle" fill="#e5e5e5" font-family="Nunito, sans-serif" font-size="15">Data (Repository Impl)</text>
  <rect x="480" y="175" width="105" height="32" rx="4.8" fill="#5c3d1a" stroke="#f59e0b" stroke-width="2" opacity="1"/>
  <text x="595" y="190.6" fill="#f59e0b" font-family="Nunito, sans-serif" font-size="14" opacity="1">70%+</text>
  <rect x="50" y="225" width="400" height="42" rx="6.3" fill="#2d1b69" stroke="#8b5cf6" stroke-width="2" opacity="1"/>
  <text x="250" y="249.75" text-anchor="middle" fill="#e5e5e5" font-family="Nunito, sans-serif" font-size="15">Presentation (Widget)</text>
  <rect x="480" y="230" width="90" height="32" rx="4.8" fill="#2d1b69" stroke="#8b5cf6" stroke-width="2" opacity="1"/>
  <text x="580" y="245.6" fill="#8b5cf6" font-family="Nunito, sans-serif" font-size="14" opacity="1">60%+</text>
</svg>