<svg xmlns="http://www.w3.org/2000/svg" width="670" height="330" viewBox="10 -15 670 330">
  <style>
    @import url('https://fonts.googleapis.com/css2?family=Nunito:wght@400;600;700&amp;display=swap');
  </style>
  <rect x="10" y="-15" width="670" height="330" rx="12" fill="#141414"/>
  <text x="200" y="33" fill="#e5e5e5" font-family="Nunito, sans-serif" font-size="20" opacity="1">E2E 테스트 생태계 전체 개관</text>
  <rect x="80" y="60" width="180" height="40" rx="6" fill="#5c1a1a" stroke="#ef4444" stroke-width="2" opacity="1"/>
  <text x="170" y="83.5" text-anchor="middle" fill="#e5e5e5" font-family="Nunito, sans-serif" font-size="14">E2E (5%)</text>
  <rect x="60" y="105" width="220" height="40" rx="6" fill="#5c3d1a" stroke="#f59e0b" stroke-width="2" opacity="1"/>
  <text x="170" y="128.5" text-anchor="middle" fill="#e5e5e5" font-family="Nunito, sans-serif" font-size="14">통합 (25%)</text>
  <rect x="40" y="150" width="260" height="40" rx="6" fill="#1a4d2e" stroke="#22c55e" stroke-width="2" opacity="1"/>
  <text x="170" y="173.5" text-anchor="middle" fill="#e5e5e5" font-family="Nunito, sans-serif" font-size="14">단위 (70%)</text>
  <text x="380" y="74.4" fill="#e5e5e5" font-family="Nunito, sans-serif" font-size="16" opacity="1">도구 계보:</text>
  <rect x="380" y="85" width="140" height="32" rx="4.8" fill="#555555" stroke="#a0a0a0" stroke-width="2" opacity="1"/>
  <text x="450" y="104.25" text-anchor="middle" fill="#e5e5e5" font-family="Nunito, sans-serif" font-size="13">Selenium (2004)</text>
  <defs><marker id="arrow-a_404" markerWidth="10" markerHeight="7" refX="9" refY="3.5" orient="auto"><polygon points="0 0, 10 3.5, 0 7" fill="#555555"/></marker></defs>
  <path d="M450,117 L450,132" fill="none" stroke="#555555" stroke-width="2" opacity="1" marker-end="url(#arrow-a_404)"/>
  <rect x="380" y="137" width="140" height="32" rx="4.8" fill="#1e3a5f" stroke="#4a9eed" stroke-width="2" opacity="1"/>
  <text x="450" y="156.25" text-anchor="middle" fill="#e5e5e5" font-family="Nunito, sans-serif" font-size="13">Cypress (2017)</text>
  <defs><marker id="arrow-a_407" markerWidth="10" markerHeight="7" refX="9" refY="3.5" orient="auto"><polygon points="0 0, 10 3.5, 0 7" fill="#555555"/></marker></defs>
  <path d="M450,169 L450,184" fill="none" stroke="#555555" stroke-width="2" opacity="1" marker-end="url(#arrow-a_407)"/>
  <rect x="380" y="189" width="140" height="32" rx="4.8" fill="#1a4d2e" stroke="#22c55e" stroke-width="2" opacity="1"/>
  <text x="450" y="208.25" text-anchor="middle" fill="#e5e5e5" font-family="Nunito, sans-serif" font-size="13">Playwright (2020)</text>
  <text x="80" y="224.4" fill="#e5e5e5" font-family="Nunito, sans-serif" font-size="16" opacity="1">역할 분담:</text>
  <rect x="40" y="235" width="190" height="50" rx="7.5" fill="#1e3a5f" stroke="#4a9eed" stroke-width="2" opacity="1"/>
  <text x="135" y="254.79999999999998" text-anchor="middle" fill="#e5e5e5" font-family="Nunito, sans-serif" font-size="13">컴포넌트 (RTL)</text>
  <text x="135" y="271.7" text-anchor="middle" fill="#e5e5e5" font-family="Nunito, sans-serif" font-size="13">버튼 클릭, 에러 상태</text>
  <rect x="250" y="235" width="190" height="50" rx="7.5" fill="#2d1b69" stroke="#8b5cf6" stroke-width="2" opacity="1"/>
  <text x="345" y="254.79999999999998" text-anchor="middle" fill="#e5e5e5" font-family="Nunito, sans-serif" font-size="13">통합 (RTL+MSW)</text>
  <text x="345" y="271.7" text-anchor="middle" fill="#e5e5e5" font-family="Nunito, sans-serif" font-size="13">폼→API, 인증 상태</text>
  <rect x="460" y="235" width="190" height="50" rx="7.5" fill="#1a4d2e" stroke="#22c55e" stroke-width="2" opacity="1"/>
  <text x="555" y="254.79999999999998" text-anchor="middle" fill="#e5e5e5" font-family="Nunito, sans-serif" font-size="13">E2E (Playwright)</text>
  <text x="555" y="271.7" text-anchor="middle" fill="#e5e5e5" font-family="Nunito, sans-serif" font-size="13">로그인→대시보드</text>
</svg>