<svg xmlns="http://www.w3.org/2000/svg" width="600" height="1003" viewBox="20 -10 380 635">
  <style>
    @import url('https://fonts.googleapis.com/css2?family=Nunito:wght@400;600;700&amp;display=swap');
  </style>
  <rect x="20" y="-10" width="380" height="635" rx="12" fill="#141414"/>
  <text x="110" y="38" fill="#e5e5e5" font-family="Nunito, sans-serif" font-size="20" opacity="1">자가 수준 진단</text>
  <rect x="50" y="55" width="160" height="36" rx="5.3999999999999995" fill="#1e3a5f" stroke="#4a9eed" stroke-width="2" opacity="1"/>
  <text x="130" y="76.5" text-anchor="middle" fill="#e5e5e5" font-family="Nunito, sans-serif" font-size="14">영역</text>
  <rect x="210" y="55" width="160" height="36" rx="5.3999999999999995" fill="#1e3a5f" stroke="#4a9eed" stroke-width="2" opacity="1"/>
  <text x="290" y="76.5" text-anchor="middle" fill="#e5e5e5" font-family="Nunito, sans-serif" font-size="14">확인할 Step</text>
  <rect x="50" y="91" width="160" height="36" rx="5.3999999999999995" fill="#1a4d2e" stroke="#22c55e" stroke-width="2" opacity="1"/>
  <text x="130" y="112.25" text-anchor="middle" fill="#e5e5e5" font-family="Nunito, sans-serif" font-size="13">JSX, Props, State 기초</text>
  <rect x="210" y="91" width="160" height="36" rx="5.3999999999999995" fill="#2a2a3e" stroke="#444466" stroke-width="2" opacity="1"/>
  <text x="290" y="112.25" text-anchor="middle" fill="#e5e5e5" font-family="Nunito, sans-serif" font-size="13">Step 4~6</text>
  <rect x="50" y="127" width="160" height="36" rx="5.3999999999999995" fill="#2d1b69" stroke="#8b5cf6" stroke-width="2" opacity="1"/>
  <text x="130" y="148.25" text-anchor="middle" fill="#e5e5e5" font-family="Nunito, sans-serif" font-size="13">Hook (useEffect 등)</text>
  <rect x="210" y="127" width="160" height="36" rx="5.3999999999999995" fill="#2a2a3e" stroke="#444466" stroke-width="2" opacity="1"/>
  <text x="290" y="148.25" text-anchor="middle" fill="#e5e5e5" font-family="Nunito, sans-serif" font-size="13">Step 11~16</text>
  <rect x="50" y="163" width="160" height="36" rx="5.3999999999999995" fill="#5c3d1a" stroke="#f59e0b" stroke-width="2" opacity="1"/>
  <text x="130" y="184.25" text-anchor="middle" fill="#e5e5e5" font-family="Nunito, sans-serif" font-size="13">TypeScript + React</text>
  <rect x="210" y="163" width="160" height="36" rx="5.3999999999999995" fill="#2a2a3e" stroke="#444466" stroke-width="2" opacity="1"/>
  <text x="290" y="184.25" text-anchor="middle" fill="#e5e5e5" font-family="Nunito, sans-serif" font-size="13">Step 31</text>
  <rect x="50" y="199" width="160" height="36" rx="5.3999999999999995" fill="#1a4d4d" stroke="#06b6d4" stroke-width="2" opacity="1"/>
  <text x="130" y="220.25" text-anchor="middle" fill="#e5e5e5" font-family="Nunito, sans-serif" font-size="13">라우팅 (React Router)</text>
  <rect x="210" y="199" width="160" height="36" rx="5.3999999999999995" fill="#2a2a3e" stroke="#444466" stroke-width="2" opacity="1"/>
  <text x="290" y="220.25" text-anchor="middle" fill="#e5e5e5" font-family="Nunito, sans-serif" font-size="13">Step 18</text>
  <rect x="50" y="235" width="160" height="36" rx="5.3999999999999995" fill="#5c1a1a" stroke="#ef4444" stroke-width="2" opacity="1"/>
  <text x="130" y="256.25" text-anchor="middle" fill="#e5e5e5" font-family="Nunito, sans-serif" font-size="13">데이터 패칭 (TanStack Query)</text>
  <rect x="210" y="235" width="160" height="36" rx="5.3999999999999995" fill="#2a2a3e" stroke="#444466" stroke-width="2" opacity="1"/>
  <text x="290" y="256.25" text-anchor="middle" fill="#e5e5e5" font-family="Nunito, sans-serif" font-size="13">Step 22~24</text>
  <rect x="50" y="271" width="160" height="36" rx="5.3999999999999995" fill="#555555" stroke="#a0a0a0" stroke-width="2" opacity="1"/>
  <text x="130" y="292.25" text-anchor="middle" fill="#e5e5e5" font-family="Nunito, sans-serif" font-size="13">전역 상태 (Zustand)</text>
  <rect x="210" y="271" width="160" height="36" rx="5.3999999999999995" fill="#2a2a3e" stroke="#444466" stroke-width="2" opacity="1"/>
  <text x="290" y="292.25" text-anchor="middle" fill="#e5e5e5" font-family="Nunito, sans-serif" font-size="13">Step 25~26</text>
  <rect x="50" y="307" width="160" height="36" rx="5.3999999999999995" fill="#1a4d2e" stroke="#22c55e" stroke-width="2" opacity="1"/>
  <text x="130" y="328.25" text-anchor="middle" fill="#e5e5e5" font-family="Nunito, sans-serif" font-size="13">폼 (RHF + Zod)</text>
  <rect x="210" y="307" width="160" height="36" rx="5.3999999999999995" fill="#2a2a3e" stroke="#444466" stroke-width="2" opacity="1"/>
  <text x="290" y="328.25" text-anchor="middle" fill="#e5e5e5" font-family="Nunito, sans-serif" font-size="13">Step 32~33</text>
  <rect x="50" y="343" width="160" height="36" rx="5.3999999999999995" fill="#2d1b69" stroke="#8b5cf6" stroke-width="2" opacity="1"/>
  <text x="130" y="364.25" text-anchor="middle" fill="#e5e5e5" font-family="Nunito, sans-serif" font-size="13">스타일링 (Tailwind)</text>
  <rect x="210" y="343" width="160" height="36" rx="5.3999999999999995" fill="#2a2a3e" stroke="#444466" stroke-width="2" opacity="1"/>
  <text x="290" y="364.25" text-anchor="middle" fill="#e5e5e5" font-family="Nunito, sans-serif" font-size="13">Step 34</text>
  <rect x="50" y="379" width="160" height="36" rx="5.3999999999999995" fill="#5c3d1a" stroke="#f59e0b" stroke-width="2" opacity="1"/>
  <text x="130" y="400.25" text-anchor="middle" fill="#e5e5e5" font-family="Nunito, sans-serif" font-size="13">컴포넌트 설계 패턴</text>
  <rect x="210" y="379" width="160" height="36" rx="5.3999999999999995" fill="#2a2a3e" stroke="#444466" stroke-width="2" opacity="1"/>
  <text x="290" y="400.25" text-anchor="middle" fill="#e5e5e5" font-family="Nunito, sans-serif" font-size="13">Step 27~28</text>
  <rect x="50" y="415" width="160" height="36" rx="5.3999999999999995" fill="#1a4d4d" stroke="#06b6d4" stroke-width="2" opacity="1"/>
  <text x="130" y="436.25" text-anchor="middle" fill="#e5e5e5" font-family="Nunito, sans-serif" font-size="13">성능 최적화</text>
  <rect x="210" y="415" width="160" height="36" rx="5.3999999999999995" fill="#2a2a3e" stroke="#444466" stroke-width="2" opacity="1"/>
  <text x="290" y="436.25" text-anchor="middle" fill="#e5e5e5" font-family="Nunito, sans-serif" font-size="13">Step 29</text>
  <rect x="50" y="451" width="160" height="36" rx="5.3999999999999995" fill="#5c1a1a" stroke="#ef4444" stroke-width="2" opacity="1"/>
  <text x="130" y="472.25" text-anchor="middle" fill="#e5e5e5" font-family="Nunito, sans-serif" font-size="13">테스트 (RTL, Playwright)</text>
  <rect x="210" y="451" width="160" height="36" rx="5.3999999999999995" fill="#2a2a3e" stroke="#444466" stroke-width="2" opacity="1"/>
  <text x="290" y="472.25" text-anchor="middle" fill="#e5e5e5" font-family="Nunito, sans-serif" font-size="13">Step 36~37</text>
  <rect x="50" y="487" width="160" height="36" rx="5.3999999999999995" fill="#555555" stroke="#a0a0a0" stroke-width="2" opacity="1"/>
  <text x="130" y="508.25" text-anchor="middle" fill="#e5e5e5" font-family="Nunito, sans-serif" font-size="13">빌드 + 배포</text>
  <rect x="210" y="487" width="160" height="36" rx="5.3999999999999995" fill="#2a2a3e" stroke="#444466" stroke-width="2" opacity="1"/>
  <text x="290" y="508.25" text-anchor="middle" fill="#e5e5e5" font-family="Nunito, sans-serif" font-size="13">Step 39~40</text>
  <rect x="50" y="523" width="160" height="36" rx="5.3999999999999995" fill="#1a4d2e" stroke="#22c55e" stroke-width="2" opacity="1"/>
  <text x="130" y="544.25" text-anchor="middle" fill="#e5e5e5" font-family="Nunito, sans-serif" font-size="13">모니터링 (Sentry)</text>
  <rect x="210" y="523" width="160" height="36" rx="5.3999999999999995" fill="#2a2a3e" stroke="#444466" stroke-width="2" opacity="1"/>
  <text x="290" y="544.25" text-anchor="middle" fill="#e5e5e5" font-family="Nunito, sans-serif" font-size="13">Step 41</text>
  <rect x="50" y="559" width="160" height="36" rx="5.3999999999999995" fill="#2d1b69" stroke="#8b5cf6" stroke-width="2" opacity="1"/>
  <text x="130" y="580.25" text-anchor="middle" fill="#e5e5e5" font-family="Nunito, sans-serif" font-size="13">접근성 (a11y)</text>
  <rect x="210" y="559" width="160" height="36" rx="5.3999999999999995" fill="#2a2a3e" stroke="#444466" stroke-width="2" opacity="1"/>
  <text x="290" y="580.25" text-anchor="middle" fill="#e5e5e5" font-family="Nunito, sans-serif" font-size="13">Step 35</text>
</svg>