<svg xmlns="http://www.w3.org/2000/svg" width="900" height="941" viewBox="-30 -20 932 974.6">
  <style>
    @import url('https://fonts.googleapis.com/css2?family=Nunito:wght@400;600;700&amp;display=swap');
  </style>
  <rect x="-30" y="-20" width="932" height="974.6" rx="12" fill="#141414"/>
  <text x="30" y="29.8" fill="#e5e5e5" font-family="Nunito, sans-serif" font-size="22" opacity="1">Step 22 개념 지도</text>
  <rect x="20" y="50" width="552" height="42" rx="6.3" fill="#2d1b69" stroke="#8b5cf6" stroke-width="1.5" opacity="1"/>
  <text x="296" y="74.75" text-anchor="middle" fill="#e5e5e5" font-family="Nunito, sans-serif" font-size="15">Step 22 개념 지도</text>
  <path d="M20,96 L852,96" fill="none" stroke="#555555" stroke-width="1" opacity="1"/>
  <text x="30" y="119.6" fill="#e5e5e5" font-family="Nunito, sans-serif" font-size="14" opacity="1">브라우저                          서버</text>
  <path d="M20,138 L852,138" fill="none" stroke="#555555" stroke-width="1" opacity="1"/>
  <text x="30" y="161.6" fill="#e5e5e5" font-family="Nunito, sans-serif" font-size="14" opacity="1">──────────────────────────────────────────────────────────</text>
  <path d="M20,180 L852,180" fill="none" stroke="#555555" stroke-width="1" opacity="1"/>
  <text x="30" y="203.6" fill="#e5e5e5" font-family="Nunito, sans-serif" font-size="14" opacity="1">fetch / Axios</text>
  <path d="M20,222 L852,222" fill="none" stroke="#555555" stroke-width="1" opacity="1"/>
  <text x="30" y="245.6" fill="#e5e5e5" font-family="Nunito, sans-serif" font-size="14" opacity="1">┌─────────────┐   HTTP 요청    ┌──────────────┐</text>
  <path d="M20,264 L852,264" fill="none" stroke="#555555" stroke-width="1" opacity="1"/>
  <text x="30" y="287.6" fill="#e5e5e5" font-family="Nunito, sans-serif" font-size="14" opacity="1">React 컴포</text>
  <text x="584" y="287.6" fill="#e5e5e5" font-family="Nunito, sans-serif" font-size="14" opacity="1">─────────────&gt;</text>
  <text x="760" y="287.6" fill="#e5e5e5" font-family="Nunito, sans-serif" font-size="14" opacity="1">REST API</text>
  <path d="M20,306 L852,306" fill="none" stroke="#555555" stroke-width="1" opacity="1"/>
  <text x="30" y="329.6" fill="#e5e5e5" font-family="Nunito, sans-serif" font-size="14" opacity="1">넌트</text>
  <text x="584" y="329.6" fill="#e5e5e5" font-family="Nunito, sans-serif" font-size="14" opacity="1">/users</text>
  <path d="M20,348 L852,348" fill="none" stroke="#555555" stroke-width="1" opacity="1"/>
  <text x="30" y="371.6" fill="#e5e5e5" font-family="Nunito, sans-serif" font-size="14" opacity="1">&lt;─────────────</text>
  <text x="584" y="371.6" fill="#e5e5e5" font-family="Nunito, sans-serif" font-size="14" opacity="1">/products</text>
  <path d="M20,390 L852,390" fill="none" stroke="#555555" stroke-width="1" opacity="1"/>
  <text x="30" y="413.6" fill="#e5e5e5" font-family="Nunito, sans-serif" font-size="14" opacity="1">useState</text>
  <text x="584" y="413.6" fill="#e5e5e5" font-family="Nunito, sans-serif" font-size="14" opacity="1">JSON 응답</text>
  <text x="760" y="413.6" fill="#e5e5e5" font-family="Nunito, sans-serif" font-size="14" opacity="1">/orders</text>
  <path d="M20,432 L852,432" fill="none" stroke="#555555" stroke-width="1" opacity="1"/>
  <text x="30" y="455.6" fill="#e5e5e5" font-family="Nunito, sans-serif" font-size="14" opacity="1">useEffect</text>
  <text x="584" y="455.6" fill="#e5e5e5" font-family="Nunito, sans-serif" font-size="14" opacity="1">└──────────────┘</text>
  <path d="M20,474 L852,474" fill="none" stroke="#555555" stroke-width="1" opacity="1"/>
  <text x="30" y="497.6" fill="#e5e5e5" font-family="Nunito, sans-serif" font-size="14" opacity="1">└─────────────┘</text>
  <path d="M20,516 L852,516" fill="none" stroke="#555555" stroke-width="1" opacity="1"/>
  <text x="30" y="539.6" fill="#e5e5e5" font-family="Nunito, sans-serif" font-size="14" opacity="1">▼</text>
  <path d="M20,558 L852,558" fill="none" stroke="#555555" stroke-width="1" opacity="1"/>
  <text x="30" y="581.6" fill="#e5e5e5" font-family="Nunito, sans-serif" font-size="14" opacity="1">┌──────────────────────────────────────────┐</text>
  <path d="M20,600 L852,600" fill="none" stroke="#555555" stroke-width="1" opacity="1"/>
  <text x="30" y="623.6" fill="#e5e5e5" font-family="Nunito, sans-serif" font-size="14" opacity="1">수동 패칭의 7가지 한계</text>
  <path d="M20,642 L852,642" fill="none" stroke="#555555" stroke-width="1" opacity="1"/>
  <text x="30" y="665.6" fill="#e5e5e5" font-family="Nunito, sans-serif" font-size="14" opacity="1">(이 Step의 핵심 학습 결과)</text>
  <path d="M20,684 L852,684" fill="none" stroke="#555555" stroke-width="1" opacity="1"/>
  <text x="30" y="707.6" fill="#e5e5e5" font-family="Nunito, sans-serif" font-size="14" opacity="1">Race Condition / 캐싱 부재 / Stale Data</text>
  <path d="M20,726 L852,726" fill="none" stroke="#555555" stroke-width="1" opacity="1"/>
  <text x="30" y="749.6" fill="#e5e5e5" font-family="Nunito, sans-serif" font-size="14" opacity="1">Waterfall / 에러 재시도 / 낙관적 업데이트</text>
  <path d="M20,768 L852,768" fill="none" stroke="#555555" stroke-width="1" opacity="1"/>
  <text x="30" y="791.6" fill="#e5e5e5" font-family="Nunito, sans-serif" font-size="14" opacity="1">보일러플레이트</text>
  <path d="M20,810 L852,810" fill="none" stroke="#555555" stroke-width="1" opacity="1"/>
  <text x="30" y="833.6" fill="#e5e5e5" font-family="Nunito, sans-serif" font-size="14" opacity="1">└──────────────────────────────────────────┘</text>
  <path d="M20,852 L852,852" fill="none" stroke="#555555" stroke-width="1" opacity="1"/>
  <text x="30" y="875.6" fill="#e5e5e5" font-family="Nunito, sans-serif" font-size="14" opacity="1">▼</text>
  <path d="M20,894 L852,894" fill="none" stroke="#555555" stroke-width="1" opacity="1"/>
  <text x="30" y="917.6" fill="#e5e5e5" font-family="Nunito, sans-serif" font-size="14" opacity="1">Step 23: TanStack Query가 이 모든 문제를 해결</text>
</svg>