<svg xmlns="http://www.w3.org/2000/svg" width="600" height="605" viewBox="20 -10 380 383">
  <style>
    @import url('https://fonts.googleapis.com/css2?family=Nunito:wght@400;600;700&amp;display=swap');
  </style>
  <rect x="20" y="-10" width="380" height="383" rx="12" fill="#141414"/>
  <text x="110" y="38" fill="#e5e5e5" font-family="Nunito, sans-serif" font-size="20" opacity="1">핵심 ARIA 속성 정리</text>
  <rect x="50" y="55" width="160" height="36" rx="5.3999999999999995" fill="#1e3a5f" stroke="#4a9eed" stroke-width="2" opacity="1"/>
  <text x="130" y="76.5" text-anchor="middle" fill="#e5e5e5" font-family="Nunito, sans-serif" font-size="14">ARIA 속성</text>
  <rect x="210" y="55" width="160" height="36" rx="5.3999999999999995" fill="#1e3a5f" stroke="#4a9eed" stroke-width="2" opacity="1"/>
  <text x="290" y="76.5" text-anchor="middle" fill="#e5e5e5" font-family="Nunito, sans-serif" font-size="14">역할</text>
  <rect x="50" y="91" width="160" height="36" rx="5.3999999999999995" fill="#1a4d2e" stroke="#22c55e" stroke-width="2" opacity="1"/>
  <text x="130" y="112.25" text-anchor="middle" fill="#e5e5e5" font-family="Nunito, sans-serif" font-size="13">aria-invalid</text>
  <rect x="210" y="91" width="160" height="36" rx="5.3999999999999995" fill="#2a2a3e" stroke="#444466" stroke-width="2" opacity="1"/>
  <text x="290" y="112.25" text-anchor="middle" fill="#e5e5e5" font-family="Nunito, sans-serif" font-size="13">에러 상태를 스크린 리더에 알림</text>
  <rect x="50" y="127" width="160" height="36" rx="5.3999999999999995" fill="#2d1b69" stroke="#8b5cf6" stroke-width="2" opacity="1"/>
  <text x="130" y="148.25" text-anchor="middle" fill="#e5e5e5" font-family="Nunito, sans-serif" font-size="13">aria-describedby</text>
  <rect x="210" y="127" width="160" height="36" rx="5.3999999999999995" fill="#2a2a3e" stroke="#444466" stroke-width="2" opacity="1"/>
  <text x="290" y="148.25" text-anchor="middle" fill="#e5e5e5" font-family="Nunito, sans-serif" font-size="13">에러/도움말 ID 연결</text>
  <rect x="50" y="163" width="160" height="36" rx="5.3999999999999995" fill="#5c3d1a" stroke="#f59e0b" stroke-width="2" opacity="1"/>
  <text x="130" y="184.25" text-anchor="middle" fill="#e5e5e5" font-family="Nunito, sans-serif" font-size="13">aria-required</text>
  <rect x="210" y="163" width="160" height="36" rx="5.3999999999999995" fill="#2a2a3e" stroke="#444466" stroke-width="2" opacity="1"/>
  <text x="290" y="184.25" text-anchor="middle" fill="#e5e5e5" font-family="Nunito, sans-serif" font-size="13">필수 입력 알림</text>
  <rect x="50" y="199" width="160" height="36" rx="5.3999999999999995" fill="#1a4d4d" stroke="#06b6d4" stroke-width="2" opacity="1"/>
  <text x="130" y="220.25" text-anchor="middle" fill="#e5e5e5" font-family="Nunito, sans-serif" font-size="13">aria-errormessage</text>
  <rect x="210" y="199" width="160" height="36" rx="5.3999999999999995" fill="#2a2a3e" stroke="#444466" stroke-width="2" opacity="1"/>
  <text x="290" y="220.25" text-anchor="middle" fill="#e5e5e5" font-family="Nunito, sans-serif" font-size="13">에러 메시지 요소 ID</text>
  <rect x="50" y="235" width="160" height="36" rx="5.3999999999999995" fill="#5c1a1a" stroke="#ef4444" stroke-width="2" opacity="1"/>
  <text x="130" y="256.25" text-anchor="middle" fill="#e5e5e5" font-family="Nunito, sans-serif" font-size="13">role=&quot;alert&quot;</text>
  <rect x="210" y="235" width="160" height="36" rx="5.3999999999999995" fill="#2a2a3e" stroke="#444466" stroke-width="2" opacity="1"/>
  <text x="290" y="256.25" text-anchor="middle" fill="#e5e5e5" font-family="Nunito, sans-serif" font-size="13">에러 나타나면 즉시 읽힘</text>
  <rect x="50" y="271" width="160" height="36" rx="5.3999999999999995" fill="#555555" stroke="#a0a0a0" stroke-width="2" opacity="1"/>
  <text x="130" y="292.25" text-anchor="middle" fill="#e5e5e5" font-family="Nunito, sans-serif" font-size="13">aria-live=&quot;polite&quot;</text>
  <rect x="210" y="271" width="160" height="36" rx="5.3999999999999995" fill="#2a2a3e" stroke="#444466" stroke-width="2" opacity="1"/>
  <text x="290" y="292.25" text-anchor="middle" fill="#e5e5e5" font-family="Nunito, sans-serif" font-size="13">변경 사항 적절히 읽힘</text>
  <rect x="50" y="307" width="160" height="36" rx="5.3999999999999995" fill="#1a4d2e" stroke="#22c55e" stroke-width="2" opacity="1"/>
  <text x="130" y="328.25" text-anchor="middle" fill="#e5e5e5" font-family="Nunito, sans-serif" font-size="13">aria-hidden</text>
  <rect x="210" y="307" width="160" height="36" rx="5.3999999999999995" fill="#2a2a3e" stroke="#444466" stroke-width="2" opacity="1"/>
  <text x="290" y="328.25" text-anchor="middle" fill="#e5e5e5" font-family="Nunito, sans-serif" font-size="13">장식 요소 숨김</text>
</svg>