<svg xmlns="http://www.w3.org/2000/svg" width="625" height="1311" viewBox="-30 -20 625 1310.6">
  <style>
    @import url('https://fonts.googleapis.com/css2?family=Nunito:wght@400;600;700&amp;display=swap');
  </style>
  <rect x="-30" y="-20" width="625" height="1310.6" rx="12" fill="#141414"/>
  <text x="30" y="29.8" fill="#e5e5e5" font-family="Nunito, sans-serif" font-size="22" opacity="1">3계층 API 아키텍처</text>
  <rect x="20" y="50" width="525" height="42" rx="6.3" fill="#2d1b69" stroke="#8b5cf6" stroke-width="1.5" opacity="1"/>
  <text x="282.5" y="74.75" text-anchor="middle" fill="#e5e5e5" font-family="Nunito, sans-serif" font-size="15">3계층 API 아키텍처</text>
  <path d="M20,96 L545,96" fill="none" stroke="#555555" stroke-width="1" opacity="1"/>
  <text x="30" y="119.6" fill="#e5e5e5" font-family="Nunito, sans-serif" font-size="14" opacity="1">┌─────────────────────────────────────────────────────┐</text>
  <path d="M20,138 L545,138" fill="none" stroke="#555555" stroke-width="1" opacity="1"/>
  <text x="30" y="161.6" fill="#e5e5e5" font-family="Nunito, sans-serif" font-size="14" opacity="1">Layer 4: 컴포넌트 (UI)</text>
  <path d="M20,180 L545,180" fill="none" stroke="#555555" stroke-width="1" opacity="1"/>
  <text x="30" y="203.6" fill="#e5e5e5" font-family="Nunito, sans-serif" font-size="14" opacity="1">· UI 렌더링에만 집중</text>
  <path d="M20,222 L545,222" fill="none" stroke="#555555" stroke-width="1" opacity="1"/>
  <text x="30" y="245.6" fill="#e5e5e5" font-family="Nunito, sans-serif" font-size="14" opacity="1">· Hook의 반환값(data, isLoading 등)만 사용</text>
  <path d="M20,264 L545,264" fill="none" stroke="#555555" stroke-width="1" opacity="1"/>
  <text x="30" y="287.6" fill="#e5e5e5" font-family="Nunito, sans-serif" font-size="14" opacity="1">└────────────────────────┬────────────────────────────┘</text>
  <path d="M20,306 L545,306" fill="none" stroke="#555555" stroke-width="1" opacity="1"/>
  <text x="30" y="329.6" fill="#e5e5e5" font-family="Nunito, sans-serif" font-size="14" opacity="1">useUsers(), useCreateUser()</text>
  <path d="M20,348 L545,348" fill="none" stroke="#555555" stroke-width="1" opacity="1"/>
  <text x="30" y="371.6" fill="#e5e5e5" font-family="Nunito, sans-serif" font-size="14" opacity="1">┌────────────────────────┼────────────────────────────┐</text>
  <path d="M20,390 L545,390" fill="none" stroke="#555555" stroke-width="1" opacity="1"/>
  <text x="30" y="413.6" fill="#e5e5e5" font-family="Nunito, sans-serif" font-size="14" opacity="1">Layer 3: Hook 계층    ▼</text>
  <path d="M20,432 L545,432" fill="none" stroke="#555555" stroke-width="1" opacity="1"/>
  <text x="30" y="455.6" fill="#e5e5e5" font-family="Nunito, sans-serif" font-size="14" opacity="1">· TanStack Query 연동</text>
  <path d="M20,474 L545,474" fill="none" stroke="#555555" stroke-width="1" opacity="1"/>
  <text x="30" y="497.6" fill="#e5e5e5" font-family="Nunito, sans-serif" font-size="14" opacity="1">· queryKey 관리, 캐싱 전략, 에러 재시도</text>
  <path d="M20,516 L545,516" fill="none" stroke="#555555" stroke-width="1" opacity="1"/>
  <text x="30" y="539.6" fill="#e5e5e5" font-family="Nunito, sans-serif" font-size="14" opacity="1">· useQuery, useMutation 래핑</text>
  <path d="M20,558 L545,558" fill="none" stroke="#555555" stroke-width="1" opacity="1"/>
  <text x="30" y="581.6" fill="#e5e5e5" font-family="Nunito, sans-serif" font-size="14" opacity="1">└────────────────────────┬────────────────────────────┘</text>
  <path d="M20,600 L545,600" fill="none" stroke="#555555" stroke-width="1" opacity="1"/>
  <text x="30" y="623.6" fill="#e5e5e5" font-family="Nunito, sans-serif" font-size="14" opacity="1">userService.getUsers()</text>
  <path d="M20,642 L545,642" fill="none" stroke="#555555" stroke-width="1" opacity="1"/>
  <text x="30" y="665.6" fill="#e5e5e5" font-family="Nunito, sans-serif" font-size="14" opacity="1">┌────────────────────────┼────────────────────────────┐</text>
  <path d="M20,684 L545,684" fill="none" stroke="#555555" stroke-width="1" opacity="1"/>
  <text x="30" y="707.6" fill="#e5e5e5" font-family="Nunito, sans-serif" font-size="14" opacity="1">Layer 2: 서비스 계층  ▼</text>
  <path d="M20,726 L545,726" fill="none" stroke="#555555" stroke-width="1" opacity="1"/>
  <text x="30" y="749.6" fill="#e5e5e5" font-family="Nunito, sans-serif" font-size="14" opacity="1">· 도메인별 API 함수 (users, products, orders)</text>
  <path d="M20,768 L545,768" fill="none" stroke="#555555" stroke-width="1" opacity="1"/>
  <text x="30" y="791.6" fill="#e5e5e5" font-family="Nunito, sans-serif" font-size="14" opacity="1">· URL 구성, 파라미터 조립, 응답 변환</text>
  <path d="M20,810 L545,810" fill="none" stroke="#555555" stroke-width="1" opacity="1"/>
  <text x="30" y="833.6" fill="#e5e5e5" font-family="Nunito, sans-serif" font-size="14" opacity="1">· API 스펙의 캡슐화</text>
  <path d="M20,852 L545,852" fill="none" stroke="#555555" stroke-width="1" opacity="1"/>
  <text x="30" y="875.6" fill="#e5e5e5" font-family="Nunito, sans-serif" font-size="14" opacity="1">└────────────────────────┬────────────────────────────┘</text>
  <path d="M20,894 L545,894" fill="none" stroke="#555555" stroke-width="1" opacity="1"/>
  <text x="30" y="917.6" fill="#e5e5e5" font-family="Nunito, sans-serif" font-size="14" opacity="1">apiClient.get('/users')</text>
  <path d="M20,936 L545,936" fill="none" stroke="#555555" stroke-width="1" opacity="1"/>
  <text x="30" y="959.6" fill="#e5e5e5" font-family="Nunito, sans-serif" font-size="14" opacity="1">┌────────────────────────┼────────────────────────────┐</text>
  <path d="M20,978 L545,978" fill="none" stroke="#555555" stroke-width="1" opacity="1"/>
  <text x="30" y="1001.6" fill="#e5e5e5" font-family="Nunito, sans-serif" font-size="14" opacity="1">Layer 1: HTTP 클라이언트 ▼</text>
  <path d="M20,1020 L545,1020" fill="none" stroke="#555555" stroke-width="1" opacity="1"/>
  <text x="30" y="1043.6" fill="#e5e5e5" font-family="Nunito, sans-serif" font-size="14" opacity="1">· Axios 인스턴스 (또는 fetch 래퍼)</text>
  <path d="M20,1062 L545,1062" fill="none" stroke="#555555" stroke-width="1" opacity="1"/>
  <text x="30" y="1085.6" fill="#e5e5e5" font-family="Nunito, sans-serif" font-size="14" opacity="1">· baseURL, timeout, 인증 헤더</text>
  <path d="M20,1104 L545,1104" fill="none" stroke="#555555" stroke-width="1" opacity="1"/>
  <text x="30" y="1127.6" fill="#e5e5e5" font-family="Nunito, sans-serif" font-size="14" opacity="1">· 인터셉터 (토큰 추가, 에러 변환, 로깅)</text>
  <path d="M20,1146 L545,1146" fill="none" stroke="#555555" stroke-width="1" opacity="1"/>
  <text x="30" y="1169.6" fill="#e5e5e5" font-family="Nunito, sans-serif" font-size="14" opacity="1">└─────────────────────────────────────────────────────┘</text>
  <path d="M20,1188 L545,1188" fill="none" stroke="#555555" stroke-width="1" opacity="1"/>
  <text x="30" y="1211.6" fill="#e5e5e5" font-family="Nunito, sans-serif" font-size="14" opacity="1">▼</text>
  <path d="M20,1230 L545,1230" fill="none" stroke="#555555" stroke-width="1" opacity="1"/>
  <text x="30" y="1253.6" fill="#e5e5e5" font-family="Nunito, sans-serif" font-size="14" opacity="1">실제 서버 (REST API)</text>
</svg>