<svg xmlns="http://www.w3.org/2000/svg" width="600" height="627" viewBox="-30 -20 571 596.6">
  <style>
    @import url('https://fonts.googleapis.com/css2?family=Nunito:wght@400;600;700&amp;display=swap');
  </style>
  <rect x="-30" y="-20" width="571" height="596.6" rx="12" fill="#141414"/>
  <text x="30" y="29.8" fill="#e5e5e5" font-family="Nunito, sans-serif" font-size="22" opacity="1">컴포넌트 설계 패턴 진화 개념 지도</text>
  <rect x="20" y="50" width="471" height="42" rx="6.3" fill="#2d1b69" stroke="#8b5cf6" stroke-width="1.5" opacity="1"/>
  <text x="255.5" y="74.75" text-anchor="middle" fill="#e5e5e5" font-family="Nunito, sans-serif" font-size="15">컴포넌트 설계 패턴 진화 개념 지도</text>
  <path d="M20,96 L491,96" fill="none" stroke="#555555" stroke-width="1" opacity="1"/>
  <text x="30" y="119.6" fill="#e5e5e5" font-family="Nunito, sans-serif" font-size="14" opacity="1">패턴의 역사적 진화</text>
  <path d="M20,138 L491,138" fill="none" stroke="#555555" stroke-width="1" opacity="1"/>
  <text x="30" y="161.6" fill="#e5e5e5" font-family="Nunito, sans-serif" font-size="14" opacity="1">2015     2017     2019     2021~현재</text>
  <path d="M20,180 L491,180" fill="none" stroke="#555555" stroke-width="1" opacity="1"/>
  <text x="30" y="203.6" fill="#e5e5e5" font-family="Nunito, sans-serif" font-size="14" opacity="1">Mixins   HOC    Render    Custom Hook (로직 재사용 표준)</text>
  <path d="M20,222 L491,222" fill="none" stroke="#555555" stroke-width="1" opacity="1"/>
  <text x="30" y="245.6" fill="#e5e5e5" font-family="Nunito, sans-serif" font-size="14" opacity="1">Props</text>
  <path d="M20,264 L491,264" fill="none" stroke="#555555" stroke-width="1" opacity="1"/>
  <text x="30" y="287.6" fill="#e5e5e5" font-family="Nunito, sans-serif" font-size="14" opacity="1">(폐기)  (레거시)  (레거시)  Compound Component (UI 유연성)</text>
  <path d="M20,306 L491,306" fill="none" stroke="#555555" stroke-width="1" opacity="1"/>
  <text x="30" y="329.6" fill="#e5e5e5" font-family="Nunito, sans-serif" font-size="14" opacity="1">Headless Component (최대 커스텀)</text>
  <path d="M20,348 L491,348" fill="none" stroke="#555555" stroke-width="1" opacity="1"/>
  <text x="30" y="371.6" fill="#e5e5e5" font-family="Nunito, sans-serif" font-size="14" opacity="1">현재 권장 조합:</text>
  <path d="M20,390 L491,390" fill="none" stroke="#555555" stroke-width="1" opacity="1"/>
  <text x="30" y="413.6" fill="#e5e5e5" font-family="Nunito, sans-serif" font-size="14" opacity="1">· 로직 재사용 → Custom Hook</text>
  <path d="M20,432 L491,432" fill="none" stroke="#555555" stroke-width="1" opacity="1"/>
  <text x="30" y="455.6" fill="#e5e5e5" font-family="Nunito, sans-serif" font-size="14" opacity="1">· UI 구조 유연성 → Compound Component</text>
  <path d="M20,474 L491,474" fill="none" stroke="#555555" stroke-width="1" opacity="1"/>
  <text x="30" y="497.6" fill="#e5e5e5" font-family="Nunito, sans-serif" font-size="14" opacity="1">· 라이브러리 설계 → Headless Component</text>
  <path d="M20,516 L491,516" fill="none" stroke="#555555" stroke-width="1" opacity="1"/>
  <text x="30" y="539.6" fill="#e5e5e5" font-family="Nunito, sans-serif" font-size="14" opacity="1">· 레거시 유지보수 → HOC, Render Props 이해 필요</text>
</svg>