<svg xmlns="http://www.w3.org/2000/svg" width="820" height="485" viewBox="20 -10 820 485">
  <style>
    @import url('https://fonts.googleapis.com/css2?family=Nunito:wght@400;600;700&amp;display=swap');
  </style>
  <rect x="20" y="-10" width="820" height="485" rx="12" fill="#141414"/>
  <text x="150" y="45.2" fill="#e5e5e5" font-family="Nunito, sans-serif" font-size="28" opacity="1">Flutter UI 시스템 — Three Trees</text>
  <rect x="50" y="100" width="200" height="55" rx="8.25" fill="#1e3a5f" stroke="#4a9eed" stroke-width="2" opacity="1"/>
  <text x="150" y="132.5" text-anchor="middle" fill="#e5e5e5" font-family="Nunito, sans-serif" font-size="20">Widget Tree</text>
  <text x="55" y="182.6" fill="#a0a0a0" font-family="Nunito, sans-serif" font-size="14" opacity="1">설계도, 불변</text>
  <text x="55" y="202.2" fill="#a0a0a0" font-family="Nunito, sans-serif" font-size="14" opacity="1">자주 재생성</text>
  <rect x="330" y="100" width="200" height="55" rx="8.25" fill="#2d1b69" stroke="#8b5cf6" stroke-width="2" opacity="1"/>
  <text x="430" y="132.5" text-anchor="middle" fill="#e5e5e5" font-family="Nunito, sans-serif" font-size="20">Element Tree</text>
  <text x="335" y="182.6" fill="#a0a0a0" font-family="Nunito, sans-serif" font-size="14" opacity="1">연결자, 가변</text>
  <text x="335" y="202.2" fill="#a0a0a0" font-family="Nunito, sans-serif" font-size="14" opacity="1">재사용</text>
  <rect x="610" y="100" width="200" height="55" rx="8.25" fill="#1a4d2e" stroke="#22c55e" stroke-width="2" opacity="1"/>
  <text x="710" y="132" text-anchor="middle" fill="#e5e5e5" font-family="Nunito, sans-serif" font-size="18">RenderObject Tree</text>
  <text x="615" y="182.6" fill="#a0a0a0" font-family="Nunito, sans-serif" font-size="14" opacity="1">실제 그리기</text>
  <text x="615" y="202.2" fill="#a0a0a0" font-family="Nunito, sans-serif" font-size="14" opacity="1">비용 큼</text>
  <defs><marker id="arrow-arrow_w_e" markerWidth="10" markerHeight="7" refX="9" refY="3.5" orient="auto"><polygon points="0 0, 10 3.5, 0 7" fill="#e5e5e5"/></marker></defs>
  <path d="M250,120 L330,120" fill="none" stroke="#e5e5e5" stroke-width="2" opacity="1" marker-end="url(#arrow-arrow_w_e)"/>
  <text x="260" y="91.7" fill="#a0a0a0" font-family="Nunito, sans-serif" font-size="13" opacity="1">diffing</text>
  <defs><marker id="arrow-arrow_e_r" markerWidth="10" markerHeight="7" refX="9" refY="3.5" orient="auto"><polygon points="0 0, 10 3.5, 0 7" fill="#e5e5e5"/></marker></defs>
  <path d="M530,120 L610,120" fill="none" stroke="#e5e5e5" stroke-width="2" opacity="1" marker-end="url(#arrow-arrow_e_r)"/>
  <text x="520" y="90.8" fill="#a0a0a0" font-family="Nunito, sans-serif" font-size="12" opacity="1">필요 시 업데이트</text>
  <rect x="80" y="260" width="140" height="45" rx="6.75" fill="#1e3a5f" stroke="#4a9eed" stroke-width="1" opacity="1"/>
  <text x="150" y="286.5" text-anchor="middle" fill="#e5e5e5" font-family="Nunito, sans-serif" font-size="16">MyApp</text>
  <rect x="80" y="330" width="140" height="45" rx="6.75" fill="#1e3a5f" stroke="#4a9eed" stroke-width="1" opacity="1"/>
  <text x="150" y="356.5" text-anchor="middle" fill="#e5e5e5" font-family="Nunito, sans-serif" font-size="16">Scaffold</text>
  <rect x="80" y="400" width="140" height="45" rx="6.75" fill="#1e3a5f" stroke="#4a9eed" stroke-width="1" opacity="1"/>
  <text x="150" y="426.5" text-anchor="middle" fill="#e5e5e5" font-family="Nunito, sans-serif" font-size="16">Text</text>
  <path d="M150,305 L150,330" fill="none" stroke="#555555" stroke-width="2" opacity="1"/>
  <path d="M150,375 L150,400" fill="none" stroke="#555555" stroke-width="2" opacity="1"/>
  <rect x="360" y="260" width="140" height="45" rx="6.75" fill="#2d1b69" stroke="#8b5cf6" stroke-width="1" opacity="1"/>
  <text x="430" y="286" text-anchor="middle" fill="#e5e5e5" font-family="Nunito, sans-serif" font-size="14">ComponentE</text>
  <rect x="360" y="330" width="140" height="45" rx="6.75" fill="#2d1b69" stroke="#8b5cf6" stroke-width="1" opacity="1"/>
  <text x="430" y="356" text-anchor="middle" fill="#e5e5e5" font-family="Nunito, sans-serif" font-size="14">ComponentE</text>
  <rect x="360" y="400" width="140" height="45" rx="6.75" fill="#2d1b69" stroke="#8b5cf6" stroke-width="1" opacity="1"/>
  <text x="430" y="426" text-anchor="middle" fill="#e5e5e5" font-family="Nunito, sans-serif" font-size="14">RenderObjE</text>
  <path d="M430,305 L430,330" fill="none" stroke="#555555" stroke-width="2" opacity="1"/>
  <path d="M430,375 L430,400" fill="none" stroke="#555555" stroke-width="2" opacity="1"/>
  <rect x="640" y="260" width="140" height="45" rx="6.75" fill="#1a4d2e" stroke="#22c55e" stroke-width="1" opacity="1"/>
  <text x="710" y="286" text-anchor="middle" fill="#e5e5e5" font-family="Nunito, sans-serif" font-size="14">RenderView</text>
  <rect x="640" y="330" width="140" height="45" rx="6.75" fill="#1a4d2e" stroke="#22c55e" stroke-width="1" opacity="1"/>
  <text x="710" y="356" text-anchor="middle" fill="#e5e5e5" font-family="Nunito, sans-serif" font-size="14">RenderFlex</text>
  <rect x="640" y="400" width="140" height="45" rx="6.75" fill="#1a4d2e" stroke="#22c55e" stroke-width="1" opacity="1"/>
  <text x="710" y="426" text-anchor="middle" fill="#e5e5e5" font-family="Nunito, sans-serif" font-size="14">RenderPara</text>
  <path d="M710,305 L710,330" fill="none" stroke="#555555" stroke-width="2" opacity="1"/>
  <path d="M710,375 L710,400" fill="none" stroke="#555555" stroke-width="2" opacity="1"/>
</svg>