<svg xmlns="http://www.w3.org/2000/svg" width="860" height="407" viewBox="-30 -20 860 407">
  <style>
    @import url('https://fonts.googleapis.com/css2?family=Nunito:wght@400;600;700&amp;display=swap');
  </style>
  <rect x="-30" y="-20" width="860" height="407" rx="12" fill="#141414"/>
  <text x="180" y="35.2" fill="#e5e5e5" font-family="Nunito, sans-serif" font-size="28" opacity="1">Flutter Navigation 시스템</text>
  <rect x="300" y="70" width="200" height="50" rx="7.5" fill="#1e3a5f" stroke="#4a9eed" stroke-width="2" opacity="1"/>
  <text x="400" y="99.5" text-anchor="middle" fill="#e5e5e5" font-family="Nunito, sans-serif" font-size="18">Navigation</text>
  <defs><marker id="arrow-a1" markerWidth="10" markerHeight="7" refX="9" refY="3.5" orient="auto"><polygon points="0 0, 10 3.5, 0 7" fill="#555555"/></marker></defs>
  <path d="M330,120 L100,170" fill="none" stroke="#555555" stroke-width="2" opacity="1" marker-end="url(#arrow-a1)"/>
  <defs><marker id="arrow-a2" markerWidth="10" markerHeight="7" refX="9" refY="3.5" orient="auto"><polygon points="0 0, 10 3.5, 0 7" fill="#555555"/></marker></defs>
  <path d="M370,120 L310,170" fill="none" stroke="#555555" stroke-width="2" opacity="1" marker-end="url(#arrow-a2)"/>
  <defs><marker id="arrow-a3" markerWidth="10" markerHeight="7" refX="9" refY="3.5" orient="auto"><polygon points="0 0, 10 3.5, 0 7" fill="#555555"/></marker></defs>
  <path d="M430,120 L530,170" fill="none" stroke="#555555" stroke-width="2" opacity="1" marker-end="url(#arrow-a3)"/>
  <defs><marker id="arrow-a4" markerWidth="10" markerHeight="7" refX="9" refY="3.5" orient="auto"><polygon points="0 0, 10 3.5, 0 7" fill="#555555"/></marker></defs>
  <path d="M470,120 L730,170" fill="none" stroke="#555555" stroke-width="2" opacity="1" marker-end="url(#arrow-a4)"/>
  <rect x="0" y="170" width="200" height="50" rx="7.5" fill="#1a4d2e" stroke="#22c55e" stroke-width="2" opacity="1"/>
  <text x="100" y="199.5" text-anchor="middle" fill="#e5e5e5" font-family="Nunito, sans-serif" font-size="18">Navigator</text>
  <rect x="220" y="170" width="200" height="50" rx="7.5" fill="#2d1b69" stroke="#8b5cf6" stroke-width="2" opacity="1"/>
  <text x="320" y="199.5" text-anchor="middle" fill="#e5e5e5" font-family="Nunito, sans-serif" font-size="18">Route 종류</text>
  <rect x="440" y="170" width="200" height="50" rx="7.5" fill="#5c3d1a" stroke="#f59e0b" stroke-width="2" opacity="1"/>
  <text x="540" y="199.5" text-anchor="middle" fill="#e5e5e5" font-family="Nunito, sans-serif" font-size="18">데이터 전달</text>
  <rect x="660" y="170" width="140" height="50" rx="7.5" fill="#1a4d4d" stroke="#06b6d4" stroke-width="2" opacity="1"/>
  <text x="730" y="199.5" text-anchor="middle" fill="#e5e5e5" font-family="Nunito, sans-serif" font-size="18">Hero</text>
  <rect x="0" y="245" width="90" height="32" rx="4.8" fill="#1a4d2e" stroke="#22c55e" stroke-width="1" opacity="1"/>
  <text x="45" y="264" text-anchor="middle" fill="#e5e5e5" font-family="Nunito, sans-serif" font-size="12">push</text>
  <rect x="100" y="245" width="90" height="32" rx="4.8" fill="#1a4d2e" stroke="#22c55e" stroke-width="1" opacity="1"/>
  <text x="145" y="264" text-anchor="middle" fill="#e5e5e5" font-family="Nunito, sans-serif" font-size="12">pop</text>
  <rect x="0" y="285" width="90" height="32" rx="4.8" fill="#1a4d2e" stroke="#22c55e" stroke-width="1" opacity="1"/>
  <text x="45" y="303.75" text-anchor="middle" fill="#e5e5e5" font-family="Nunito, sans-serif" font-size="11">pushReplace</text>
  <rect x="100" y="285" width="100" height="32" rx="4.8" fill="#1a4d2e" stroke="#22c55e" stroke-width="1" opacity="1"/>
  <text x="150" y="303.5" text-anchor="middle" fill="#e5e5e5" font-family="Nunito, sans-serif" font-size="10">pushRemoveUntil</text>
  <rect x="220" y="245" width="140" height="32" rx="4.8" fill="#2d1b69" stroke="#8b5cf6" stroke-width="1" opacity="1"/>
  <text x="290" y="263.75" text-anchor="middle" fill="#e5e5e5" font-family="Nunito, sans-serif" font-size="11">MaterialPageRoute</text>
  <rect x="220" y="285" width="140" height="32" rx="4.8" fill="#2d1b69" stroke="#8b5cf6" stroke-width="1" opacity="1"/>
  <text x="290" y="303.75" text-anchor="middle" fill="#e5e5e5" font-family="Nunito, sans-serif" font-size="11">PageRouteBuilder</text>
  <rect x="220" y="325" width="140" height="32" rx="4.8" fill="#2d1b69" stroke="#8b5cf6" stroke-width="1" opacity="1"/>
  <text x="290" y="343.75" text-anchor="middle" fill="#e5e5e5" font-family="Nunito, sans-serif" font-size="11">Named Route</text>
  <rect x="440" y="245" width="120" height="32" rx="4.8" fill="#5c3d1a" stroke="#f59e0b" stroke-width="1" opacity="1"/>
  <text x="500" y="264" text-anchor="middle" fill="#e5e5e5" font-family="Nunito, sans-serif" font-size="12">생성자 인수</text>
  <rect x="440" y="285" width="120" height="32" rx="4.8" fill="#5c3d1a" stroke="#f59e0b" stroke-width="1" opacity="1"/>
  <text x="500" y="304" text-anchor="middle" fill="#e5e5e5" font-family="Nunito, sans-serif" font-size="12">arguments</text>
  <rect x="440" y="325" width="120" height="32" rx="4.8" fill="#5c3d1a" stroke="#f59e0b" stroke-width="1" opacity="1"/>
  <text x="500" y="344" text-anchor="middle" fill="#e5e5e5" font-family="Nunito, sans-serif" font-size="12">pop 반환값</text>
  <rect x="660" y="245" width="140" height="32" rx="4.8" fill="#1a4d4d" stroke="#06b6d4" stroke-width="1" opacity="1"/>
  <text x="730" y="264" text-anchor="middle" fill="#e5e5e5" font-family="Nunito, sans-serif" font-size="12">공유 태그 전환</text>
</svg>