<svg xmlns="http://www.w3.org/2000/svg" width="600" height="650" viewBox="120 -20 586.55 635">
  <style>
    @import url('https://fonts.googleapis.com/css2?family=Nunito:wght@400;600;700&amp;display=swap');
  </style>
  <rect x="120" y="-20" width="586.55" height="635" rx="12" fill="#141414"/>
  <text x="200" y="35.2" fill="#e5e5e5" font-family="Nunito, sans-serif" font-size="28" opacity="1">Scaffold 슬롯 구조</text>
  <rect x="150" y="65" width="320" height="520" rx="48" fill="transparent" stroke="#555555" stroke-width="3" opacity="1"/>
  <text x="160" y="82.8" fill="#a0a0a0" font-family="Nunito, sans-serif" font-size="12" opacity="1">Scaffold</text>
  <rect x="160" y="95" width="300" height="55" rx="8.25" fill="#1e3a5f" stroke="#4a9eed" stroke-width="2" opacity="1"/>
  <text x="310" y="127.5" text-anchor="middle" fill="#e5e5e5" font-family="Nunito, sans-serif" font-size="20">AppBar</text>
  <rect x="160" y="160" width="300" height="300" rx="45" fill="#1a4d2e" stroke="#22c55e" stroke-width="2" opacity="1"/>
  <text x="310" y="316" text-anchor="middle" fill="#e5e5e5" font-family="Nunito, sans-serif" font-size="24">body</text>
  <rect x="160" y="470" width="300" height="55" rx="8.25" fill="#2d1b69" stroke="#8b5cf6" stroke-width="2" opacity="1"/>
  <text x="310" y="501.75" text-anchor="middle" fill="#e5e5e5" font-family="Nunito, sans-serif" font-size="17">BottomNavigationBar</text>
  <rect x="160" y="160" width="120" height="300" rx="18" fill="#5c3d1a" stroke="#f59e0b" stroke-width="2" opacity="0.6"/>
  <text x="220" y="314" text-anchor="middle" fill="#e5e5e5" font-family="Nunito, sans-serif" font-size="16">Drawer</text>
  <rect x="390" y="400" width="60" height="60" rx="9" fill="#5c1a1a" stroke="#ef4444" stroke-width="2" opacity="1"/>
  <text x="420" y="433.5" text-anchor="middle" fill="#e5e5e5" font-family="Nunito, sans-serif" font-size="14">FAB</text>
  <text x="530" y="109.4" fill="#e5e5e5" font-family="Nunito, sans-serif" font-size="16" opacity="1">슬롯 목록</text>
  <rect x="530" y="130" width="16" height="16" rx="0" fill="#1e3a5f" stroke="#4a9eed" stroke-width="1" opacity="1"/>
  <text x="555" y="141.7" fill="#a0a0a0" font-family="Nunito, sans-serif" font-size="13" opacity="1">AppBar (상단)</text>
  <rect x="530" y="160" width="16" height="16" rx="0" fill="#1a4d2e" stroke="#22c55e" stroke-width="1" opacity="1"/>
  <text x="555" y="171.7" fill="#a0a0a0" font-family="Nunito, sans-serif" font-size="13" opacity="1">body (중앙)</text>
  <rect x="530" y="190" width="16" height="16" rx="0" fill="#2d1b69" stroke="#8b5cf6" stroke-width="1" opacity="1"/>
  <text x="555" y="201.7" fill="#a0a0a0" font-family="Nunito, sans-serif" font-size="13" opacity="1">BottomNavBar (하단)</text>
  <rect x="530" y="220" width="16" height="16" rx="0" fill="#5c3d1a" stroke="#f59e0b" stroke-width="1" opacity="1"/>
  <text x="555" y="231.7" fill="#a0a0a0" font-family="Nunito, sans-serif" font-size="13" opacity="1">Drawer (좌측 서랍)</text>
  <rect x="530" y="250" width="16" height="16" rx="0" fill="#5c1a1a" stroke="#ef4444" stroke-width="1" opacity="1"/>
  <text x="555" y="261.7" fill="#a0a0a0" font-family="Nunito, sans-serif" font-size="13" opacity="1">FAB (우하단 버튼)</text>
</svg>