<svg xmlns="http://www.w3.org/2000/svg" width="680" height="440" viewBox="50 -15 680 440">
  <style>
    @import url('https://fonts.googleapis.com/css2?family=Nunito:wght@400;600;700&amp;display=swap');
  </style>
  <rect x="50" y="-15" width="680" height="440" rx="12" fill="#141414"/>
  <text x="180" y="40.2" fill="#e5e5e5" font-family="Nunito, sans-serif" font-size="28" opacity="1">Constraints 전파 흐름</text>
  <text x="80" y="81.2" fill="#4a9eed" font-family="Nunito, sans-serif" font-size="18" opacity="1">Constraints Down ↓</text>
  <text x="480" y="81.2" fill="#22c55e" font-family="Nunito, sans-serif" font-size="18" opacity="1">Sizes Up ↑</text>
  <rect x="80" y="105" width="200" height="50" rx="7.5" fill="#1e3a5f" stroke="#4a9eed" stroke-width="2" opacity="1"/>
  <text x="180" y="134.25" text-anchor="middle" fill="#e5e5e5" font-family="Nunito, sans-serif" font-size="17">Screen</text>
  <text x="290" y="125.8" fill="#a0a0a0" font-family="Nunito, sans-serif" font-size="12" opacity="1">w:0~414, h:0~896</text>
  <defs><marker id="arrow-c_a1" markerWidth="10" markerHeight="7" refX="9" refY="3.5" orient="auto"><polygon points="0 0, 10 3.5, 0 7" fill="#4a9eed"/></marker></defs>
  <path d="M180,155 L180,180" fill="none" stroke="#4a9eed" stroke-width="2" opacity="1" marker-end="url(#arrow-c_a1)"/>
  <rect x="80" y="185" width="200" height="50" rx="7.5" fill="#1e3a5f" stroke="#4a9eed" stroke-width="2" opacity="1"/>
  <text x="180" y="214.25" text-anchor="middle" fill="#e5e5e5" font-family="Nunito, sans-serif" font-size="17">Scaffold</text>
  <text x="290" y="205.8" fill="#a0a0a0" font-family="Nunito, sans-serif" font-size="12" opacity="1">body에 tight 전달</text>
  <defs><marker id="arrow-c_a2" markerWidth="10" markerHeight="7" refX="9" refY="3.5" orient="auto"><polygon points="0 0, 10 3.5, 0 7" fill="#4a9eed"/></marker></defs>
  <path d="M180,235 L180,260" fill="none" stroke="#4a9eed" stroke-width="2" opacity="1" marker-end="url(#arrow-c_a2)"/>
  <rect x="80" y="265" width="200" height="50" rx="7.5" fill="#1e3a5f" stroke="#4a9eed" stroke-width="2" opacity="1"/>
  <text x="180" y="294.25" text-anchor="middle" fill="#e5e5e5" font-family="Nunito, sans-serif" font-size="17">Column</text>
  <text x="290" y="285.8" fill="#a0a0a0" font-family="Nunito, sans-serif" font-size="12" opacity="1">자식에게 loose 전달</text>
  <defs><marker id="arrow-c_a3" markerWidth="10" markerHeight="7" refX="9" refY="3.5" orient="auto"><polygon points="0 0, 10 3.5, 0 7" fill="#4a9eed"/></marker></defs>
  <path d="M180,315 L180,340" fill="none" stroke="#4a9eed" stroke-width="2" opacity="1" marker-end="url(#arrow-c_a3)"/>
  <rect x="80" y="345" width="200" height="50" rx="7.5" fill="#1e3a5f" stroke="#4a9eed" stroke-width="2" opacity="1"/>
  <text x="180" y="374.25" text-anchor="middle" fill="#e5e5e5" font-family="Nunito, sans-serif" font-size="17">Text</text>
  <text x="290" y="365.8" fill="#a0a0a0" font-family="Nunito, sans-serif" font-size="12" opacity="1">intrinsic size 결정</text>
  <rect x="500" y="345" width="200" height="50" rx="7.5" fill="#1a4d2e" stroke="#22c55e" stroke-width="2" opacity="1"/>
  <text x="600" y="374" text-anchor="middle" fill="#e5e5e5" font-family="Nunito, sans-serif" font-size="16">Text: 80x20</text>
  <defs><marker id="arrow-s_a1" markerWidth="10" markerHeight="7" refX="9" refY="3.5" orient="auto"><polygon points="0 0, 10 3.5, 0 7" fill="#22c55e"/></marker></defs>
  <path d="M600,345 L600,320" fill="none" stroke="#22c55e" stroke-width="2" opacity="1" marker-end="url(#arrow-s_a1)"/>
  <rect x="500" y="265" width="200" height="50" rx="7.5" fill="#1a4d2e" stroke="#22c55e" stroke-width="2" opacity="1"/>
  <text x="600" y="293.75" text-anchor="middle" fill="#e5e5e5" font-family="Nunito, sans-serif" font-size="15">Column: 414x80</text>
  <defs><marker id="arrow-s_a2" markerWidth="10" markerHeight="7" refX="9" refY="3.5" orient="auto"><polygon points="0 0, 10 3.5, 0 7" fill="#22c55e"/></marker></defs>
  <path d="M600,265 L600,240" fill="none" stroke="#22c55e" stroke-width="2" opacity="1" marker-end="url(#arrow-s_a2)"/>
  <rect x="500" y="185" width="200" height="50" rx="7.5" fill="#1a4d2e" stroke="#22c55e" stroke-width="2" opacity="1"/>
  <text x="600" y="213.5" text-anchor="middle" fill="#e5e5e5" font-family="Nunito, sans-serif" font-size="14">Scaffold: 414x896</text>
</svg>