<svg xmlns="http://www.w3.org/2000/svg" width="600" height="793" viewBox="150 -20 450 595">
  <style>
    @import url('https://fonts.googleapis.com/css2?family=Nunito:wght@400;600;700&amp;display=swap');
  </style>
  <rect x="150" y="-20" width="450" height="595" rx="12" fill="#141414"/>
  <text x="180" y="35.2" fill="#e5e5e5" font-family="Nunito, sans-serif" font-size="28" opacity="1">notifyListeners() 흐름</text>
  <rect x="230" y="70" width="340" height="50" rx="7.5" fill="#1e3a5f" stroke="#4a9eed" stroke-width="2" opacity="1"/>
  <text x="400" y="99.5" text-anchor="middle" fill="#e5e5e5" font-family="Nunito, sans-serif" font-size="18">addItem(item) 호출</text>
  <defs><marker id="arrow-a1" markerWidth="10" markerHeight="7" refX="9" refY="3.5" orient="auto"><polygon points="0 0, 10 3.5, 0 7" fill="#a0a0a0"/></marker></defs>
  <path d="M400,120 L400,155" fill="none" stroke="#a0a0a0" stroke-width="2" opacity="1" marker-end="url(#arrow-a1)"/>
  <rect x="230" y="155" width="340" height="50" rx="7.5" fill="#2d1b69" stroke="#8b5cf6" stroke-width="2" opacity="1"/>
  <text x="400" y="184.5" text-anchor="middle" fill="#e5e5e5" font-family="Nunito, sans-serif" font-size="18">_items에 추가</text>
  <defs><marker id="arrow-a2" markerWidth="10" markerHeight="7" refX="9" refY="3.5" orient="auto"><polygon points="0 0, 10 3.5, 0 7" fill="#a0a0a0"/></marker></defs>
  <path d="M400,205 L400,240" fill="none" stroke="#a0a0a0" stroke-width="2" opacity="1" marker-end="url(#arrow-a2)"/>
  <rect x="230" y="240" width="340" height="50" rx="7.5" fill="#5c3d1a" stroke="#f59e0b" stroke-width="2" opacity="1"/>
  <text x="400" y="269.5" text-anchor="middle" fill="#e5e5e5" font-family="Nunito, sans-serif" font-size="18">notifyListeners()</text>
  <defs><marker id="arrow-a3" markerWidth="10" markerHeight="7" refX="9" refY="3.5" orient="auto"><polygon points="0 0, 10 3.5, 0 7" fill="#a0a0a0"/></marker></defs>
  <path d="M400,290 L400,325" fill="none" stroke="#a0a0a0" stroke-width="2" opacity="1" marker-end="url(#arrow-a3)"/>
  <rect x="230" y="325" width="340" height="50" rx="7.5" fill="#555555" stroke="#a0a0a0" stroke-width="2" opacity="1"/>
  <text x="400" y="354.5" text-anchor="middle" fill="#e5e5e5" font-family="Nunito, sans-serif" font-size="18">등록된 리스너 순회</text>
  <defs><marker id="arrow-a4" markerWidth="10" markerHeight="7" refX="9" refY="3.5" orient="auto"><polygon points="0 0, 10 3.5, 0 7" fill="#a0a0a0"/></marker></defs>
  <path d="M400,375 L400,410" fill="none" stroke="#a0a0a0" stroke-width="2" opacity="1" marker-end="url(#arrow-a4)"/>
  <rect x="230" y="410" width="340" height="50" rx="7.5" fill="#1a4d4d" stroke="#06b6d4" stroke-width="2" opacity="1"/>
  <text x="400" y="439.5" text-anchor="middle" fill="#e5e5e5" font-family="Nunito, sans-serif" font-size="18">Element.markNeedsBuild()</text>
  <defs><marker id="arrow-a5" markerWidth="10" markerHeight="7" refX="9" refY="3.5" orient="auto"><polygon points="0 0, 10 3.5, 0 7" fill="#a0a0a0"/></marker></defs>
  <path d="M400,460 L400,495" fill="none" stroke="#a0a0a0" stroke-width="2" opacity="1" marker-end="url(#arrow-a5)"/>
  <rect x="230" y="495" width="340" height="50" rx="7.5" fill="#1a4d2e" stroke="#22c55e" stroke-width="2" opacity="1"/>
  <text x="400" y="524.5" text-anchor="middle" fill="#e5e5e5" font-family="Nunito, sans-serif" font-size="18">다음 프레임 rebuild</text>
</svg>