<svg xmlns="http://www.w3.org/2000/svg" width="600" height="983" viewBox="150 -15 360 590">
  <style>
    @import url('https://fonts.googleapis.com/css2?family=Nunito:wght@400;600;700&amp;display=swap');
  </style>
  <rect x="150" y="-15" width="360" height="590" rx="12" fill="#141414"/>
  <text x="180" y="36.6" fill="#e5e5e5" font-family="Nunito, sans-serif" font-size="24" opacity="1">flutter run 실행 파이프라인</text>
  <rect x="220" y="60" width="240" height="55" rx="8.25" fill="#1e3a5f" stroke="#4a9eed" stroke-width="2" opacity="1"/>
  <text x="340" y="92.5" text-anchor="middle" fill="#e5e5e5" font-family="Nunito, sans-serif" font-size="20">flutter run</text>
  <defs><marker id="arrow-a1" markerWidth="10" markerHeight="7" refX="9" refY="3.5" orient="auto"><polygon points="0 0, 10 3.5, 0 7" fill="#e5e5e5"/></marker></defs>
  <path d="M340,115 L340,155" fill="none" stroke="#e5e5e5" stroke-width="2" opacity="1" marker-end="url(#arrow-a1)"/>
  <rect x="200" y="155" width="280" height="50" rx="7.5" fill="#2d1b69" stroke="#8b5cf6" stroke-width="2" opacity="1"/>
  <text x="340" y="183.75" text-anchor="middle" fill="#e5e5e5" font-family="Nunito, sans-serif" font-size="15">① pubspec.yaml 의존성 확인</text>
  <defs><marker id="arrow-a2" markerWidth="10" markerHeight="7" refX="9" refY="3.5" orient="auto"><polygon points="0 0, 10 3.5, 0 7" fill="#e5e5e5"/></marker></defs>
  <path d="M340,205 L340,240" fill="none" stroke="#e5e5e5" stroke-width="2" opacity="1" marker-end="url(#arrow-a2)"/>
  <rect x="200" y="240" width="280" height="50" rx="7.5" fill="#2d1b69" stroke="#8b5cf6" stroke-width="2" opacity="1"/>
  <text x="340" y="268.75" text-anchor="middle" fill="#e5e5e5" font-family="Nunito, sans-serif" font-size="15">② Dart AOT/JIT 컴파일</text>
  <defs><marker id="arrow-a3" markerWidth="10" markerHeight="7" refX="9" refY="3.5" orient="auto"><polygon points="0 0, 10 3.5, 0 7" fill="#e5e5e5"/></marker></defs>
  <path d="M340,290 L340,325" fill="none" stroke="#e5e5e5" stroke-width="2" opacity="1" marker-end="url(#arrow-a3)"/>
  <rect x="200" y="325" width="280" height="50" rx="7.5" fill="#5c3d1a" stroke="#f59e0b" stroke-width="2" opacity="1"/>
  <text x="340" y="353.75" text-anchor="middle" fill="#e5e5e5" font-family="Nunito, sans-serif" font-size="15">③ 플랫폼 빌드 도구 호출</text>
  <defs><marker id="arrow-a4" markerWidth="10" markerHeight="7" refX="9" refY="3.5" orient="auto"><polygon points="0 0, 10 3.5, 0 7" fill="#e5e5e5"/></marker></defs>
  <path d="M340,375 L340,410" fill="none" stroke="#e5e5e5" stroke-width="2" opacity="1" marker-end="url(#arrow-a4)"/>
  <rect x="200" y="410" width="280" height="50" rx="7.5" fill="#5c3d1a" stroke="#f59e0b" stroke-width="2" opacity="1"/>
  <text x="340" y="438.75" text-anchor="middle" fill="#e5e5e5" font-family="Nunito, sans-serif" font-size="15">④ 기기에 앱 설치 및 실행</text>
  <defs><marker id="arrow-a5" markerWidth="10" markerHeight="7" refX="9" refY="3.5" orient="auto"><polygon points="0 0, 10 3.5, 0 7" fill="#e5e5e5"/></marker></defs>
  <path d="M340,460 L340,495" fill="none" stroke="#e5e5e5" stroke-width="2" opacity="1" marker-end="url(#arrow-a5)"/>
  <rect x="200" y="495" width="280" height="50" rx="7.5" fill="#1a4d2e" stroke="#22c55e" stroke-width="2" opacity="1"/>
  <text x="340" y="523.5" text-anchor="middle" fill="#e5e5e5" font-family="Nunito, sans-serif" font-size="14">⑤ 디버그 연결 (Hot Reload 대기)</text>
</svg>