<svg xmlns="http://www.w3.org/2000/svg" width="600" height="700" viewBox="20 -15 526.8 615">
  <style>
    @import url('https://fonts.googleapis.com/css2?family=Nunito:wght@400;600;700&amp;display=swap');
  </style>
  <rect x="20" y="-15" width="526.8" height="615" rx="12" fill="#141414"/>
  <text x="200" y="36.6" fill="#e5e5e5" font-family="Nunito, sans-serif" font-size="24" opacity="1">Rendering Pipeline (5단계)</text>
  <rect x="240" y="60" width="220" height="50" rx="7.5" fill="#5c3d1a" stroke="#f59e0b" stroke-width="2" opacity="1"/>
  <text x="350" y="89" text-anchor="middle" fill="#e5e5e5" font-family="Nunito, sans-serif" font-size="16">사용자 입력 / setState</text>
  <defs><marker id="arrow-a0" markerWidth="10" markerHeight="7" refX="9" refY="3.5" orient="auto"><polygon points="0 0, 10 3.5, 0 7" fill="#e5e5e5"/></marker></defs>
  <path d="M350,110 L350,150" fill="none" stroke="#e5e5e5" stroke-width="2" opacity="1" marker-end="url(#arrow-a0)"/>
  <rect x="240" y="150" width="220" height="50" rx="7.5" fill="#1e3a5f" stroke="#4a9eed" stroke-width="2" opacity="1"/>
  <text x="350" y="179" text-anchor="middle" fill="#e5e5e5" font-family="Nunito, sans-serif" font-size="16">① Build Phase</text>
  <defs><marker id="arrow-a1" markerWidth="10" markerHeight="7" refX="9" refY="3.5" orient="auto"><polygon points="0 0, 10 3.5, 0 7" fill="#e5e5e5"/></marker></defs>
  <path d="M350,200 L350,240" fill="none" stroke="#e5e5e5" stroke-width="2" opacity="1" marker-end="url(#arrow-a1)"/>
  <rect x="240" y="240" width="220" height="50" rx="7.5" fill="#1e3a5f" stroke="#4a9eed" stroke-width="2" opacity="1"/>
  <text x="350" y="269" text-anchor="middle" fill="#e5e5e5" font-family="Nunito, sans-serif" font-size="16">② Layout Phase</text>
  <defs><marker id="arrow-a2" markerWidth="10" markerHeight="7" refX="9" refY="3.5" orient="auto"><polygon points="0 0, 10 3.5, 0 7" fill="#e5e5e5"/></marker></defs>
  <path d="M350,290 L350,330" fill="none" stroke="#e5e5e5" stroke-width="2" opacity="1" marker-end="url(#arrow-a2)"/>
  <rect x="240" y="330" width="220" height="50" rx="7.5" fill="#1e3a5f" stroke="#4a9eed" stroke-width="2" opacity="1"/>
  <text x="350" y="359" text-anchor="middle" fill="#e5e5e5" font-family="Nunito, sans-serif" font-size="16">③ Paint Phase</text>
  <defs><marker id="arrow-a3" markerWidth="10" markerHeight="7" refX="9" refY="3.5" orient="auto"><polygon points="0 0, 10 3.5, 0 7" fill="#e5e5e5"/></marker></defs>
  <path d="M350,380 L350,420" fill="none" stroke="#e5e5e5" stroke-width="2" opacity="1" marker-end="url(#arrow-a3)"/>
  <rect x="240" y="420" width="220" height="50" rx="7.5" fill="#2d1b69" stroke="#8b5cf6" stroke-width="2" opacity="1"/>
  <text x="350" y="449" text-anchor="middle" fill="#e5e5e5" font-family="Nunito, sans-serif" font-size="16">④ Composite</text>
  <defs><marker id="arrow-a4" markerWidth="10" markerHeight="7" refX="9" refY="3.5" orient="auto"><polygon points="0 0, 10 3.5, 0 7" fill="#e5e5e5"/></marker></defs>
  <path d="M350,470 L350,510" fill="none" stroke="#e5e5e5" stroke-width="2" opacity="1" marker-end="url(#arrow-a4)"/>
  <rect x="240" y="510" width="220" height="50" rx="7.5" fill="#2d1b69" stroke="#8b5cf6" stroke-width="2" opacity="1"/>
  <text x="350" y="539" text-anchor="middle" fill="#e5e5e5" font-family="Nunito, sans-serif" font-size="16">⑤ Rasterize → GPU</text>
  <rect x="50" y="140" width="180" height="250" rx="27" fill="#1e3a5f" stroke="#4a9eed" stroke-width="1" opacity="0.2"/>
  <text x="80" y="254.4" fill="#4a9eed" font-family="Nunito, sans-serif" font-size="16" opacity="1">Framework</text>
  <text x="80" y="276.8" fill="#4a9eed" font-family="Nunito, sans-serif" font-size="16" opacity="1">(Dart)</text>
  <rect x="50" y="410" width="180" height="160" rx="24" fill="#2d1b69" stroke="#8b5cf6" stroke-width="1" opacity="0.2"/>
  <text x="80" y="484.4" fill="#8b5cf6" font-family="Nunito, sans-serif" font-size="16" opacity="1">Engine</text>
  <text x="80" y="506.79999999999995" fill="#8b5cf6" font-family="Nunito, sans-serif" font-size="16" opacity="1">(C++)</text>
</svg>