<svg xmlns="http://www.w3.org/2000/svg" width="600" height="682" viewBox="170 -20 545.5 620">
  <style>
    @import url('https://fonts.googleapis.com/css2?family=Nunito:wght@400;600;700&amp;display=swap');
  </style>
  <rect x="170" y="-20" width="545.5" height="620" rx="12" fill="#141414"/>
  <text x="200" y="35.2" fill="#e5e5e5" font-family="Nunito, sans-serif" font-size="28" opacity="1">터치 이벤트 처리 흐름</text>
  <rect x="250" y="70" width="300" height="50" rx="7.5" fill="#5c3d1a" stroke="#f59e0b" stroke-width="2" opacity="1"/>
  <text x="400" y="99.5" text-anchor="middle" fill="#e5e5e5" font-family="Nunito, sans-serif" font-size="18">손가락이 화면에 닿음</text>
  <defs><marker id="arrow-a1" markerWidth="10" markerHeight="7" refX="9" refY="3.5" orient="auto"><polygon points="0 0, 10 3.5, 0 7" fill="#555555"/></marker></defs>
  <path d="M400,120 L400,160" fill="none" stroke="#555555" stroke-width="2" opacity="1" marker-end="url(#arrow-a1)"/>
  <rect x="250" y="160" width="300" height="50" rx="7.5" fill="#555555" stroke="#a0a0a0" stroke-width="2" opacity="1"/>
  <text x="400" y="189.5" text-anchor="middle" fill="#e5e5e5" font-family="Nunito, sans-serif" font-size="18">Embedder Layer</text>
  <text x="570" y="182.6" fill="#a0a0a0" font-family="Nunito, sans-serif" font-size="14" opacity="1">OS 터치 이벤트 수신</text>
  <defs><marker id="arrow-a2" markerWidth="10" markerHeight="7" refX="9" refY="3.5" orient="auto"><polygon points="0 0, 10 3.5, 0 7" fill="#555555"/></marker></defs>
  <path d="M400,210 L400,250" fill="none" stroke="#555555" stroke-width="2" opacity="1" marker-end="url(#arrow-a2)"/>
  <rect x="250" y="250" width="300" height="50" rx="7.5" fill="#2d1b69" stroke="#8b5cf6" stroke-width="2" opacity="1"/>
  <text x="400" y="279.5" text-anchor="middle" fill="#e5e5e5" font-family="Nunito, sans-serif" font-size="18">Engine Layer</text>
  <text x="570" y="272.6" fill="#a0a0a0" font-family="Nunito, sans-serif" font-size="14" opacity="1">좌표 전달</text>
  <defs><marker id="arrow-a3" markerWidth="10" markerHeight="7" refX="9" refY="3.5" orient="auto"><polygon points="0 0, 10 3.5, 0 7" fill="#555555"/></marker></defs>
  <path d="M400,300 L400,340" fill="none" stroke="#555555" stroke-width="2" opacity="1" marker-end="url(#arrow-a3)"/>
  <rect x="250" y="340" width="300" height="50" rx="7.5" fill="#1e3a5f" stroke="#4a9eed" stroke-width="2" opacity="1"/>
  <text x="400" y="369.5" text-anchor="middle" fill="#e5e5e5" font-family="Nunito, sans-serif" font-size="18">Hit Testing</text>
  <text x="570" y="362.6" fill="#a0a0a0" font-family="Nunito, sans-serif" font-size="14" opacity="1">RenderObject 탐색</text>
  <defs><marker id="arrow-a4" markerWidth="10" markerHeight="7" refX="9" refY="3.5" orient="auto"><polygon points="0 0, 10 3.5, 0 7" fill="#555555"/></marker></defs>
  <path d="M400,390 L400,430" fill="none" stroke="#555555" stroke-width="2" opacity="1" marker-end="url(#arrow-a4)"/>
  <rect x="250" y="430" width="300" height="50" rx="7.5" fill="#1a4d4d" stroke="#06b6d4" stroke-width="2" opacity="1"/>
  <text x="400" y="459.5" text-anchor="middle" fill="#e5e5e5" font-family="Nunito, sans-serif" font-size="18">Gesture Arena</text>
  <text x="570" y="452.6" fill="#a0a0a0" font-family="Nunito, sans-serif" font-size="14" opacity="1">제스처 경쟁 · 승자 결정</text>
  <defs><marker id="arrow-a5" markerWidth="10" markerHeight="7" refX="9" refY="3.5" orient="auto"><polygon points="0 0, 10 3.5, 0 7" fill="#555555"/></marker></defs>
  <path d="M400,480 L400,520" fill="none" stroke="#555555" stroke-width="2" opacity="1" marker-end="url(#arrow-a5)"/>
  <rect x="250" y="520" width="300" height="50" rx="7.5" fill="#1a4d2e" stroke="#22c55e" stroke-width="2" opacity="1"/>
  <text x="400" y="549.5" text-anchor="middle" fill="#e5e5e5" font-family="Nunito, sans-serif" font-size="18">GestureDetector</text>
  <text x="570" y="542.6" fill="#a0a0a0" font-family="Nunito, sans-serif" font-size="14" opacity="1">콜백 호출</text>
</svg>