<svg xmlns="http://www.w3.org/2000/svg" width="630" height="450" viewBox="120 -20 630 450">
  <style>
    @import url('https://fonts.googleapis.com/css2?family=Nunito:wght@400;600;700&amp;display=swap');
  </style>
  <rect x="120" y="-20" width="630" height="450" rx="12" fill="#141414"/>
  <text x="150" y="31.6" fill="#e5e5e5" font-family="Nunito, sans-serif" font-size="24" opacity="1">변수 선언 키워드 결정 흐름도</text>
  <rect x="250" y="60" width="200" height="50" rx="7.5" fill="#555555" stroke="#a0a0a0" stroke-width="2" opacity="1"/>
  <text x="350" y="89" text-anchor="middle" fill="#e5e5e5" font-family="Nunito, sans-serif" font-size="16">변수를 선언한다</text>
  <defs><marker id="arrow-a1" markerWidth="10" markerHeight="7" refX="9" refY="3.5" orient="auto"><polygon points="0 0, 10 3.5, 0 7" fill="#555555"/></marker></defs>
  <path d="M350,110 L350,150" fill="none" stroke="#555555" stroke-width="2" opacity="1" marker-end="url(#arrow-a1)"/>
  <rect x="225" y="150" width="250" height="60" rx="0" fill="#1e3a5f" stroke="#4a9eed" stroke-width="2" opacity="1"/>
  <text x="350" y="184" text-anchor="middle" fill="#e5e5e5" font-family="Nunito, sans-serif" font-size="16">재할당이 필요한가?</text>
  <defs><marker id="arrow-a2_yes" markerWidth="10" markerHeight="7" refX="9" refY="3.5" orient="auto"><polygon points="0 0, 10 3.5, 0 7" fill="#22c55e"/></marker></defs>
  <path d="M475,180 L555,180" fill="none" stroke="#22c55e" stroke-width="2" opacity="1" marker-end="url(#arrow-a2_yes)"/>
  <text x="490" y="173.7" fill="#22c55e" font-family="Nunito, sans-serif" font-size="13" opacity="1">YES</text>
  <rect x="555" y="160" width="120" height="50" rx="7.5" fill="#5c3d1a" stroke="#f59e0b" stroke-width="2" opacity="1"/>
  <text x="615" y="189.5" text-anchor="middle" fill="#e5e5e5" font-family="Nunito, sans-serif" font-size="18">var</text>
  <defs><marker id="arrow-a3_no" markerWidth="10" markerHeight="7" refX="9" refY="3.5" orient="auto"><polygon points="0 0, 10 3.5, 0 7" fill="#ef4444"/></marker></defs>
  <path d="M350,210 L350,250" fill="none" stroke="#ef4444" stroke-width="2" opacity="1" marker-end="url(#arrow-a3_no)"/>
  <text x="360" y="231.7" fill="#ef4444" font-family="Nunito, sans-serif" font-size="13" opacity="1">NO</text>
  <rect x="180" y="250" width="340" height="60" rx="0" fill="#1e3a5f" stroke="#4a9eed" stroke-width="2" opacity="1"/>
  <text x="350" y="284" text-anchor="middle" fill="#e5e5e5" font-family="Nunito, sans-serif" font-size="16">컴파일 타임에 값이 결정되는가?</text>
  <defs><marker id="arrow-a4_yes" markerWidth="10" markerHeight="7" refX="9" refY="3.5" orient="auto"><polygon points="0 0, 10 3.5, 0 7" fill="#22c55e"/></marker></defs>
  <path d="M520,280 L600,280" fill="none" stroke="#22c55e" stroke-width="2" opacity="1" marker-end="url(#arrow-a4_yes)"/>
  <text x="535" y="273.7" fill="#22c55e" font-family="Nunito, sans-serif" font-size="13" opacity="1">YES</text>
  <rect x="600" y="260" width="120" height="50" rx="7.5" fill="#1a4d2e" stroke="#22c55e" stroke-width="2" opacity="1"/>
  <text x="660" y="289.5" text-anchor="middle" fill="#e5e5e5" font-family="Nunito, sans-serif" font-size="18">const</text>
  <defs><marker id="arrow-a5_no" markerWidth="10" markerHeight="7" refX="9" refY="3.5" orient="auto"><polygon points="0 0, 10 3.5, 0 7" fill="#ef4444"/></marker></defs>
  <path d="M350,310 L350,350" fill="none" stroke="#ef4444" stroke-width="2" opacity="1" marker-end="url(#arrow-a5_no)"/>
  <text x="360" y="331.7" fill="#ef4444" font-family="Nunito, sans-serif" font-size="13" opacity="1">NO</text>
  <rect x="290" y="350" width="120" height="50" rx="7.5" fill="#1e3a5f" stroke="#4a9eed" stroke-width="2" opacity="1"/>
  <text x="350" y="379.5" text-anchor="middle" fill="#e5e5e5" font-family="Nunito, sans-serif" font-size="18">final</text>
</svg>