<svg xmlns="http://www.w3.org/2000/svg" width="600" height="711" viewBox="70 -10 455.5 540">
  <style>
    @import url('https://fonts.googleapis.com/css2?family=Nunito:wght@400;600;700&amp;display=swap');
  </style>
  <rect x="70" y="-10" width="455.5" height="540" rx="12" fill="#141414"/>
  <text x="200" y="45.2" fill="#e5e5e5" font-family="Nunito, sans-serif" font-size="28" opacity="1">렌더링 5단계</text>
  <text x="100" y="114.8" fill="#4a9eed" font-family="Nunito, sans-serif" font-size="22" opacity="1">①</text>
  <rect x="140" y="85" width="220" height="55" rx="8.25" fill="#1e3a5f" stroke="#4a9eed" stroke-width="2" opacity="1"/>
  <text x="250" y="117.5" text-anchor="middle" fill="#e5e5e5" font-family="Nunito, sans-serif" font-size="20">Build Phase</text>
  <text x="380" y="107.6" fill="#a0a0a0" font-family="Nunito, sans-serif" font-size="14" opacity="1">Widget Tree 재구성</text>
  <defs><marker id="arrow-a1" markerWidth="10" markerHeight="7" refX="9" refY="3.5" orient="auto"><polygon points="0 0, 10 3.5, 0 7" fill="#e5e5e5"/></marker></defs>
  <path d="M250,140 L250,170" fill="none" stroke="#e5e5e5" stroke-width="2" opacity="1" marker-end="url(#arrow-a1)"/>
  <text x="100" y="204.8" fill="#8b5cf6" font-family="Nunito, sans-serif" font-size="22" opacity="1">②</text>
  <rect x="140" y="175" width="220" height="55" rx="8.25" fill="#2d1b69" stroke="#8b5cf6" stroke-width="2" opacity="1"/>
  <text x="250" y="207.5" text-anchor="middle" fill="#e5e5e5" font-family="Nunito, sans-serif" font-size="20">Layout Phase</text>
  <text x="380" y="197.6" fill="#a0a0a0" font-family="Nunito, sans-serif" font-size="14" opacity="1">크기·위치 계산</text>
  <defs><marker id="arrow-a2" markerWidth="10" markerHeight="7" refX="9" refY="3.5" orient="auto"><polygon points="0 0, 10 3.5, 0 7" fill="#e5e5e5"/></marker></defs>
  <path d="M250,230 L250,260" fill="none" stroke="#e5e5e5" stroke-width="2" opacity="1" marker-end="url(#arrow-a2)"/>
  <text x="100" y="294.8" fill="#22c55e" font-family="Nunito, sans-serif" font-size="22" opacity="1">③</text>
  <rect x="140" y="265" width="220" height="55" rx="8.25" fill="#1a4d2e" stroke="#22c55e" stroke-width="2" opacity="1"/>
  <text x="250" y="297.5" text-anchor="middle" fill="#e5e5e5" font-family="Nunito, sans-serif" font-size="20">Paint Phase</text>
  <text x="380" y="287.6" fill="#a0a0a0" font-family="Nunito, sans-serif" font-size="14" opacity="1">Canvas 명령 생성</text>
  <defs><marker id="arrow-a3" markerWidth="10" markerHeight="7" refX="9" refY="3.5" orient="auto"><polygon points="0 0, 10 3.5, 0 7" fill="#e5e5e5"/></marker></defs>
  <path d="M250,320 L250,350" fill="none" stroke="#e5e5e5" stroke-width="2" opacity="1" marker-end="url(#arrow-a3)"/>
  <text x="100" y="384.8" fill="#f59e0b" font-family="Nunito, sans-serif" font-size="22" opacity="1">④</text>
  <rect x="140" y="355" width="220" height="55" rx="8.25" fill="#5c3d1a" stroke="#f59e0b" stroke-width="2" opacity="1"/>
  <text x="250" y="387.5" text-anchor="middle" fill="#e5e5e5" font-family="Nunito, sans-serif" font-size="20">Composite</text>
  <text x="380" y="377.6" fill="#a0a0a0" font-family="Nunito, sans-serif" font-size="14" opacity="1">레이어 합성</text>
  <defs><marker id="arrow-a4" markerWidth="10" markerHeight="7" refX="9" refY="3.5" orient="auto"><polygon points="0 0, 10 3.5, 0 7" fill="#e5e5e5"/></marker></defs>
  <path d="M250,410 L250,440" fill="none" stroke="#e5e5e5" stroke-width="2" opacity="1" marker-end="url(#arrow-a4)"/>
  <text x="100" y="474.8" fill="#06b6d4" font-family="Nunito, sans-serif" font-size="22" opacity="1">⑤</text>
  <rect x="140" y="445" width="220" height="55" rx="8.25" fill="#1a4d4d" stroke="#06b6d4" stroke-width="2" opacity="1"/>
  <text x="250" y="477.5" text-anchor="middle" fill="#e5e5e5" font-family="Nunito, sans-serif" font-size="20">Rasterize</text>
  <text x="380" y="467.6" fill="#a0a0a0" font-family="Nunito, sans-serif" font-size="14" opacity="1">GPU → 픽셀 출력</text>
</svg>