<svg xmlns="http://www.w3.org/2000/svg" width="621.6" height="510" viewBox="90 -20 621.6 510">
  <style>
    @import url('https://fonts.googleapis.com/css2?family=Nunito:wght@400;600;700&amp;display=swap');
  </style>
  <rect x="90" y="-20" width="621.6" height="510" rx="12" fill="#141414"/>
  <text x="120" y="31.6" fill="#e5e5e5" font-family="Nunito, sans-serif" font-size="24" opacity="1">Mixin 선형화 (Linearization)</text>
  <text x="140" y="59.4" fill="#a0a0a0" font-family="Nunito, sans-serif" font-size="16" opacity="1">class MyClass with A, B, C</text>
  <rect x="150" y="90" width="180" height="50" rx="7.5" fill="#555555" stroke="#888888" stroke-width="2" opacity="1"/>
  <text x="240" y="119.5" text-anchor="middle" fill="#e5e5e5" font-family="Nunito, sans-serif" font-size="18">Object</text>
  <defs><marker id="arrow-a1" markerWidth="10" markerHeight="7" refX="9" refY="3.5" orient="auto"><polygon points="0 0, 10 3.5, 0 7" fill="#555555"/></marker></defs>
  <path d="M240,140 L240,170" fill="none" stroke="#555555" stroke-width="2" opacity="1" marker-end="url(#arrow-a1)"/>
  <rect x="150" y="170" width="180" height="50" rx="7.5" fill="#1e3a5f" stroke="#4a9eed" stroke-width="2" opacity="1"/>
  <text x="240" y="199.5" text-anchor="middle" fill="#e5e5e5" font-family="Nunito, sans-serif" font-size="18">A</text>
  <defs><marker id="arrow-a2" markerWidth="10" markerHeight="7" refX="9" refY="3.5" orient="auto"><polygon points="0 0, 10 3.5, 0 7" fill="#555555"/></marker></defs>
  <path d="M240,220 L240,250" fill="none" stroke="#555555" stroke-width="2" opacity="1" marker-end="url(#arrow-a2)"/>
  <rect x="150" y="250" width="180" height="50" rx="7.5" fill="#2d1b69" stroke="#8b5cf6" stroke-width="2" opacity="1"/>
  <text x="240" y="279.5" text-anchor="middle" fill="#e5e5e5" font-family="Nunito, sans-serif" font-size="18">B</text>
  <defs><marker id="arrow-a3" markerWidth="10" markerHeight="7" refX="9" refY="3.5" orient="auto"><polygon points="0 0, 10 3.5, 0 7" fill="#555555"/></marker></defs>
  <path d="M240,300 L240,330" fill="none" stroke="#555555" stroke-width="2" opacity="1" marker-end="url(#arrow-a3)"/>
  <rect x="150" y="330" width="180" height="50" rx="7.5" fill="#5c3d1a" stroke="#f59e0b" stroke-width="2" opacity="1"/>
  <text x="240" y="359.5" text-anchor="middle" fill="#e5e5e5" font-family="Nunito, sans-serif" font-size="18">C</text>
  <defs><marker id="arrow-a4" markerWidth="10" markerHeight="7" refX="9" refY="3.5" orient="auto"><polygon points="0 0, 10 3.5, 0 7" fill="#555555"/></marker></defs>
  <path d="M240,380 L240,410" fill="none" stroke="#555555" stroke-width="2" opacity="1" marker-end="url(#arrow-a4)"/>
  <rect x="150" y="410" width="180" height="50" rx="7.5" fill="#1a4d2e" stroke="#22c55e" stroke-width="2" opacity="1"/>
  <text x="240" y="439.5" text-anchor="middle" fill="#e5e5e5" font-family="Nunito, sans-serif" font-size="18">MyClass</text>
  <text x="400" y="214.4" fill="#a0a0a0" font-family="Nunito, sans-serif" font-size="16" opacity="1">메서드 검색 순서:</text>
  <text x="400" y="236.8" fill="#a0a0a0" font-family="Nunito, sans-serif" font-size="16" opacity="1">MyClass -&gt; C -&gt; B -&gt; A -&gt; Object</text>
</svg>