<svg xmlns="http://www.w3.org/2000/svg" width="892" height="316" viewBox="18 -20 892 316">
  <style>
    @import url('https://fonts.googleapis.com/css2?family=Nunito:wght@400;600;700&amp;display=swap');
  </style>
  <rect x="18" y="-20" width="892" height="316" rx="12" fill="#141414"/>
  <text x="180" y="31.6" fill="#e5e5e5" font-family="Nunito, sans-serif" font-size="24" opacity="1">주문 상태 전환 다이어그램</text>
  <rect x="50" y="100" width="150" height="55" rx="8.25" fill="#5c3d1a" stroke="#f59e0b" stroke-width="2" opacity="1"/>
  <text x="125" y="132" text-anchor="middle" fill="#e5e5e5" font-family="Nunito, sans-serif" font-size="18">pending</text>
  <defs><marker id="arrow-a1" markerWidth="10" markerHeight="7" refX="9" refY="3.5" orient="auto"><polygon points="0 0, 10 3.5, 0 7" fill="#555555"/></marker></defs>
  <path d="M200,127 L270,127" fill="none" stroke="#555555" stroke-width="2" opacity="1" marker-end="url(#arrow-a1)"/>
  <rect x="270" y="100" width="160" height="55" rx="8.25" fill="#1e3a5f" stroke="#4a9eed" stroke-width="2" opacity="1"/>
  <text x="350" y="132" text-anchor="middle" fill="#e5e5e5" font-family="Nunito, sans-serif" font-size="18">confirmed</text>
  <defs><marker id="arrow-a2" markerWidth="10" markerHeight="7" refX="9" refY="3.5" orient="auto"><polygon points="0 0, 10 3.5, 0 7" fill="#555555"/></marker></defs>
  <path d="M430,127 L500,127" fill="none" stroke="#555555" stroke-width="2" opacity="1" marker-end="url(#arrow-a2)"/>
  <rect x="500" y="100" width="150" height="55" rx="8.25" fill="#2d1b69" stroke="#8b5cf6" stroke-width="2" opacity="1"/>
  <text x="575" y="132" text-anchor="middle" fill="#e5e5e5" font-family="Nunito, sans-serif" font-size="18">shipped</text>
  <defs><marker id="arrow-a3" markerWidth="10" markerHeight="7" refX="9" refY="3.5" orient="auto"><polygon points="0 0, 10 3.5, 0 7" fill="#555555"/></marker></defs>
  <path d="M650,127 L720,127" fill="none" stroke="#555555" stroke-width="2" opacity="1" marker-end="url(#arrow-a3)"/>
  <rect x="718" y="96" width="162" height="63" rx="9.45" fill="transparent" stroke="#22c55e" stroke-width="2" opacity="1"/>
  <rect x="723" y="101" width="152" height="53" rx="7.949999999999999" fill="#1a4d2e" stroke="#22c55e" stroke-width="2" opacity="1"/>
  <text x="799" y="132" text-anchor="middle" fill="#e5e5e5" font-family="Nunito, sans-serif" font-size="18">delivered</text>
  <defs><marker id="arrow-a4" markerWidth="10" markerHeight="7" refX="9" refY="3.5" orient="auto"><polygon points="0 0, 10 3.5, 0 7" fill="#555555"/></marker></defs>
  <path d="M125,155 L125,205" fill="none" stroke="#555555" stroke-width="2" opacity="1" marker-end="url(#arrow-a4)"/>
  <rect x="48" y="203" width="162" height="63" rx="9.45" fill="transparent" stroke="#ef4444" stroke-width="2" opacity="1"/>
  <rect x="53" y="208" width="152" height="53" rx="7.949999999999999" fill="#5c1a1a" stroke="#ef4444" stroke-width="2" opacity="1"/>
  <text x="129" y="239" text-anchor="middle" fill="#e5e5e5" font-family="Nunito, sans-serif" font-size="18">cancelled</text>
</svg>