<svg xmlns="http://www.w3.org/2000/svg" width="690" height="480" viewBox="20 -20 690 480">
  <style>
    @import url('https://fonts.googleapis.com/css2?family=Nunito:wght@400;600;700&amp;display=swap');
  </style>
  <rect x="20" y="-20" width="690" height="480" rx="12" fill="#141414"/>
  <text x="150" y="35.2" fill="#e5e5e5" font-family="Nunito, sans-serif" font-size="28" opacity="1">상품 카드 위젯 분해</text>
  <text x="60" y="74.4" fill="#a0a0a0" font-family="Nunito, sans-serif" font-size="16" opacity="1">카드 미리보기</text>
  <rect x="50" y="90" width="200" height="340" rx="30" fill="transparent" stroke="#555555" stroke-width="2" opacity="1"/>
  <rect x="60" y="100" width="180" height="120" rx="18" fill="#1a4d4d" stroke="#06b6d4" stroke-width="1" opacity="1"/>
  <text x="150" y="164" text-anchor="middle" fill="#e5e5e5" font-family="Nunito, sans-serif" font-size="16">Image</text>
  <rect x="60" y="230" width="180" height="40" rx="6" fill="#1e3a5f" stroke="#4a9eed" stroke-width="1" opacity="1"/>
  <text x="150" y="254" text-anchor="middle" fill="#e5e5e5" font-family="Nunito, sans-serif" font-size="16">상품명</text>
  <rect x="60" y="280" width="180" height="40" rx="6" fill="#1a4d2e" stroke="#22c55e" stroke-width="1" opacity="1"/>
  <text x="150" y="304" text-anchor="middle" fill="#e5e5e5" font-family="Nunito, sans-serif" font-size="16">가격</text>
  <rect x="60" y="330" width="180" height="40" rx="6" fill="#5c3d1a" stroke="#f59e0b" stroke-width="1" opacity="1"/>
  <text x="150" y="353.5" text-anchor="middle" fill="#e5e5e5" font-family="Nunito, sans-serif" font-size="14">Row(Icon+Text)</text>
  <text x="380" y="74.4" fill="#a0a0a0" font-family="Nunito, sans-serif" font-size="16" opacity="1">Widget Tree</text>
  <rect x="420" y="95" width="160" height="40" rx="6" fill="#555555" stroke="#a0a0a0" stroke-width="2" opacity="1"/>
  <text x="500" y="118.75" text-anchor="middle" fill="#e5e5e5" font-family="Nunito, sans-serif" font-size="15">Container</text>
  <path d="M500,135 L500,160" fill="none" stroke="#555555" stroke-width="2" opacity="1"/>
  <rect x="420" y="160" width="160" height="40" rx="6" fill="#555555" stroke="#a0a0a0" stroke-width="2" opacity="1"/>
  <text x="500" y="183.75" text-anchor="middle" fill="#e5e5e5" font-family="Nunito, sans-serif" font-size="15">Column</text>
  <path d="M460,200 L360,225" fill="none" stroke="#555555" stroke-width="1" opacity="1"/>
  <rect x="310" y="225" width="110" height="35" rx="5.25" fill="#1a4d4d" stroke="#06b6d4" stroke-width="1" opacity="1"/>
  <text x="365" y="246" text-anchor="middle" fill="#e5e5e5" font-family="Nunito, sans-serif" font-size="14">Image</text>
  <path d="M500,200 L500,225" fill="none" stroke="#555555" stroke-width="1" opacity="1"/>
  <rect x="450" y="225" width="110" height="35" rx="5.25" fill="#555555" stroke="#a0a0a0" stroke-width="1" opacity="1"/>
  <text x="505" y="246" text-anchor="middle" fill="#e5e5e5" font-family="Nunito, sans-serif" font-size="14">Padding</text>
  <path d="M505,260 L505,280" fill="none" stroke="#555555" stroke-width="1" opacity="1"/>
  <rect x="450" y="280" width="110" height="35" rx="5.25" fill="#555555" stroke="#a0a0a0" stroke-width="1" opacity="1"/>
  <text x="505" y="301" text-anchor="middle" fill="#e5e5e5" font-family="Nunito, sans-serif" font-size="14">Column</text>
  <path d="M475,315 L395,335" fill="none" stroke="#555555" stroke-width="1" opacity="1"/>
  <rect x="350" y="335" width="90" height="30" rx="4.5" fill="#1e3a5f" stroke="#4a9eed" stroke-width="1" opacity="1"/>
  <text x="395" y="353" text-anchor="middle" fill="#e5e5e5" font-family="Nunito, sans-serif" font-size="12">Text(명)</text>
  <path d="M505,315 L505,335" fill="none" stroke="#555555" stroke-width="1" opacity="1"/>
  <rect x="460" y="335" width="90" height="30" rx="4.5" fill="#1a4d2e" stroke="#22c55e" stroke-width="1" opacity="1"/>
  <text x="505" y="353" text-anchor="middle" fill="#e5e5e5" font-family="Nunito, sans-serif" font-size="12">Text(값)</text>
  <path d="M530,315 L610,335" fill="none" stroke="#555555" stroke-width="1" opacity="1"/>
  <rect x="570" y="335" width="90" height="30" rx="4.5" fill="#5c3d1a" stroke="#f59e0b" stroke-width="1" opacity="1"/>
  <text x="615" y="353" text-anchor="middle" fill="#e5e5e5" font-family="Nunito, sans-serif" font-size="12">Row</text>
  <path d="M595,365 L570,385" fill="none" stroke="#555555" stroke-width="1" opacity="1"/>
  <rect x="540" y="385" width="60" height="28" rx="4.2" fill="#5c3d1a" stroke="#f59e0b" stroke-width="1" opacity="1"/>
  <text x="570" y="401.75" text-anchor="middle" fill="#e5e5e5" font-family="Nunito, sans-serif" font-size="11">Icon</text>
  <path d="M625,365 L650,385" fill="none" stroke="#555555" stroke-width="1" opacity="1"/>
  <rect x="620" y="385" width="60" height="28" rx="4.2" fill="#5c3d1a" stroke="#f59e0b" stroke-width="1" opacity="1"/>
  <text x="650" y="401.75" text-anchor="middle" fill="#e5e5e5" font-family="Nunito, sans-serif" font-size="11">Text</text>
</svg>