<svg xmlns="http://www.w3.org/2000/svg" width="600" height="908" viewBox="120 -20 370 560">
  <style>
    @import url('https://fonts.googleapis.com/css2?family=Nunito:wght@400;600;700&amp;display=swap');
  </style>
  <rect x="120" y="-20" width="370" height="560" rx="12" fill="#141414"/>
  <text x="150" y="31.6" fill="#e5e5e5" font-family="Nunito, sans-serif" font-size="24" opacity="1">데이터 파이프라인 변환 흐름</text>
  <rect x="200" y="60" width="260" height="50" rx="7.5" fill="#1e3a5f" stroke="#4a9eed" stroke-width="2" opacity="1"/>
  <text x="330" y="89" text-anchor="middle" fill="#e5e5e5" font-family="Nunito, sans-serif" font-size="16">원본 데이터 (5명)</text>
  <defs><marker id="arrow-a1" markerWidth="10" markerHeight="7" refX="9" refY="3.5" orient="auto"><polygon points="0 0, 10 3.5, 0 7" fill="#555555"/></marker></defs>
  <path d="M330,110 L330,140" fill="none" stroke="#555555" stroke-width="2" opacity="1" marker-end="url(#arrow-a1)"/>
  <rect x="200" y="140" width="260" height="50" rx="7.5" fill="#1a4d2e" stroke="#22c55e" stroke-width="2" opacity="1"/>
  <text x="330" y="169" text-anchor="middle" fill="#e5e5e5" font-family="Nunito, sans-serif" font-size="16">where(부서) → 4명</text>
  <defs><marker id="arrow-a2" markerWidth="10" markerHeight="7" refX="9" refY="3.5" orient="auto"><polygon points="0 0, 10 3.5, 0 7" fill="#555555"/></marker></defs>
  <path d="M330,190 L330,220" fill="none" stroke="#555555" stroke-width="2" opacity="1" marker-end="url(#arrow-a2)"/>
  <rect x="200" y="220" width="260" height="50" rx="7.5" fill="#1a4d2e" stroke="#22c55e" stroke-width="2" opacity="1"/>
  <text x="330" y="249" text-anchor="middle" fill="#e5e5e5" font-family="Nunito, sans-serif" font-size="16">where(경력) → 3명</text>
  <defs><marker id="arrow-a3" markerWidth="10" markerHeight="7" refX="9" refY="3.5" orient="auto"><polygon points="0 0, 10 3.5, 0 7" fill="#555555"/></marker></defs>
  <path d="M330,270 L330,300" fill="none" stroke="#555555" stroke-width="2" opacity="1" marker-end="url(#arrow-a3)"/>
  <rect x="200" y="300" width="260" height="50" rx="7.5" fill="#5c3d1a" stroke="#f59e0b" stroke-width="2" opacity="1"/>
  <text x="330" y="329" text-anchor="middle" fill="#e5e5e5" font-family="Nunito, sans-serif" font-size="16">sort → 3명</text>
  <defs><marker id="arrow-a4" markerWidth="10" markerHeight="7" refX="9" refY="3.5" orient="auto"><polygon points="0 0, 10 3.5, 0 7" fill="#555555"/></marker></defs>
  <path d="M330,350 L330,380" fill="none" stroke="#555555" stroke-width="2" opacity="1" marker-end="url(#arrow-a4)"/>
  <rect x="200" y="380" width="260" height="50" rx="7.5" fill="#5c3d1a" stroke="#f59e0b" stroke-width="2" opacity="1"/>
  <text x="330" y="409" text-anchor="middle" fill="#e5e5e5" font-family="Nunito, sans-serif" font-size="16">take(2) → 2명</text>
  <defs><marker id="arrow-a5" markerWidth="10" markerHeight="7" refX="9" refY="3.5" orient="auto"><polygon points="0 0, 10 3.5, 0 7" fill="#555555"/></marker></defs>
  <path d="M330,430 L330,460" fill="none" stroke="#555555" stroke-width="2" opacity="1" marker-end="url(#arrow-a5)"/>
  <rect x="200" y="460" width="260" height="50" rx="7.5" fill="#2d1b69" stroke="#8b5cf6" stroke-width="2" opacity="1"/>
  <text x="330" y="489" text-anchor="middle" fill="#e5e5e5" font-family="Nunito, sans-serif" font-size="16">map(포맷) → 2건</text>
</svg>