<svg xmlns="http://www.w3.org/2000/svg" width="600" height="405" viewBox="0 -20 600 405">
  <style>
    @import url('https://fonts.googleapis.com/css2?family=Nunito:wght@400;600;700&amp;display=swap');
  </style>
  <rect x="0" y="-20" width="600" height="405" rx="12" fill="#141414"/>
  <text x="200" y="35.2" fill="#e5e5e5" font-family="Nunito, sans-serif" font-size="28" opacity="1">Navigator 스택 연산</text>
  <text x="30" y="98" fill="#22c55e" font-family="Nunito, sans-serif" font-size="20" opacity="1">push</text>
  <rect x="180" y="75" width="50" height="40" rx="6" fill="#1e3a5f" stroke="#4a9eed" stroke-width="2" opacity="1"/>
  <text x="205" y="99.5" text-anchor="middle" fill="#e5e5e5" font-family="Nunito, sans-serif" font-size="18">A</text>
  <defs><marker id="arrow-ar1" markerWidth="10" markerHeight="7" refX="9" refY="3.5" orient="auto"><polygon points="0 0, 10 3.5, 0 7" fill="#555555"/></marker></defs>
  <path d="M260,95 L340,95" fill="none" stroke="#555555" stroke-width="2" opacity="1" marker-end="url(#arrow-ar1)"/>
  <rect x="370" y="75" width="50" height="40" rx="6" fill="#1e3a5f" stroke="#4a9eed" stroke-width="2" opacity="1"/>
  <text x="395" y="99.5" text-anchor="middle" fill="#e5e5e5" font-family="Nunito, sans-serif" font-size="18">A</text>
  <rect x="430" y="75" width="50" height="40" rx="6" fill="#1a4d2e" stroke="#22c55e" stroke-width="2" opacity="1"/>
  <text x="455" y="99.5" text-anchor="middle" fill="#e5e5e5" font-family="Nunito, sans-serif" font-size="18">B</text>
  <text x="30" y="178" fill="#ef4444" font-family="Nunito, sans-serif" font-size="20" opacity="1">pop</text>
  <rect x="180" y="155" width="50" height="40" rx="6" fill="#1e3a5f" stroke="#4a9eed" stroke-width="2" opacity="1"/>
  <text x="205" y="179.5" text-anchor="middle" fill="#e5e5e5" font-family="Nunito, sans-serif" font-size="18">A</text>
  <rect x="240" y="155" width="50" height="40" rx="6" fill="#1a4d2e" stroke="#22c55e" stroke-width="2" opacity="1"/>
  <text x="265" y="179.5" text-anchor="middle" fill="#e5e5e5" font-family="Nunito, sans-serif" font-size="18">B</text>
  <defs><marker id="arrow-ar2" markerWidth="10" markerHeight="7" refX="9" refY="3.5" orient="auto"><polygon points="0 0, 10 3.5, 0 7" fill="#555555"/></marker></defs>
  <path d="M320,175 L400,175" fill="none" stroke="#555555" stroke-width="2" opacity="1" marker-end="url(#arrow-ar2)"/>
  <rect x="430" y="155" width="50" height="40" rx="6" fill="#1e3a5f" stroke="#4a9eed" stroke-width="2" opacity="1"/>
  <text x="455" y="179.5" text-anchor="middle" fill="#e5e5e5" font-family="Nunito, sans-serif" font-size="18">A</text>
  <text x="30" y="254.4" fill="#f59e0b" font-family="Nunito, sans-serif" font-size="16" opacity="1">pushReplacement</text>
  <rect x="200" y="235" width="50" height="40" rx="6" fill="#1e3a5f" stroke="#4a9eed" stroke-width="2" opacity="1"/>
  <text x="225" y="259.5" text-anchor="middle" fill="#e5e5e5" font-family="Nunito, sans-serif" font-size="18">A</text>
  <rect x="260" y="235" width="50" height="40" rx="6" fill="#1a4d2e" stroke="#22c55e" stroke-width="2" opacity="1"/>
  <text x="285" y="259.5" text-anchor="middle" fill="#e5e5e5" font-family="Nunito, sans-serif" font-size="18">B</text>
  <defs><marker id="arrow-ar3" markerWidth="10" markerHeight="7" refX="9" refY="3.5" orient="auto"><polygon points="0 0, 10 3.5, 0 7" fill="#555555"/></marker></defs>
  <path d="M340,255 L420,255" fill="none" stroke="#555555" stroke-width="2" opacity="1" marker-end="url(#arrow-ar3)"/>
  <rect x="450" y="235" width="50" height="40" rx="6" fill="#1e3a5f" stroke="#4a9eed" stroke-width="2" opacity="1"/>
  <text x="475" y="259.5" text-anchor="middle" fill="#e5e5e5" font-family="Nunito, sans-serif" font-size="18">A</text>
  <rect x="510" y="235" width="50" height="40" rx="6" fill="#2d1b69" stroke="#8b5cf6" stroke-width="2" opacity="1"/>
  <text x="535" y="259.5" text-anchor="middle" fill="#e5e5e5" font-family="Nunito, sans-serif" font-size="18">C</text>
  <text x="30" y="332.6" fill="#06b6d4" font-family="Nunito, sans-serif" font-size="14" opacity="1">pushAndRemoveUntil</text>
  <rect x="210" y="315" width="50" height="40" rx="6" fill="#1e3a5f" stroke="#4a9eed" stroke-width="2" opacity="1"/>
  <text x="235" y="339.5" text-anchor="middle" fill="#e5e5e5" font-family="Nunito, sans-serif" font-size="18">A</text>
  <rect x="270" y="315" width="50" height="40" rx="6" fill="#1a4d2e" stroke="#22c55e" stroke-width="2" opacity="1"/>
  <text x="295" y="339.5" text-anchor="middle" fill="#e5e5e5" font-family="Nunito, sans-serif" font-size="18">B</text>
  <rect x="330" y="315" width="50" height="40" rx="6" fill="#2d1b69" stroke="#8b5cf6" stroke-width="2" opacity="1"/>
  <text x="355" y="339.5" text-anchor="middle" fill="#e5e5e5" font-family="Nunito, sans-serif" font-size="18">C</text>
  <defs><marker id="arrow-ar4" markerWidth="10" markerHeight="7" refX="9" refY="3.5" orient="auto"><polygon points="0 0, 10 3.5, 0 7" fill="#555555"/></marker></defs>
  <path d="M410,335 L490,335" fill="none" stroke="#555555" stroke-width="2" opacity="1" marker-end="url(#arrow-ar4)"/>
  <rect x="520" y="315" width="50" height="40" rx="6" fill="#5c3d1a" stroke="#f59e0b" stroke-width="2" opacity="1"/>
  <text x="545" y="339.5" text-anchor="middle" fill="#e5e5e5" font-family="Nunito, sans-serif" font-size="18">D</text>
</svg>