<svg xmlns="http://www.w3.org/2000/svg" width="600" height="631" viewBox="120 -10 541.6 570">
  <style>
    @import url('https://fonts.googleapis.com/css2?family=Nunito:wght@400;600;700&amp;display=swap');
  </style>
  <rect x="120" y="-10" width="541.6" height="570" rx="12" fill="#141414"/>
  <text x="150" y="45.2" fill="#e5e5e5" font-family="Nunito, sans-serif" font-size="28" opacity="1">오프라인 우선 데이터 흐름</text>
  <rect x="250" y="90" width="300" height="50" rx="7.5" fill="#1e3a5f" stroke="#4a9eed" stroke-width="2" opacity="1"/>
  <text x="400" y="119.5" text-anchor="middle" fill="#e5e5e5" font-family="Nunito, sans-serif" font-size="18">앱 시작</text>
  <defs><marker id="arrow-a1" markerWidth="10" markerHeight="7" refX="9" refY="3.5" orient="auto"><polygon points="0 0, 10 3.5, 0 7" fill="#a0a0a0"/></marker></defs>
  <path d="M400,140 L400,170" fill="none" stroke="#a0a0a0" stroke-width="2" opacity="1" marker-end="url(#arrow-a1)"/>
  <rect x="250" y="170" width="300" height="50" rx="7.5" fill="#1a4d2e" stroke="#22c55e" stroke-width="2" opacity="1"/>
  <text x="400" y="199.5" text-anchor="middle" fill="#e5e5e5" font-family="Nunito, sans-serif" font-size="18">로컬 캐시 로드</text>
  <text x="570" y="192.6" fill="#22c55e" font-family="Nunito, sans-serif" font-size="14" opacity="1">화면 즉시 표시</text>
  <defs><marker id="arrow-a2" markerWidth="10" markerHeight="7" refX="9" refY="3.5" orient="auto"><polygon points="0 0, 10 3.5, 0 7" fill="#a0a0a0"/></marker></defs>
  <path d="M400,220 L400,250" fill="none" stroke="#a0a0a0" stroke-width="2" opacity="1" marker-end="url(#arrow-a2)"/>
  <rect x="250" y="250" width="300" height="50" rx="7.5" fill="#2d1b69" stroke="#8b5cf6" stroke-width="2" opacity="1"/>
  <text x="400" y="279.5" text-anchor="middle" fill="#e5e5e5" font-family="Nunito, sans-serif" font-size="18">백그라운드 서버 요청</text>
  <defs><marker id="arrow-a3" markerWidth="10" markerHeight="7" refX="9" refY="3.5" orient="auto"><polygon points="0 0, 10 3.5, 0 7" fill="#a0a0a0"/></marker></defs>
  <path d="M400,300 L400,330" fill="none" stroke="#a0a0a0" stroke-width="2" opacity="1" marker-end="url(#arrow-a3)"/>
  <rect x="250" y="330" width="300" height="50" rx="7.5" fill="#5c3d1a" stroke="#f59e0b" stroke-width="2" opacity="1"/>
  <text x="400" y="359.5" text-anchor="middle" fill="#e5e5e5" font-family="Nunito, sans-serif" font-size="18">서버 응답 수신</text>
  <defs><marker id="arrow-a4" markerWidth="10" markerHeight="7" refX="9" refY="3.5" orient="auto"><polygon points="0 0, 10 3.5, 0 7" fill="#a0a0a0"/></marker></defs>
  <path d="M400,380 L400,410" fill="none" stroke="#a0a0a0" stroke-width="2" opacity="1" marker-end="url(#arrow-a4)"/>
  <rect x="250" y="410" width="300" height="50" rx="7.5" fill="#1a4d4d" stroke="#06b6d4" stroke-width="2" opacity="1"/>
  <text x="400" y="439" text-anchor="middle" fill="#e5e5e5" font-family="Nunito, sans-serif" font-size="16">캐시 업데이트 + 화면 갱신</text>
  <rect x="180" y="490" width="440" height="40" rx="6" fill="#555555" stroke="#a0a0a0" stroke-width="1" opacity="1"/>
  <text x="400" y="513.5" text-anchor="middle" fill="#e5e5e5" font-family="Nunito, sans-serif" font-size="14">네트워크 없어도 캐시 데이터로 기능</text>
</svg>