<svg xmlns="http://www.w3.org/2000/svg" width="830" height="520" viewBox="0 -20 830 520">
  <style>
    @import url('https://fonts.googleapis.com/css2?family=Nunito:wght@400;600;700&amp;display=swap');
  </style>
  <rect x="0" y="-20" width="830" height="520" rx="12" fill="#141414"/>
  <text x="220" y="35.2" fill="#e5e5e5" font-family="Nunito, sans-serif" font-size="28" opacity="1">State Lifting 패턴</text>
  <rect x="30" y="70" width="340" height="400" rx="51" fill="#5c1a1a" stroke="#ef4444" stroke-width="2" opacity="1"/>
  <text x="70" y="103" fill="#e5e5e5" font-family="Nunito, sans-serif" font-size="20" opacity="1">문제 (Lifting 전)</text>
  <rect x="70" y="140" width="250" height="60" rx="9" fill="#1e3a5f" stroke="#4a9eed" stroke-width="2" opacity="1"/>
  <text x="195" y="164.4" text-anchor="middle" fill="#e5e5e5" font-family="Nunito, sans-serif" font-size="14">ProductCard</text>
  <text x="195" y="182.6" text-anchor="middle" fill="#e5e5e5" font-family="Nunito, sans-serif" font-size="14">자체 수량 관리</text>
  <rect x="70" y="230" width="250" height="60" rx="9" fill="#1a4d2e" stroke="#22c55e" stroke-width="2" opacity="1"/>
  <text x="195" y="254.4" text-anchor="middle" fill="#e5e5e5" font-family="Nunito, sans-serif" font-size="14">CartIcon</text>
  <text x="195" y="272.6" text-anchor="middle" fill="#e5e5e5" font-family="Nunito, sans-serif" font-size="14">독립 수량 관리</text>
  <text x="80" y="336.2" fill="#ef4444" font-family="Nunito, sans-serif" font-size="18" opacity="1">수량 불일치 가능</text>
  <rect x="420" y="70" width="380" height="400" rx="57" fill="#1a4d2e" stroke="#22c55e" stroke-width="2" opacity="1"/>
  <text x="470" y="103" fill="#e5e5e5" font-family="Nunito, sans-serif" font-size="20" opacity="1">해결 (Lifting 후)</text>
  <rect x="470" y="130" width="280" height="60" rx="9" fill="#5c3d1a" stroke="#f59e0b" stroke-width="2" opacity="1"/>
  <text x="610" y="154.4" text-anchor="middle" fill="#e5e5e5" font-family="Nunito, sans-serif" font-size="14">ShopPage</text>
  <text x="610" y="172.6" text-anchor="middle" fill="#e5e5e5" font-family="Nunito, sans-serif" font-size="14">cartCount 관리</text>
  <defs><marker id="arrow-branch1" markerWidth="10" markerHeight="7" refX="9" refY="3.5" orient="auto"><polygon points="0 0, 10 3.5, 0 7" fill="#555555"/></marker></defs>
  <path d="M560,190 L500,240" fill="none" stroke="#555555" stroke-width="2" opacity="1" marker-end="url(#arrow-branch1)"/>
  <defs><marker id="arrow-branch2" markerWidth="10" markerHeight="7" refX="9" refY="3.5" orient="auto"><polygon points="0 0, 10 3.5, 0 7" fill="#555555"/></marker></defs>
  <path d="M660,190 L690,240" fill="none" stroke="#555555" stroke-width="2" opacity="1" marker-end="url(#arrow-branch2)"/>
  <rect x="450" y="240" width="180" height="60" rx="9" fill="#1e3a5f" stroke="#4a9eed" stroke-width="2" opacity="1"/>
  <text x="540" y="264.40000000000003" text-anchor="middle" fill="#e5e5e5" font-family="Nunito, sans-serif" font-size="14">ProductCard</text>
  <text x="540" y="282.6" text-anchor="middle" fill="#e5e5e5" font-family="Nunito, sans-serif" font-size="14">콜백 수신</text>
  <rect x="650" y="240" width="130" height="60" rx="9" fill="#1a4d2e" stroke="#22c55e" stroke-width="2" opacity="1"/>
  <text x="715" y="264.40000000000003" text-anchor="middle" fill="#e5e5e5" font-family="Nunito, sans-serif" font-size="14">CartIcon</text>
  <text x="715" y="282.6" text-anchor="middle" fill="#e5e5e5" font-family="Nunito, sans-serif" font-size="14">값 수신</text>
  <text x="510" y="356.2" fill="#22c55e" font-family="Nunito, sans-serif" font-size="18" opacity="1">항상 일치</text>
  <defs><marker id="arrow-vs_arrow" markerWidth="10" markerHeight="7" refX="9" refY="3.5" orient="auto"><polygon points="0 0, 10 3.5, 0 7" fill="#a0a0a0"/></marker></defs>
  <path d="M370,270 L420,270" fill="none" stroke="#a0a0a0" stroke-width="3" opacity="1" marker-end="url(#arrow-vs_arrow)"/>
</svg>