<svg xmlns="http://www.w3.org/2000/svg" width="755" height="455" viewBox="10 -20 755 455">
  <style>
    @import url('https://fonts.googleapis.com/css2?family=Nunito:wght@400;600;700&amp;display=swap');
  </style>
  <rect x="10" y="-20" width="755" height="455" rx="12" fill="#141414"/>
  <text x="185" y="31.6" fill="#e5e5e5" font-family="Nunito, sans-serif" font-size="24" opacity="1">반복문 선택 기준 요약</text>
  <rect x="40" y="60" width="140" height="45" rx="0" fill="#2d1b69" stroke="#8b5cf6" stroke-width="1.5" opacity="1"/>
  <text x="110" y="86.5" text-anchor="middle" fill="#e5e5e5" font-family="Nunito, sans-serif" font-size="16">반복문</text>
  <rect x="185" y="60" width="550" height="45" rx="0" fill="#2d1b69" stroke="#8b5cf6" stroke-width="1.5" opacity="1"/>
  <text x="460" y="86.5" text-anchor="middle" fill="#e5e5e5" font-family="Nunito, sans-serif" font-size="16">적합한 상황</text>
  <rect x="40" y="110" width="140" height="55" rx="8.25" fill="#1e3a5f" stroke="#4a9eed" stroke-width="1.5" opacity="1"/>
  <text x="110" y="142" text-anchor="middle" fill="#e5e5e5" font-family="Nunito, sans-serif" font-size="18">for</text>
  <rect x="185" y="110" width="550" height="55" rx="8.25" fill="#1e3a5f" stroke="#4a9eed" stroke-width="1" opacity="0.4"/>
  <text x="200" y="139.4" fill="#e5e5e5" font-family="Nunito, sans-serif" font-size="16" opacity="1">반복 횟수 명확, 인덱스 필요, 역순/간격 순회</text>
  <rect x="40" y="170" width="140" height="55" rx="8.25" fill="#1a4d2e" stroke="#22c55e" stroke-width="1.5" opacity="1"/>
  <text x="110" y="202" text-anchor="middle" fill="#e5e5e5" font-family="Nunito, sans-serif" font-size="18">while</text>
  <rect x="185" y="170" width="550" height="55" rx="8.25" fill="#1a4d2e" stroke="#22c55e" stroke-width="1" opacity="0.4"/>
  <text x="200" y="199.4" fill="#e5e5e5" font-family="Nunito, sans-serif" font-size="16" opacity="1">반복 횟수 불명확, 조건 충족 시까지 반복</text>
  <rect x="40" y="230" width="140" height="55" rx="8.25" fill="#5c3d1a" stroke="#f59e0b" stroke-width="1.5" opacity="1"/>
  <text x="110" y="262" text-anchor="middle" fill="#e5e5e5" font-family="Nunito, sans-serif" font-size="18">do-while</text>
  <rect x="185" y="230" width="550" height="55" rx="8.25" fill="#5c3d1a" stroke="#f59e0b" stroke-width="1" opacity="0.4"/>
  <text x="200" y="259.4" fill="#e5e5e5" font-family="Nunito, sans-serif" font-size="16" opacity="1">최소 1회 실행 보장 (입력 유효성 검사 등)</text>
  <rect x="40" y="290" width="140" height="55" rx="8.25" fill="#2d1b69" stroke="#8b5cf6" stroke-width="1.5" opacity="1"/>
  <text x="110" y="322" text-anchor="middle" fill="#e5e5e5" font-family="Nunito, sans-serif" font-size="18">for-in</text>
  <rect x="185" y="290" width="550" height="55" rx="8.25" fill="#2d1b69" stroke="#8b5cf6" stroke-width="1" opacity="0.4"/>
  <text x="200" y="319.4" fill="#e5e5e5" font-family="Nunito, sans-serif" font-size="16" opacity="1">컬렉션 전체 순회, break/continue 필요 시</text>
  <rect x="40" y="350" width="140" height="55" rx="8.25" fill="#1a4d4d" stroke="#06b6d4" stroke-width="1.5" opacity="1"/>
  <text x="110" y="382" text-anchor="middle" fill="#e5e5e5" font-family="Nunito, sans-serif" font-size="18">forEach</text>
  <rect x="185" y="350" width="550" height="55" rx="8.25" fill="#1a4d4d" stroke="#06b6d4" stroke-width="1" opacity="0.4"/>
  <text x="200" y="379.4" fill="#e5e5e5" font-family="Nunito, sans-serif" font-size="16" opacity="1">함수형 체이닝 마지막 단계, 부수 효과 적용</text>
</svg>