<svg xmlns="http://www.w3.org/2000/svg" width="840" height="358" viewBox="-20 -20 840 358.4">
  <style>
    @import url('https://fonts.googleapis.com/css2?family=Nunito:wght@400;600;700&amp;display=swap');
  </style>
  <rect x="-20" y="-20" width="840" height="358.4" rx="12" fill="#141414"/>
  <text x="200" y="35.2" fill="#e5e5e5" font-family="Nunito, sans-serif" font-size="28" opacity="1">Clean Architecture 구성 요소</text>
  <rect x="280" y="70" width="220" height="50" rx="7.5" fill="#1e3a5f" stroke="#4a9eed" stroke-width="2" opacity="1"/>
  <text x="390" y="99.5" text-anchor="middle" fill="#e5e5e5" font-family="Nunito, sans-serif" font-size="18">Clean Architecture</text>
  <defs><marker id="arrow-a1" markerWidth="10" markerHeight="7" refX="9" refY="3.5" orient="auto"><polygon points="0 0, 10 3.5, 0 7" fill="#22c55e"/></marker></defs>
  <path d="M340,120 L100,160" fill="none" stroke="#22c55e" stroke-width="2" opacity="1" marker-end="url(#arrow-a1)"/>
  <defs><marker id="arrow-a2" markerWidth="10" markerHeight="7" refX="9" refY="3.5" orient="auto"><polygon points="0 0, 10 3.5, 0 7" fill="#f59e0b"/></marker></defs>
  <path d="M360,120 L300,160" fill="none" stroke="#f59e0b" stroke-width="2" opacity="1" marker-end="url(#arrow-a2)"/>
  <defs><marker id="arrow-a3" markerWidth="10" markerHeight="7" refX="9" refY="3.5" orient="auto"><polygon points="0 0, 10 3.5, 0 7" fill="#8b5cf6"/></marker></defs>
  <path d="M420,120 L480,160" fill="none" stroke="#8b5cf6" stroke-width="2" opacity="1" marker-end="url(#arrow-a3)"/>
  <defs><marker id="arrow-a4" markerWidth="10" markerHeight="7" refX="9" refY="3.5" orient="auto"><polygon points="0 0, 10 3.5, 0 7" fill="#06b6d4"/></marker></defs>
  <path d="M450,120 L680,160" fill="none" stroke="#06b6d4" stroke-width="2" opacity="1" marker-end="url(#arrow-a4)"/>
  <rect x="10" y="170" width="180" height="50" rx="7.5" fill="#1a4d2e" stroke="#22c55e" stroke-width="2" opacity="1"/>
  <text x="100" y="199.5" text-anchor="middle" fill="#e5e5e5" font-family="Nunito, sans-serif" font-size="18">Domain Layer</text>
  <text x="10" y="242.6" fill="#22c55e" font-family="Nunito, sans-serif" font-size="14" opacity="1">· Entity</text>
  <text x="10" y="262.2" fill="#22c55e" font-family="Nunito, sans-serif" font-size="14" opacity="1">· Repository(인터페이스)</text>
  <text x="10" y="281.8" fill="#22c55e" font-family="Nunito, sans-serif" font-size="14" opacity="1">· UseCase</text>
  <rect x="210" y="170" width="180" height="50" rx="7.5" fill="#5c3d1a" stroke="#f59e0b" stroke-width="2" opacity="1"/>
  <text x="300" y="199.5" text-anchor="middle" fill="#e5e5e5" font-family="Nunito, sans-serif" font-size="18">Data Layer</text>
  <text x="210" y="242.6" fill="#f59e0b" font-family="Nunito, sans-serif" font-size="14" opacity="1">· Repository Impl</text>
  <text x="210" y="262.2" fill="#f59e0b" font-family="Nunito, sans-serif" font-size="14" opacity="1">· Remote DataSource</text>
  <text x="210" y="281.8" fill="#f59e0b" font-family="Nunito, sans-serif" font-size="14" opacity="1">· Local DataSource</text>
  <text x="210" y="301.4" fill="#f59e0b" font-family="Nunito, sans-serif" font-size="14" opacity="1">· DTO</text>
  <rect x="410" y="170" width="180" height="50" rx="7.5" fill="#2d1b69" stroke="#8b5cf6" stroke-width="2" opacity="1"/>
  <text x="500" y="199" text-anchor="middle" fill="#e5e5e5" font-family="Nunito, sans-serif" font-size="16">Application Layer</text>
  <text x="410" y="242.6" fill="#8b5cf6" font-family="Nunito, sans-serif" font-size="14" opacity="1">· UseCase</text>
  <text x="410" y="262.2" fill="#8b5cf6" font-family="Nunito, sans-serif" font-size="14" opacity="1">  (Repository 조합)</text>
  <rect x="610" y="170" width="180" height="50" rx="7.5" fill="#1a4d4d" stroke="#06b6d4" stroke-width="2" opacity="1"/>
  <text x="700" y="199" text-anchor="middle" fill="#e5e5e5" font-family="Nunito, sans-serif" font-size="16">Presentation Layer</text>
  <text x="610" y="242.6" fill="#06b6d4" font-family="Nunito, sans-serif" font-size="14" opacity="1">· Screen/Widget</text>
  <text x="610" y="262.2" fill="#06b6d4" font-family="Nunito, sans-serif" font-size="14" opacity="1">· ViewModel</text>
</svg>