<svg xmlns="http://www.w3.org/2000/svg" width="690" height="355" viewBox="20 -20 690 355">
  <style>
    @import url('https://fonts.googleapis.com/css2?family=Nunito:wght@400;600;700&amp;display=swap');
  </style>
  <rect x="20" y="-20" width="690" height="355" rx="12" fill="#141414"/>
  <text x="50" y="31.6" fill="#e5e5e5" font-family="Nunito, sans-serif" font-size="24" opacity="1">의존성 방향 (화살표 = 의존)</text>
  <rect x="50" y="80" width="170" height="50" rx="7.5" fill="#1e3a5f" stroke="#4a9eed" stroke-width="2" opacity="1"/>
  <text x="135" y="109.5" text-anchor="middle" fill="#e5e5e5" font-family="Nunito, sans-serif" font-size="18">Presentation</text>
  <rect x="280" y="80" width="170" height="50" rx="7.5" fill="#2d1b69" stroke="#8b5cf6" stroke-width="2" opacity="1"/>
  <text x="365" y="109.5" text-anchor="middle" fill="#e5e5e5" font-family="Nunito, sans-serif" font-size="18">Application</text>
  <rect x="510" y="80" width="170" height="50" rx="7.5" fill="#1a4d2e" stroke="#22c55e" stroke-width="2" opacity="1"/>
  <text x="595" y="109.5" text-anchor="middle" fill="#e5e5e5" font-family="Nunito, sans-serif" font-size="18">Domain</text>
  <rect x="50" y="180" width="170" height="50" rx="7.5" fill="#5c3d1a" stroke="#f59e0b" stroke-width="2" opacity="1"/>
  <text x="135" y="209.5" text-anchor="middle" fill="#e5e5e5" font-family="Nunito, sans-serif" font-size="18">Data</text>
  <defs><marker id="arrow-el172" markerWidth="10" markerHeight="7" refX="9" refY="3.5" orient="auto"><polygon points="0 0, 10 3.5, 0 7" fill="#4a9eed"/></marker></defs>
  <path d="M220,105 L280,105" fill="none" stroke="#4a9eed" stroke-width="2" opacity="1" marker-end="url(#arrow-el172)"/>
  <defs><marker id="arrow-el173" markerWidth="10" markerHeight="7" refX="9" refY="3.5" orient="auto"><polygon points="0 0, 10 3.5, 0 7" fill="#8b5cf6"/></marker></defs>
  <path d="M450,105 L510,105" fill="none" stroke="#8b5cf6" stroke-width="2" opacity="1" marker-end="url(#arrow-el173)"/>
  <defs><marker id="arrow-el174" markerWidth="10" markerHeight="7" refX="9" refY="3.5" orient="auto"><polygon points="0 0, 10 3.5, 0 7" fill="#f59e0b"/></marker></defs>
  <path d="M220,205 L510,130" fill="none" stroke="#f59e0b" stroke-width="2" opacity="1" marker-end="url(#arrow-el174)"/>
  <rect x="100" y="260" width="550" height="45" rx="6.75" fill="#1a4d4d" stroke="#06b6d4" stroke-width="2" opacity="1"/>
  <text x="375" y="286.5" text-anchor="middle" fill="#e5e5e5" font-family="Nunito, sans-serif" font-size="16">핵심 규칙: Domain은 아무것도 의존하지 않는다</text>
</svg>