<svg xmlns="http://www.w3.org/2000/svg" width="680" height="485" viewBox="50 -20 680 485">
  <style>
    @import url('https://fonts.googleapis.com/css2?family=Nunito:wght@400;600;700&amp;display=swap');
  </style>
  <rect x="50" y="-20" width="680" height="485" rx="12" fill="#141414"/>
  <text x="150" y="31.6" fill="#e5e5e5" font-family="Nunito, sans-serif" font-size="24" opacity="1">flutter doctor 출력 예시</text>
  <rect x="80" y="60" width="500" height="32" rx="4.8" fill="#1a4d2e" stroke="#22c55e" stroke-width="1" opacity="1"/>
  <text x="330" y="79.5" text-anchor="middle" fill="#e5e5e5" font-family="Nunito, sans-serif" font-size="14">[✓] Flutter (Channel stable, 3.x.x)</text>
  <rect x="80" y="97" width="500" height="32" rx="4.8" fill="#1a4d2e" stroke="#22c55e" stroke-width="1" opacity="1"/>
  <text x="330" y="116.5" text-anchor="middle" fill="#e5e5e5" font-family="Nunito, sans-serif" font-size="14">[✓] Android toolchain (Android SDK version 34.x.x)</text>
  <rect x="80" y="134" width="500" height="32" rx="4.8" fill="#1a4d2e" stroke="#22c55e" stroke-width="1" opacity="1"/>
  <text x="330" y="153.5" text-anchor="middle" fill="#e5e5e5" font-family="Nunito, sans-serif" font-size="14">[✓] Xcode - develop for iOS and macOS (Xcode 15.x)</text>
  <rect x="80" y="171" width="500" height="32" rx="4.8" fill="#1a4d2e" stroke="#22c55e" stroke-width="1" opacity="1"/>
  <text x="330" y="190.5" text-anchor="middle" fill="#e5e5e5" font-family="Nunito, sans-serif" font-size="14">[✓] Chrome - develop for the web</text>
  <rect x="80" y="208" width="500" height="32" rx="4.8" fill="#1a4d2e" stroke="#22c55e" stroke-width="1" opacity="1"/>
  <text x="330" y="227.5" text-anchor="middle" fill="#e5e5e5" font-family="Nunito, sans-serif" font-size="14">[✓] Android Studio (version 2023.x)</text>
  <rect x="80" y="245" width="500" height="32" rx="4.8" fill="#1a4d2e" stroke="#22c55e" stroke-width="1" opacity="1"/>
  <text x="330" y="264.5" text-anchor="middle" fill="#e5e5e5" font-family="Nunito, sans-serif" font-size="14">[✓] VS Code (version 1.x.x)</text>
  <rect x="80" y="282" width="500" height="32" rx="4.8" fill="#1a4d2e" stroke="#22c55e" stroke-width="1" opacity="1"/>
  <text x="330" y="301.5" text-anchor="middle" fill="#e5e5e5" font-family="Nunito, sans-serif" font-size="14">[✓] Connected device (2 available)</text>
  <rect x="80" y="319" width="500" height="32" rx="4.8" fill="#1a4d2e" stroke="#22c55e" stroke-width="1" opacity="1"/>
  <text x="330" y="338.5" text-anchor="middle" fill="#e5e5e5" font-family="Nunito, sans-serif" font-size="14">[✓] Network resources</text>
  <text x="80" y="389.4" fill="#e5e5e5" font-family="Nunito, sans-serif" font-size="16" opacity="1">출력 기호 의미</text>
  <rect x="80" y="405" width="200" height="30" rx="4.5" fill="#1a4d2e" stroke="#22c55e" stroke-width="1" opacity="1"/>
  <text x="180" y="423.5" text-anchor="middle" fill="#e5e5e5" font-family="Nunito, sans-serif" font-size="14">[✓]  정상</text>
  <rect x="290" y="405" width="200" height="30" rx="4.5" fill="#5c3d1a" stroke="#f59e0b" stroke-width="1" opacity="1"/>
  <text x="390" y="423.5" text-anchor="middle" fill="#e5e5e5" font-family="Nunito, sans-serif" font-size="14">[!]  경고</text>
  <rect x="500" y="405" width="200" height="30" rx="4.5" fill="#5c1a1a" stroke="#ef4444" stroke-width="1" opacity="1"/>
  <text x="600" y="423.5" text-anchor="middle" fill="#e5e5e5" font-family="Nunito, sans-serif" font-size="14">[✗]  오류</text>
</svg>