<svg xmlns="http://www.w3.org/2000/svg" width="600" height="481" viewBox="20 -20 483 387">
  <style>
    @import url('https://fonts.googleapis.com/css2?family=Nunito:wght@400;600;700&amp;display=swap');
  </style>
  <rect x="20" y="-20" width="483" height="387" rx="12" fill="#141414"/>
  <text x="50" y="31.6" fill="#e5e5e5" font-family="Nunito, sans-serif" font-size="24" opacity="1">FIRST 테스트 원칙</text>
  <rect x="50" y="60" width="55" height="45" rx="6.75" fill="#1e3a5f" stroke="#4a9eed" stroke-width="2" opacity="1"/>
  <text x="77.5" y="88.5" text-anchor="middle" fill="#e5e5e5" font-family="Nunito, sans-serif" font-size="24">F</text>
  <rect x="115" y="60" width="200" height="45" rx="6.75" fill="#1e3a5f" stroke="#4a9eed" stroke-width="2" opacity="1"/>
  <text x="215" y="86.5" text-anchor="middle" fill="#e5e5e5" font-family="Nunito, sans-serif" font-size="16">Fast (빠름)</text>
  <text x="330" y="79.7" fill="#4a9eed" font-family="Nunito, sans-serif" font-size="13" opacity="1">모든 단위 테스트를 1분 이내에 실행</text>
  <rect x="50" y="118" width="55" height="45" rx="6.75" fill="#1a4d2e" stroke="#22c55e" stroke-width="2" opacity="1"/>
  <text x="77.5" y="146.5" text-anchor="middle" fill="#e5e5e5" font-family="Nunito, sans-serif" font-size="24">I</text>
  <rect x="115" y="118" width="200" height="45" rx="6.75" fill="#1a4d2e" stroke="#22c55e" stroke-width="2" opacity="1"/>
  <text x="215" y="144.5" text-anchor="middle" fill="#e5e5e5" font-family="Nunito, sans-serif" font-size="16">Isolated (독립)</text>
  <text x="330" y="137.7" fill="#22c55e" font-family="Nunito, sans-serif" font-size="13" opacity="1">테스트 간 의존성 없음, 순서 무관</text>
  <rect x="50" y="176" width="55" height="45" rx="6.75" fill="#2d1b69" stroke="#8b5cf6" stroke-width="2" opacity="1"/>
  <text x="77.5" y="204.5" text-anchor="middle" fill="#e5e5e5" font-family="Nunito, sans-serif" font-size="24">R</text>
  <rect x="115" y="176" width="200" height="45" rx="6.75" fill="#2d1b69" stroke="#8b5cf6" stroke-width="2" opacity="1"/>
  <text x="215" y="202.5" text-anchor="middle" fill="#e5e5e5" font-family="Nunito, sans-serif" font-size="16">Repeatable (반복)</text>
  <text x="330" y="195.7" fill="#8b5cf6" font-family="Nunito, sans-serif" font-size="13" opacity="1">언제 어디서 실행해도 같은 결과</text>
  <rect x="50" y="234" width="55" height="45" rx="6.75" fill="#5c3d1a" stroke="#f59e0b" stroke-width="2" opacity="1"/>
  <text x="77.5" y="262.5" text-anchor="middle" fill="#e5e5e5" font-family="Nunito, sans-serif" font-size="24">S</text>
  <rect x="115" y="234" width="200" height="45" rx="6.75" fill="#5c3d1a" stroke="#f59e0b" stroke-width="2" opacity="1"/>
  <text x="215" y="260.5" text-anchor="middle" fill="#e5e5e5" font-family="Nunito, sans-serif" font-size="16">Self-validating</text>
  <text x="330" y="253.7" fill="#f59e0b" font-family="Nunito, sans-serif" font-size="13" opacity="1">expect()로 자동 판단</text>
  <rect x="50" y="292" width="55" height="45" rx="6.75" fill="#1a4d4d" stroke="#06b6d4" stroke-width="2" opacity="1"/>
  <text x="77.5" y="320.5" text-anchor="middle" fill="#e5e5e5" font-family="Nunito, sans-serif" font-size="24">T</text>
  <rect x="115" y="292" width="200" height="45" rx="6.75" fill="#1a4d4d" stroke="#06b6d4" stroke-width="2" opacity="1"/>
  <text x="215" y="318.5" text-anchor="middle" fill="#e5e5e5" font-family="Nunito, sans-serif" font-size="16">Timely (적시)</text>
  <text x="330" y="311.7" fill="#06b6d4" font-family="Nunito, sans-serif" font-size="13" opacity="1">구현과 동시에 또는 직전에 작성</text>
</svg>