<svg xmlns="http://www.w3.org/2000/svg" width="700" height="312" viewBox="10 -20 700 311.8">
  <style>
    @import url('https://fonts.googleapis.com/css2?family=Nunito:wght@400;600;700&amp;display=swap');
  </style>
  <rect x="10" y="-20" width="700" height="311.8" rx="12" fill="#141414"/>
  <text x="150" y="29.8" fill="#e5e5e5" font-family="Nunito, sans-serif" font-size="22" opacity="1">ThemeData 전파 원리</text>
  <rect x="180" y="55" width="280" height="45" rx="6.75" fill="#2d1b69" stroke="#8b5cf6" stroke-width="2" opacity="1"/>
  <text x="320" y="81.25" text-anchor="middle" fill="#e5e5e5" font-family="Nunito, sans-serif" font-size="15">MaterialApp (ThemeData 보유)</text>
  <defs><marker id="arrow-a0" markerWidth="10" markerHeight="7" refX="9" refY="3.5" orient="auto"><polygon points="0 0, 10 3.5, 0 7" fill="#8b5cf6"/></marker></defs>
  <path d="M320,100 L320,135" fill="none" stroke="#8b5cf6" stroke-width="2" opacity="1" marker-end="url(#arrow-a0)"/>
  <rect x="160" y="135" width="320" height="35" rx="5.25" fill="#1e3a5f" stroke="#4a9eed" stroke-width="1" opacity="1"/>
  <text x="320" y="155.75" text-anchor="middle" fill="#e5e5e5" font-family="Nunito, sans-serif" font-size="13">InheritedWidget으로 ThemeData 전파</text>
  <defs><marker id="arrow-a1" markerWidth="10" markerHeight="7" refX="9" refY="3.5" orient="auto"><polygon points="0 0, 10 3.5, 0 7" fill="#555555"/></marker></defs>
  <path d="M200,170 L120,200" fill="none" stroke="#555555" stroke-width="1" opacity="1" marker-end="url(#arrow-a1)"/>
  <defs><marker id="arrow-a2" markerWidth="10" markerHeight="7" refX="9" refY="3.5" orient="auto"><polygon points="0 0, 10 3.5, 0 7" fill="#555555"/></marker></defs>
  <path d="M320,170 L320,200" fill="none" stroke="#555555" stroke-width="1" opacity="1" marker-end="url(#arrow-a2)"/>
  <defs><marker id="arrow-a3" markerWidth="10" markerHeight="7" refX="9" refY="3.5" orient="auto"><polygon points="0 0, 10 3.5, 0 7" fill="#555555"/></marker></defs>
  <path d="M440,170 L520,200" fill="none" stroke="#555555" stroke-width="1" opacity="1" marker-end="url(#arrow-a3)"/>
  <rect x="40" y="200" width="200" height="40" rx="6" fill="#1e3a5f" stroke="#4a9eed" stroke-width="1" opacity="1"/>
  <text x="140" y="223.25" text-anchor="middle" fill="#e5e5e5" font-family="Nunito, sans-serif" font-size="13">Scaffold → AppBar</text>
  <text x="40" y="255.8" fill="#a0a0a0" font-family="Nunito, sans-serif" font-size="12" opacity="1">colorScheme.primary</text>
  <rect x="260" y="200" width="200" height="40" rx="6" fill="#1a4d2e" stroke="#22c55e" stroke-width="1" opacity="1"/>
  <text x="360" y="223.25" text-anchor="middle" fill="#e5e5e5" font-family="Nunito, sans-serif" font-size="13">ElevatedButton</text>
  <text x="260" y="255.8" fill="#a0a0a0" font-family="Nunito, sans-serif" font-size="12" opacity="1">colorScheme.primary</text>
  <rect x="480" y="200" width="200" height="40" rx="6" fill="#5c3d1a" stroke="#f59e0b" stroke-width="1" opacity="1"/>
  <text x="580" y="223.25" text-anchor="middle" fill="#e5e5e5" font-family="Nunito, sans-serif" font-size="13">Text</text>
  <text x="480" y="255.8" fill="#a0a0a0" font-family="Nunito, sans-serif" font-size="12" opacity="1">textTheme.bodyMedium</text>
</svg>