<svg xmlns="http://www.w3.org/2000/svg" width="720" height="267" viewBox="10 -20 720 267">
  <style>
    @import url('https://fonts.googleapis.com/css2?family=Nunito:wght@400;600;700&amp;display=swap');
  </style>
  <rect x="10" y="-20" width="720" height="267" rx="12" fill="#141414"/>
  <text x="200" y="29.8" fill="#e5e5e5" font-family="Nunito, sans-serif" font-size="22" opacity="1">Cubit 구조</text>
  <rect x="40" y="70" width="140" height="80" rx="12" fill="#1e3a5f" stroke="#4a9eed" stroke-width="2" opacity="1"/>
  <text x="110" y="86.19999999999999" text-anchor="middle" fill="#e5e5e5" font-family="Nunito, sans-serif" font-size="14">UI</text>
  <text x="110" y="104.39999999999999" text-anchor="middle" fill="#e5e5e5" font-family="Nunito, sans-serif" font-size="14"></text>
  <text x="110" y="122.6" text-anchor="middle" fill="#e5e5e5" font-family="Nunito, sans-serif" font-size="14">탭 이벤트</text>
  <text x="110" y="140.79999999999998" text-anchor="middle" fill="#e5e5e5" font-family="Nunito, sans-serif" font-size="14">스와이프</text>
  <defs><marker id="arrow-a1" markerWidth="10" markerHeight="7" refX="9" refY="3.5" orient="auto"><polygon points="0 0, 10 3.5, 0 7" fill="#4a9eed"/></marker></defs>
  <path d="M180,95 L240,95" fill="none" stroke="#4a9eed" stroke-width="2" opacity="1" marker-end="url(#arrow-a1)"/>
  <rect x="240" y="70" width="180" height="80" rx="12" fill="#2d1b69" stroke="#8b5cf6" stroke-width="2" opacity="1"/>
  <text x="330" y="86.19999999999999" text-anchor="middle" fill="#e5e5e5" font-family="Nunito, sans-serif" font-size="14">Cubit</text>
  <text x="330" y="104.39999999999999" text-anchor="middle" fill="#e5e5e5" font-family="Nunito, sans-serif" font-size="14"></text>
  <text x="330" y="122.6" text-anchor="middle" fill="#e5e5e5" font-family="Nunito, sans-serif" font-size="14">increment()</text>
  <text x="330" y="140.79999999999998" text-anchor="middle" fill="#e5e5e5" font-family="Nunito, sans-serif" font-size="14">reset()</text>
  <defs><marker id="arrow-a2" markerWidth="10" markerHeight="7" refX="9" refY="3.5" orient="auto"><polygon points="0 0, 10 3.5, 0 7" fill="#8b5cf6"/></marker></defs>
  <path d="M420,95 L480,95" fill="none" stroke="#8b5cf6" stroke-width="2" opacity="1" marker-end="url(#arrow-a2)"/>
  <rect x="480" y="70" width="180" height="80" rx="12" fill="#5c3d1a" stroke="#f59e0b" stroke-width="2" opacity="1"/>
  <text x="570" y="86.19999999999999" text-anchor="middle" fill="#e5e5e5" font-family="Nunito, sans-serif" font-size="14">emit(State)</text>
  <text x="570" y="104.39999999999999" text-anchor="middle" fill="#e5e5e5" font-family="Nunito, sans-serif" font-size="14"></text>
  <text x="570" y="122.6" text-anchor="middle" fill="#e5e5e5" font-family="Nunito, sans-serif" font-size="14">emit(count + 1)</text>
  <text x="570" y="140.79999999999998" text-anchor="middle" fill="#e5e5e5" font-family="Nunito, sans-serif" font-size="14">emit(0)</text>
  <defs><marker id="arrow-a3" markerWidth="10" markerHeight="7" refX="9" refY="3.5" orient="auto"><polygon points="0 0, 10 3.5, 0 7" fill="#f59e0b"/></marker></defs>
  <path d="M570,150 L570,180" fill="none" stroke="#f59e0b" stroke-width="2" opacity="1" marker-end="url(#arrow-a3)"/>
  <rect x="440" y="180" width="260" height="35" rx="5.25" fill="#1a4d2e" stroke="#22c55e" stroke-width="1" opacity="1"/>
  <text x="570" y="200.75" text-anchor="middle" fill="#e5e5e5" font-family="Nunito, sans-serif" font-size="13">Stream&lt;State&gt; → BlocBuilder</text>
  <defs><marker id="arrow-a4" markerWidth="10" markerHeight="7" refX="9" refY="3.5" orient="auto"><polygon points="0 0, 10 3.5, 0 7" fill="#22c55e"/></marker></defs>
  <path d="M440,197 L110,197" fill="none" stroke="#22c55e" stroke-width="1" opacity="1" marker-end="url(#arrow-a4)"/>
  <text x="40" y="196.7" fill="#22c55e" font-family="Nunito, sans-serif" font-size="13" opacity="1">UI 재구성</text>
</svg>