<svg xmlns="http://www.w3.org/2000/svg" width="730" height="280" viewBox="0 -20 730 280">
  <style>
    @import url('https://fonts.googleapis.com/css2?family=Nunito:wght@400;600;700&amp;display=swap');
  </style>
  <rect x="0" y="-20" width="730" height="280" rx="12" fill="#141414"/>
  <text x="140" y="31.6" fill="#e5e5e5" font-family="Nunito, sans-serif" font-size="24" opacity="1">Isolate 메모리 아키텍처</text>
  <rect x="30" y="60" width="270" height="170" rx="25.5" fill="#1e3a5f" stroke="#4a9eed" stroke-width="2" opacity="1"/>
  <text x="100" y="82.4" fill="#e5e5e5" font-family="Nunito, sans-serif" font-size="16" opacity="1">메인 Isolate</text>
  <rect x="50" y="120" width="110" height="50" rx="7.5" fill="#1a4d4d" stroke="#06b6d4" stroke-width="2" opacity="1"/>
  <text x="105" y="148.5" text-anchor="middle" fill="#e5e5e5" font-family="Nunito, sans-serif" font-size="14">힙 메모리 A</text>
  <rect x="170" y="120" width="110" height="50" rx="7.5" fill="#2d1b69" stroke="#8b5cf6" stroke-width="2" opacity="1"/>
  <text x="225" y="148.5" text-anchor="middle" fill="#e5e5e5" font-family="Nunito, sans-serif" font-size="14">Event Loop A</text>
  <rect x="430" y="60" width="270" height="170" rx="25.5" fill="#5c3d1a" stroke="#f59e0b" stroke-width="2" opacity="0.3"/>
  <text x="500" y="82.4" fill="#e5e5e5" font-family="Nunito, sans-serif" font-size="16" opacity="0.3">워커 Isolate</text>
  <rect x="450" y="120" width="110" height="50" rx="7.5" fill="#1a4d4d" stroke="#06b6d4" stroke-width="2" opacity="0.3"/>
  <text x="505" y="148.5" text-anchor="middle" fill="#e5e5e5" font-family="Nunito, sans-serif" font-size="14">힙 메모리 B</text>
  <rect x="570" y="120" width="110" height="50" rx="7.5" fill="#2d1b69" stroke="#8b5cf6" stroke-width="2" opacity="0.3"/>
  <text x="625" y="148.5" text-anchor="middle" fill="#e5e5e5" font-family="Nunito, sans-serif" font-size="14">Event Loop B</text>
  <defs><marker id="arrow-msg_right" markerWidth="10" markerHeight="7" refX="9" refY="3.5" orient="auto"><polygon points="0 0, 10 3.5, 0 7" fill="#a0a0a0"/></marker></defs>
  <path d="M300,140 L430,140" fill="none" stroke="#a0a0a0" stroke-width="2" opacity="0.3" marker-end="url(#arrow-msg_right)"/>
  <defs><marker id="arrow-msg_left" markerWidth="10" markerHeight="7" refX="9" refY="3.5" orient="auto"><polygon points="0 0, 10 3.5, 0 7" fill="#a0a0a0"/></marker></defs>
  <path d="M430,155 L300,155" fill="none" stroke="#a0a0a0" stroke-width="2" opacity="0.3" marker-end="url(#arrow-msg_left)"/>
  <text x="320" y="177.6" fill="#a0a0a0" font-family="Nunito, sans-serif" font-size="14" opacity="0.3">메시지 패싱</text>
  <text x="320" y="197.2" fill="#a0a0a0" font-family="Nunito, sans-serif" font-size="14" opacity="0.3">(값 복사)</text>
</svg>