<svg xmlns="http://www.w3.org/2000/svg" width="695" height="325" viewBox="10 -15 695 325">
  <style>
    @import url('https://fonts.googleapis.com/css2?family=Nunito:wght@400;600;700&amp;display=swap');
  </style>
  <rect x="10" y="-15" width="695" height="325" rx="12" fill="#141414"/>
  <text x="190" y="33" fill="#e5e5e5" font-family="Nunito, sans-serif" font-size="20" opacity="1">코드 품질 자동화 생태계</text>
  <text x="50" y="69.4" fill="#e5e5e5" font-family="Nunito, sans-serif" font-size="16" opacity="1">역사:</text>
  <rect x="50" y="78" width="120" height="30" rx="4.5" fill="#555555" stroke="#a0a0a0" stroke-width="2" opacity="1"/>
  <text x="110" y="96" text-anchor="middle" fill="#e5e5e5" font-family="Nunito, sans-serif" font-size="12">JSLint (2002)</text>
  <defs><marker id="arrow-a_494" markerWidth="10" markerHeight="7" refX="9" refY="3.5" orient="auto"><polygon points="0 0, 10 3.5, 0 7" fill="#555555"/></marker></defs>
  <path d="M170,93 L190,93" fill="none" stroke="#555555" stroke-width="2" opacity="1" marker-end="url(#arrow-a_494)"/>
  <rect x="195" y="78" width="120" height="30" rx="4.5" fill="#555555" stroke="#a0a0a0" stroke-width="2" opacity="1"/>
  <text x="255" y="96" text-anchor="middle" fill="#e5e5e5" font-family="Nunito, sans-serif" font-size="12">JSHint (2011)</text>
  <defs><marker id="arrow-a_497" markerWidth="10" markerHeight="7" refX="9" refY="3.5" orient="auto"><polygon points="0 0, 10 3.5, 0 7" fill="#555555"/></marker></defs>
  <path d="M315,93 L335,93" fill="none" stroke="#555555" stroke-width="2" opacity="1" marker-end="url(#arrow-a_497)"/>
  <rect x="340" y="78" width="120" height="30" rx="4.5" fill="#1e3a5f" stroke="#4a9eed" stroke-width="2" opacity="1"/>
  <text x="400" y="96" text-anchor="middle" fill="#e5e5e5" font-family="Nunito, sans-serif" font-size="12">ESLint (2013)</text>
  <defs><marker id="arrow-a_500" markerWidth="10" markerHeight="7" refX="9" refY="3.5" orient="auto"><polygon points="0 0, 10 3.5, 0 7" fill="#555555"/></marker></defs>
  <path d="M460,93 L480,93" fill="none" stroke="#555555" stroke-width="2" opacity="1" marker-end="url(#arrow-a_500)"/>
  <rect x="485" y="78" width="130" height="30" rx="4.5" fill="#1a4d2e" stroke="#22c55e" stroke-width="2" opacity="1"/>
  <text x="550" y="96" text-anchor="middle" fill="#e5e5e5" font-family="Nunito, sans-serif" font-size="12">Prettier (2017)</text>
  <rect x="40" y="130" width="190" height="55" rx="8.25" fill="#1e3a5f" stroke="#4a9eed" stroke-width="2" opacity="1"/>
  <text x="135" y="151.9" text-anchor="middle" fill="#e5e5e5" font-family="Nunito, sans-serif" font-size="14">ESLint</text>
  <text x="135" y="170.1" text-anchor="middle" fill="#e5e5e5" font-family="Nunito, sans-serif" font-size="14">&quot;코드 품질&quot;</text>
  <rect x="255" y="130" width="190" height="55" rx="8.25" fill="#1a4d2e" stroke="#22c55e" stroke-width="2" opacity="1"/>
  <text x="350" y="151.9" text-anchor="middle" fill="#e5e5e5" font-family="Nunito, sans-serif" font-size="14">Prettier</text>
  <text x="350" y="170.1" text-anchor="middle" fill="#e5e5e5" font-family="Nunito, sans-serif" font-size="14">&quot;코드 스타일&quot;</text>
  <rect x="470" y="130" width="190" height="55" rx="8.25" fill="#2d1b69" stroke="#8b5cf6" stroke-width="2" opacity="1"/>
  <text x="565" y="151.9" text-anchor="middle" fill="#e5e5e5" font-family="Nunito, sans-serif" font-size="14">Husky+lint-staged</text>
  <text x="565" y="170.1" text-anchor="middle" fill="#e5e5e5" font-family="Nunito, sans-serif" font-size="14">&quot;자동화 트리거&quot;</text>
  <text x="50" y="224.4" fill="#e5e5e5" font-family="Nunito, sans-serif" font-size="16" opacity="1">자동화 계층:</text>
  <rect x="40" y="235" width="140" height="45" rx="6.75" fill="#1a4d4d" stroke="#06b6d4" stroke-width="2" opacity="1"/>
  <text x="110" y="252.29999999999998" text-anchor="middle" fill="#e5e5e5" font-family="Nunito, sans-serif" font-size="13">IDE (즉시)</text>
  <text x="110" y="269.2" text-anchor="middle" fill="#e5e5e5" font-family="Nunito, sans-serif" font-size="13">ESLint 경고</text>
  <defs><marker id="arrow-a_512" markerWidth="10" markerHeight="7" refX="9" refY="3.5" orient="auto"><polygon points="0 0, 10 3.5, 0 7" fill="#555555"/></marker></defs>
  <path d="M180,257 L200,257" fill="none" stroke="#555555" stroke-width="2" opacity="1" marker-end="url(#arrow-a_512)"/>
  <rect x="205" y="235" width="140" height="45" rx="6.75" fill="#5c3d1a" stroke="#f59e0b" stroke-width="2" opacity="1"/>
  <text x="275" y="252.29999999999998" text-anchor="middle" fill="#e5e5e5" font-family="Nunito, sans-serif" font-size="13">커밋 시</text>
  <text x="275" y="269.2" text-anchor="middle" fill="#e5e5e5" font-family="Nunito, sans-serif" font-size="13">Husky 훅</text>
  <defs><marker id="arrow-a_515" markerWidth="10" markerHeight="7" refX="9" refY="3.5" orient="auto"><polygon points="0 0, 10 3.5, 0 7" fill="#555555"/></marker></defs>
  <path d="M345,257 L365,257" fill="none" stroke="#555555" stroke-width="2" opacity="1" marker-end="url(#arrow-a_515)"/>
  <rect x="370" y="235" width="140" height="45" rx="6.75" fill="#5c1a1a" stroke="#ef4444" stroke-width="2" opacity="1"/>
  <text x="440" y="252.29999999999998" text-anchor="middle" fill="#e5e5e5" font-family="Nunito, sans-serif" font-size="13">CI 시</text>
  <text x="440" y="269.2" text-anchor="middle" fill="#e5e5e5" font-family="Nunito, sans-serif" font-size="13">전체 린트/테스트</text>
  <defs><marker id="arrow-a_518" markerWidth="10" markerHeight="7" refX="9" refY="3.5" orient="auto"><polygon points="0 0, 10 3.5, 0 7" fill="#555555"/></marker></defs>
  <path d="M510,257 L530,257" fill="none" stroke="#555555" stroke-width="2" opacity="1" marker-end="url(#arrow-a_518)"/>
  <rect x="535" y="235" width="140" height="45" rx="6.75" fill="#2d1b69" stroke="#8b5cf6" stroke-width="2" opacity="1"/>
  <text x="605" y="252.29999999999998" text-anchor="middle" fill="#e5e5e5" font-family="Nunito, sans-serif" font-size="13">리뷰 시</text>
  <text x="605" y="269.2" text-anchor="middle" fill="#e5e5e5" font-family="Nunito, sans-serif" font-size="13">설계/로직</text>
</svg>