<svg xmlns="http://www.w3.org/2000/svg" width="900" height="767" viewBox="-30 -20 1094 932.6">
  <style>
    @import url('https://fonts.googleapis.com/css2?family=Nunito:wght@400;600;700&amp;display=swap');
  </style>
  <rect x="-30" y="-20" width="1094" height="932.6" rx="12" fill="#141414"/>
  <text x="30" y="29.8" fill="#e5e5e5" font-family="Nunito, sans-serif" font-size="22" opacity="1">문제: 이미지 로드 시 레이아웃이 밀려남</text>
  <rect x="20" y="50" width="714" height="42" rx="6.3" fill="#2d1b69" stroke="#8b5cf6" stroke-width="1.5" opacity="1"/>
  <text x="377" y="74.75" text-anchor="middle" fill="#e5e5e5" font-family="Nunito, sans-serif" font-size="15">문제: 이미지 로드 시 레이아웃이 밀려남</text>
  <path d="M20,96 L1014,96" fill="none" stroke="#555555" stroke-width="1" opacity="1"/>
  <text x="30" y="119.6" fill="#e5e5e5" font-family="Nunito, sans-serif" font-size="14" opacity="1">로드 전:          로드 후:</text>
  <path d="M20,138 L1014,138" fill="none" stroke="#555555" stroke-width="1" opacity="1"/>
  <text x="30" y="161.6" fill="#e5e5e5" font-family="Nunito, sans-serif" font-size="14" opacity="1">┌──────────┐      ┌──────────┐</text>
  <path d="M20,180 L1014,180" fill="none" stroke="#555555" stroke-width="1" opacity="1"/>
  <text x="30" y="203.6" fill="#e5e5e5" font-family="Nunito, sans-serif" font-size="14" opacity="1">제목</text>
  <text x="746" y="203.6" fill="#e5e5e5" font-family="Nunito, sans-serif" font-size="14" opacity="1">제목</text>
  <path d="M20,222 L1014,222" fill="none" stroke="#555555" stroke-width="1" opacity="1"/>
  <text x="30" y="245.6" fill="#e5e5e5" font-family="Nunito, sans-serif" font-size="14" opacity="1">본문 텍스트</text>
  <path d="M20,264 L1014,264" fill="none" stroke="#555555" stroke-width="1" opacity="1"/>
  <text x="30" y="287.6" fill="#e5e5e5" font-family="Nunito, sans-serif" font-size="14" opacity="1">...</text>
  <text x="746" y="287.6" fill="#e5e5e5" font-family="Nunito, sans-serif" font-size="14" opacity="1">[이미지]</text>
  <text x="886" y="287.6" fill="#e5e5e5" font-family="Nunito, sans-serif" font-size="14" opacity="1">← 이미지가 로드되면서</text>
  <path d="M20,306 L1014,306" fill="none" stroke="#555555" stroke-width="1" opacity="1"/>
  <text x="30" y="329.6" fill="#e5e5e5" font-family="Nunito, sans-serif" font-size="14" opacity="1">└──────────┘</text>
  <text x="746" y="329.6" fill="#e5e5e5" font-family="Nunito, sans-serif" font-size="14" opacity="1">텍스트가 아래로 밀림!</text>
  <path d="M20,348 L1014,348" fill="none" stroke="#555555" stroke-width="1" opacity="1"/>
  <text x="30" y="371.6" fill="#e5e5e5" font-family="Nunito, sans-serif" font-size="14" opacity="1">본문 텍스트</text>
  <path d="M20,390 L1014,390" fill="none" stroke="#555555" stroke-width="1" opacity="1"/>
  <text x="30" y="413.6" fill="#e5e5e5" font-family="Nunito, sans-serif" font-size="14" opacity="1">...</text>
  <path d="M20,432 L1014,432" fill="none" stroke="#555555" stroke-width="1" opacity="1"/>
  <text x="30" y="455.6" fill="#e5e5e5" font-family="Nunito, sans-serif" font-size="14" opacity="1">CLS 점수: 0.35 (나쁨!)</text>
  <path d="M20,474 L1014,474" fill="none" stroke="#555555" stroke-width="1" opacity="1"/>
  <text x="30" y="497.6" fill="#e5e5e5" font-family="Nunito, sans-serif" font-size="14" opacity="1">해결: 이미지에 크기를 지정하여 공간 미리 확보</text>
  <path d="M20,516 L1014,516" fill="none" stroke="#555555" stroke-width="1" opacity="1"/>
  <text x="30" y="539.6" fill="#ef4444" font-family="Nunito, sans-serif" font-size="14" opacity="1">// ❌ 크기 미지정 — CLS 발생</text>
  <path d="M20,558 L1014,558" fill="none" stroke="#555555" stroke-width="1" opacity="1"/>
  <text x="30" y="581.6" fill="#e5e5e5" font-family="Nunito, sans-serif" font-size="14" opacity="1">&lt;img src=&quot;product.jpg&quot; alt=&quot;상품&quot; /&gt;</text>
  <path d="M20,600 L1014,600" fill="none" stroke="#555555" stroke-width="1" opacity="1"/>
  <text x="30" y="623.6" fill="#22c55e" font-family="Nunito, sans-serif" font-size="14" opacity="1">// ✅ 크기 지정 — CLS 방지</text>
  <path d="M20,642 L1014,642" fill="none" stroke="#555555" stroke-width="1" opacity="1"/>
  <text x="30" y="665.6" fill="#e5e5e5" font-family="Nunito, sans-serif" font-size="14" opacity="1">&lt;img src=&quot;product.jpg&quot; alt=&quot;상품&quot; width={600} height={400} /&gt;</text>
  <path d="M20,684 L1014,684" fill="none" stroke="#555555" stroke-width="1" opacity="1"/>
  <text x="30" y="707.6" fill="#22c55e" font-family="Nunito, sans-serif" font-size="14" opacity="1">// ✅ CSS aspect-ratio — 반응형에서도 CLS 방지</text>
  <path d="M20,726 L1014,726" fill="none" stroke="#555555" stroke-width="1" opacity="1"/>
  <text x="30" y="749.6" fill="#e5e5e5" font-family="Nunito, sans-serif" font-size="14" opacity="1">&lt;div style={{ aspectRatio: '16/9', width: '100%' }}&gt;</text>
  <path d="M20,768 L1014,768" fill="none" stroke="#555555" stroke-width="1" opacity="1"/>
  <text x="30" y="791.6" fill="#e5e5e5" font-family="Nunito, sans-serif" font-size="14" opacity="1">&lt;img src=&quot;product.jpg&quot; alt=&quot;상품&quot; style={{ width: '100%', height: '100%' }} /&gt;</text>
  <path d="M20,810 L1014,810" fill="none" stroke="#555555" stroke-width="1" opacity="1"/>
  <text x="30" y="833.6" fill="#e5e5e5" font-family="Nunito, sans-serif" font-size="14" opacity="1">&lt;/div&gt;</text>
  <path d="M20,852 L1014,852" fill="none" stroke="#555555" stroke-width="1" opacity="1"/>
  <text x="30" y="875.6" fill="#e5e5e5" font-family="Nunito, sans-serif" font-size="14" opacity="1">CLS 점수: 0.02 (우수!)</text>
</svg>