<svg xmlns="http://www.w3.org/2000/svg" width="730" height="517" viewBox="20 -20 730 516.8">
  <style>
    @import url('https://fonts.googleapis.com/css2?family=Nunito:wght@400;600;700&amp;display=swap');
  </style>
  <rect x="20" y="-20" width="730" height="516.8" rx="12" fill="#141414"/>
  <text x="80" y="31.6" fill="#e5e5e5" font-family="Nunito, sans-serif" font-size="24" opacity="1">메모이제이션 개념 지도</text>
  <rect x="50" y="55" width="190" height="35" rx="5.25" fill="#1e3a5f" stroke="#4a9eed" stroke-width="1" opacity="1"/>
  <text x="145" y="76" text-anchor="middle" fill="#e5e5e5" font-family="Nunito, sans-serif" font-size="14">렌더링 = 함수 실행</text>
  <rect x="320" y="55" width="210" height="35" rx="5.25" fill="#5c1a1a" stroke="#ef4444" stroke-width="1" opacity="1"/>
  <text x="425" y="76" text-anchor="middle" fill="#ef4444" font-family="Nunito, sans-serif" font-size="14">매 렌더링 새 참조 생성</text>
  <rect x="340" y="115" width="170" height="35" rx="5.25" fill="#5c3d1a" stroke="#f59e0b" stroke-width="1" opacity="1"/>
  <text x="425" y="136" text-anchor="middle" fill="#f59e0b" font-family="Nunito, sans-serif" font-size="14">참조 동일성 문제</text>
  <rect x="60" y="185" width="140" height="35" rx="5.25" fill="#1a4d2e" stroke="#22c55e" stroke-width="1" opacity="1"/>
  <text x="130" y="206" text-anchor="middle" fill="#22c55e" font-family="Nunito, sans-serif" font-size="14">useMemo</text>
  <rect x="240" y="185" width="140" height="35" rx="5.25" fill="#1a4d4d" stroke="#06b6d4" stroke-width="1" opacity="1"/>
  <text x="310" y="206" text-anchor="middle" fill="#06b6d4" font-family="Nunito, sans-serif" font-size="14">useCallback</text>
  <rect x="420" y="185" width="140" height="35" rx="5.25" fill="#2d1b69" stroke="#8b5cf6" stroke-width="1" opacity="1"/>
  <text x="490" y="206" text-anchor="middle" fill="#8b5cf6" font-family="Nunito, sans-serif" font-size="14">React.memo</text>
  <text x="65" y="235.8" fill="#a0a0a0" font-family="Nunito, sans-serif" font-size="12" opacity="1">계산 결과 캐싱</text>
  <text x="245" y="235.8" fill="#a0a0a0" font-family="Nunito, sans-serif" font-size="12" opacity="1">함수 참조 안정화</text>
  <text x="420" y="235.8" fill="#a0a0a0" font-family="Nunito, sans-serif" font-size="12" opacity="1">컴포넌트 건너뛰기</text>
  <rect x="195" y="260" width="200" height="30" rx="4.5" fill="#1e3a5f" stroke="#4a9eed" stroke-width="1" opacity="1"/>
  <text x="295" y="278.5" text-anchor="middle" fill="#e5e5e5" font-family="Nunito, sans-serif" font-size="14">결합 패턴</text>
  <rect x="145" y="310" width="300" height="30" rx="4.5" fill="#5c1a1a" stroke="#ef4444" stroke-width="1" opacity="1"/>
  <text x="295" y="328.5" text-anchor="middle" fill="#ef4444" font-family="Nunito, sans-serif" font-size="14">언제 쓰지 말아야 하는가</text>
  <rect x="100" y="360" width="380" height="30" rx="4.5" fill="#5c3d1a" stroke="#f59e0b" stroke-width="1" opacity="1"/>
  <text x="290" y="378.5" text-anchor="middle" fill="#e5e5e5" font-family="Nunito, sans-serif" font-size="14">측정 → 병목 식별 → 최소 최적화</text>
  <rect x="170" y="410" width="240" height="35" rx="5.25" fill="#2d1b69" stroke="#8b5cf6" stroke-width="1" opacity="1"/>
  <text x="290" y="431" text-anchor="middle" fill="#8b5cf6" font-family="Nunito, sans-serif" font-size="14">React Compiler</text>
  <text x="180" y="460.8" fill="#a0a0a0" font-family="Nunito, sans-serif" font-size="12" opacity="1">(자동 메모이제이션의 미래)</text>
</svg>