<svg xmlns="http://www.w3.org/2000/svg" width="639.4" height="645" viewBox="-20 -20 639.4 644.6">
  <style>
    @import url('https://fonts.googleapis.com/css2?family=Nunito:wght@400;600;700&amp;display=swap');
  </style>
  <rect x="-20" y="-20" width="639.4" height="644.6" rx="12" fill="#141414"/>
  <text x="10" y="22.6" fill="#e5e5e5" font-family="Nunito, sans-serif" font-size="14" opacity="1">프레임워크·라이브러리 (2025년 기준 대략적 규모)</text>
  <text x="10" y="50.6" fill="#e5e5e5" font-family="Nunito, sans-serif" font-size="14" opacity="1">react</text>
  <rect x="220" y="35" width="300" height="20" rx="0" fill="#555555" stroke="#a0a0a0" stroke-width="2" opacity="1"/>
  <rect x="220" y="35" width="300" height="20" rx="0" fill="#1a4d4d" stroke="#06b6d4" stroke-width="2" opacity="1"/>
  <text x="530" y="48.8" fill="#a0a0a0" font-family="Nunito, sans-serif" font-size="12" opacity="1">~30M/week</text>
  <text x="10" y="80.6" fill="#e5e5e5" font-family="Nunito, sans-serif" font-size="14" opacity="1">react-dom</text>
  <rect x="220" y="65" width="300" height="20" rx="0" fill="#555555" stroke="#a0a0a0" stroke-width="2" opacity="1"/>
  <rect x="220" y="65" width="300" height="20" rx="0" fill="#2d1b69" stroke="#8b5cf6" stroke-width="2" opacity="1"/>
  <text x="530" y="78.8" fill="#a0a0a0" font-family="Nunito, sans-serif" font-size="12" opacity="1">~28M/week</text>
  <text x="10" y="107.6" fill="#e5e5e5" font-family="Nunito, sans-serif" font-size="14" opacity="1">라우팅</text>
  <text x="10" y="135.6" fill="#e5e5e5" font-family="Nunito, sans-serif" font-size="14" opacity="1">react-router-dom</text>
  <rect x="220" y="120" width="300" height="20" rx="0" fill="#555555" stroke="#a0a0a0" stroke-width="2" opacity="1"/>
  <rect x="220" y="120" width="300" height="20" rx="0" fill="#1a4d2e" stroke="#22c55e" stroke-width="2" opacity="1"/>
  <text x="530" y="133.8" fill="#a0a0a0" font-family="Nunito, sans-serif" font-size="12" opacity="1">~14M/week</text>
  <text x="10" y="165.6" fill="#e5e5e5" font-family="Nunito, sans-serif" font-size="14" opacity="1">next</text>
  <rect x="220" y="150" width="300" height="20" rx="0" fill="#555555" stroke="#a0a0a0" stroke-width="2" opacity="1"/>
  <rect x="220" y="150" width="300" height="20" rx="0" fill="#5c1a1a" stroke="#ef4444" stroke-width="2" opacity="1"/>
  <text x="530" y="163.8" fill="#a0a0a0" font-family="Nunito, sans-serif" font-size="12" opacity="1">~8M/week</text>
  <text x="10" y="192.6" fill="#e5e5e5" font-family="Nunito, sans-serif" font-size="14" opacity="1">상태 관리</text>
  <text x="10" y="220.6" fill="#e5e5e5" font-family="Nunito, sans-serif" font-size="14" opacity="1">zustand</text>
  <rect x="220" y="205" width="300" height="20" rx="0" fill="#555555" stroke="#a0a0a0" stroke-width="2" opacity="1"/>
  <rect x="220" y="205" width="300" height="20" rx="0" fill="#1a4d4d" stroke="#06b6d4" stroke-width="2" opacity="1"/>
  <text x="530" y="218.8" fill="#a0a0a0" font-family="Nunito, sans-serif" font-size="12" opacity="1">~6M/week</text>
  <text x="10" y="250.6" fill="#e5e5e5" font-family="Nunito, sans-serif" font-size="14" opacity="1">redux</text>
  <rect x="220" y="235" width="300" height="20" rx="0" fill="#555555" stroke="#a0a0a0" stroke-width="2" opacity="1"/>
  <rect x="220" y="235" width="300" height="20" rx="0" fill="#2d1b69" stroke="#8b5cf6" stroke-width="2" opacity="1"/>
  <text x="530" y="248.8" fill="#a0a0a0" font-family="Nunito, sans-serif" font-size="12" opacity="1">~5M/week</text>
  <text x="10" y="280.6" fill="#e5e5e5" font-family="Nunito, sans-serif" font-size="14" opacity="1">jotai</text>
  <rect x="220" y="265" width="300" height="20" rx="0" fill="#555555" stroke="#a0a0a0" stroke-width="2" opacity="1"/>
  <rect x="220" y="265" width="300" height="20" rx="0" fill="#1e3a5f" stroke="#4a9eed" stroke-width="2" opacity="1"/>
  <text x="530" y="278.8" fill="#a0a0a0" font-family="Nunito, sans-serif" font-size="12" opacity="1">~2M/week</text>
  <text x="10" y="307.6" fill="#e5e5e5" font-family="Nunito, sans-serif" font-size="14" opacity="1">데이터 패칭</text>
  <text x="10" y="335.6" fill="#e5e5e5" font-family="Nunito, sans-serif" font-size="14" opacity="1">@tanstack/react-query</text>
  <rect x="220" y="320" width="300" height="20" rx="0" fill="#555555" stroke="#a0a0a0" stroke-width="2" opacity="1"/>
  <rect x="220" y="320" width="300" height="20" rx="0" fill="#5c1a1a" stroke="#ef4444" stroke-width="2" opacity="1"/>
  <text x="530" y="333.8" fill="#a0a0a0" font-family="Nunito, sans-serif" font-size="12" opacity="1">~5M/week</text>
  <text x="10" y="365.6" fill="#e5e5e5" font-family="Nunito, sans-serif" font-size="14" opacity="1">axios</text>
  <rect x="220" y="350" width="300" height="20" rx="0" fill="#555555" stroke="#a0a0a0" stroke-width="2" opacity="1"/>
  <rect x="220" y="350" width="300" height="20" rx="0" fill="#5c3d1a" stroke="#f59e0b" stroke-width="2" opacity="1"/>
  <text x="530" y="363.8" fill="#a0a0a0" font-family="Nunito, sans-serif" font-size="12" opacity="1">~20M/week</text>
  <text x="10" y="395.6" fill="#e5e5e5" font-family="Nunito, sans-serif" font-size="14" opacity="1">swr</text>
  <rect x="220" y="380" width="300" height="20" rx="0" fill="#555555" stroke="#a0a0a0" stroke-width="2" opacity="1"/>
  <rect x="220" y="380" width="300" height="20" rx="0" fill="#1a4d2e" stroke="#22c55e" stroke-width="2" opacity="1"/>
  <text x="530" y="393.8" fill="#a0a0a0" font-family="Nunito, sans-serif" font-size="12" opacity="1">~4M/week</text>
  <text x="10" y="422.6" fill="#e5e5e5" font-family="Nunito, sans-serif" font-size="14" opacity="1">스타일링</text>
  <text x="10" y="450.6" fill="#e5e5e5" font-family="Nunito, sans-serif" font-size="14" opacity="1">tailwindcss</text>
  <rect x="220" y="435" width="300" height="20" rx="0" fill="#555555" stroke="#a0a0a0" stroke-width="2" opacity="1"/>
  <rect x="220" y="435" width="300" height="20" rx="0" fill="#1e3a5f" stroke="#4a9eed" stroke-width="2" opacity="1"/>
  <text x="530" y="448.8" fill="#a0a0a0" font-family="Nunito, sans-serif" font-size="12" opacity="1">~12M/week</text>
  <text x="10" y="477.6" fill="#e5e5e5" font-family="Nunito, sans-serif" font-size="14" opacity="1">폼</text>
  <text x="10" y="505.6" fill="#e5e5e5" font-family="Nunito, sans-serif" font-size="14" opacity="1">react-hook-form</text>
  <rect x="220" y="490" width="300" height="20" rx="0" fill="#555555" stroke="#a0a0a0" stroke-width="2" opacity="1"/>
  <rect x="220" y="490" width="300" height="20" rx="0" fill="#5c1a1a" stroke="#ef4444" stroke-width="2" opacity="1"/>
  <text x="530" y="503.8" fill="#a0a0a0" font-family="Nunito, sans-serif" font-size="12" opacity="1">~7M/week</text>
  <text x="10" y="532.6" fill="#e5e5e5" font-family="Nunito, sans-serif" font-size="14" opacity="1">테스트</text>
  <text x="10" y="560.6" fill="#e5e5e5" font-family="Nunito, sans-serif" font-size="14" opacity="1">vitest</text>
  <rect x="220" y="545" width="300" height="20" rx="0" fill="#555555" stroke="#a0a0a0" stroke-width="2" opacity="1"/>
  <rect x="220" y="545" width="300" height="20" rx="0" fill="#1a4d4d" stroke="#06b6d4" stroke-width="2" opacity="1"/>
  <text x="530" y="558.8" fill="#a0a0a0" font-family="Nunito, sans-serif" font-size="12" opacity="1">~8M/week</text>
  <text x="10" y="587.6" fill="#e5e5e5" font-family="Nunito, sans-serif" font-size="14" opacity="1">※ 수치는 대략적인 상대 규모 참고용</text>
</svg>