<svg xmlns="http://www.w3.org/2000/svg" width="600" height="1023" viewBox="-30 -20 547 932.6">
  <style>
    @import url('https://fonts.googleapis.com/css2?family=Nunito:wght@400;600;700&amp;display=swap');
  </style>
  <rect x="-30" y="-20" width="547" height="932.6" rx="12" fill="#141414"/>
  <text x="30" y="29.8" fill="#e5e5e5" font-family="Nunito, sans-serif" font-size="22" opacity="1">프로젝트 구조 원칙 관계도</text>
  <rect x="20" y="50" width="345" height="42" rx="6.3" fill="#2d1b69" stroke="#8b5cf6" stroke-width="1.5" opacity="1"/>
  <text x="192.5" y="74.75" text-anchor="middle" fill="#e5e5e5" font-family="Nunito, sans-serif" font-size="15">프로젝트 구조 원칙 관계도</text>
  <path d="M20,96 L467,96" fill="none" stroke="#555555" stroke-width="1" opacity="1"/>
  <text x="30" y="119.6" fill="#e5e5e5" font-family="Nunito, sans-serif" font-size="14" opacity="1">의존성 계층 구조 (단방향 규칙)</text>
  <path d="M20,138 L467,138" fill="none" stroke="#555555" stroke-width="1" opacity="1"/>
  <text x="30" y="161.6" fill="#e5e5e5" font-family="Nunito, sans-serif" font-size="14" opacity="1">┌─────────────────────────────────┐</text>
  <path d="M20,180 L467,180" fill="none" stroke="#555555" stroke-width="1" opacity="1"/>
  <text x="30" y="203.6" fill="#e5e5e5" font-family="Nunito, sans-serif" font-size="14" opacity="1">pages/         (조합 계층)</text>
  <text x="377" y="203.6" fill="#e5e5e5" font-family="Nunito, sans-serif" font-size="14" opacity="1">← 가장 바깥</text>
  <path d="M20,222 L467,222" fill="none" stroke="#555555" stroke-width="1" opacity="1"/>
  <text x="30" y="245.6" fill="#e5e5e5" font-family="Nunito, sans-serif" font-size="14" opacity="1">여러 feature를 import하여 조합</text>
  <path d="M20,264 L467,264" fill="none" stroke="#555555" stroke-width="1" opacity="1"/>
  <text x="30" y="287.6" fill="#e5e5e5" font-family="Nunito, sans-serif" font-size="14" opacity="1">└─────────────┬───────────────────┘</text>
  <path d="M20,306 L467,306" fill="none" stroke="#555555" stroke-width="1" opacity="1"/>
  <text x="30" y="329.6" fill="#e5e5e5" font-family="Nunito, sans-serif" font-size="14" opacity="1">import (허용)</text>
  <path d="M20,348 L467,348" fill="none" stroke="#555555" stroke-width="1" opacity="1"/>
  <text x="30" y="371.6" fill="#e5e5e5" font-family="Nunito, sans-serif" font-size="14" opacity="1">┌─────────────▼───────────────────┐</text>
  <path d="M20,390 L467,390" fill="none" stroke="#555555" stroke-width="1" opacity="1"/>
  <text x="30" y="413.6" fill="#e5e5e5" font-family="Nunito, sans-serif" font-size="14" opacity="1">features/      (비즈니스 계층)</text>
  <path d="M20,432 L467,432" fill="none" stroke="#555555" stroke-width="1" opacity="1"/>
  <text x="30" y="455.6" fill="#e5e5e5" font-family="Nunito, sans-serif" font-size="14" opacity="1">auth / products / cart / ...</text>
  <path d="M20,474 L467,474" fill="none" stroke="#555555" stroke-width="1" opacity="1"/>
  <text x="30" y="497.6" fill="#e5e5e5" font-family="Nunito, sans-serif" font-size="14" opacity="1">· shared만 import 가능</text>
  <path d="M20,516 L467,516" fill="none" stroke="#555555" stroke-width="1" opacity="1"/>
  <text x="30" y="539.6" fill="#ef4444" font-family="Nunito, sans-serif" font-size="14" opacity="1">· 다른 feature 직접 import ❌</text>
  <path d="M20,558 L467,558" fill="none" stroke="#555555" stroke-width="1" opacity="1"/>
  <text x="30" y="581.6" fill="#e5e5e5" font-family="Nunito, sans-serif" font-size="14" opacity="1">└─────────────┬───────────────────┘</text>
  <path d="M20,600 L467,600" fill="none" stroke="#555555" stroke-width="1" opacity="1"/>
  <text x="30" y="623.6" fill="#e5e5e5" font-family="Nunito, sans-serif" font-size="14" opacity="1">import (허용)</text>
  <path d="M20,642 L467,642" fill="none" stroke="#555555" stroke-width="1" opacity="1"/>
  <text x="30" y="665.6" fill="#e5e5e5" font-family="Nunito, sans-serif" font-size="14" opacity="1">┌─────────────▼───────────────────┐</text>
  <path d="M20,684 L467,684" fill="none" stroke="#555555" stroke-width="1" opacity="1"/>
  <text x="30" y="707.6" fill="#e5e5e5" font-family="Nunito, sans-serif" font-size="14" opacity="1">shared/        (기반 계층)</text>
  <text x="377" y="707.6" fill="#e5e5e5" font-family="Nunito, sans-serif" font-size="14" opacity="1">← 가장 안쪽</text>
  <path d="M20,726 L467,726" fill="none" stroke="#555555" stroke-width="1" opacity="1"/>
  <text x="30" y="749.6" fill="#e5e5e5" font-family="Nunito, sans-serif" font-size="14" opacity="1">components / hooks / utils</text>
  <path d="M20,768 L467,768" fill="none" stroke="#555555" stroke-width="1" opacity="1"/>
  <text x="30" y="791.6" fill="#e5e5e5" font-family="Nunito, sans-serif" font-size="14" opacity="1">· 어떤 것도 import 금지</text>
  <path d="M20,810 L467,810" fill="none" stroke="#555555" stroke-width="1" opacity="1"/>
  <text x="30" y="833.6" fill="#e5e5e5" font-family="Nunito, sans-serif" font-size="14" opacity="1">└─────────────────────────────────┘</text>
  <path d="M20,852 L467,852" fill="none" stroke="#555555" stroke-width="1" opacity="1"/>
  <text x="30" y="875.6" fill="#f59e0b" font-family="Nunito, sans-serif" font-size="14" opacity="1">★ 역방향 import = 순환 의존성 위험 = 구조 붕괴</text>
</svg>