<svg xmlns="http://www.w3.org/2000/svg" width="695" height="415" viewBox="20 -20 695 415">
  <style>
    @import url('https://fonts.googleapis.com/css2?family=Nunito:wght@400;600;700&amp;display=swap');
  </style>
  <rect x="20" y="-20" width="695" height="415" rx="12" fill="#141414"/>
  <text x="100" y="31.6" fill="#e5e5e5" font-family="Nunito, sans-serif" font-size="24" opacity="1">useReducer 개념 지도</text>
  <rect x="50" y="60" width="180" height="35" rx="5.25" fill="#5c1a1a" stroke="#ef4444" stroke-width="1" opacity="1"/>
  <text x="140" y="81" text-anchor="middle" fill="#ef4444" font-family="Nunito, sans-serif" font-size="14">useState 한계</text>
  <rect x="320" y="60" width="220" height="35" rx="5.25" fill="#1e3a5f" stroke="#4a9eed" stroke-width="1" opacity="1"/>
  <text x="430" y="81" text-anchor="middle" fill="#e5e5e5" font-family="Nunito, sans-serif" font-size="14">useReducer 등장 배경</text>
  <rect x="370" y="130" width="160" height="35" rx="5.25" fill="#1a4d2e" stroke="#22c55e" stroke-width="2" opacity="1"/>
  <text x="450" y="151.25" text-anchor="middle" fill="#22c55e" font-family="Nunito, sans-serif" font-size="15">useReducer 구조</text>
  <rect x="100" y="200" width="110" height="30" rx="4.5" fill="#1a4d4d" stroke="#06b6d4" stroke-width="1" opacity="1"/>
  <text x="155" y="218.5" text-anchor="middle" fill="#e5e5e5" font-family="Nunito, sans-serif" font-size="14">Action</text>
  <rect x="260" y="200" width="110" height="30" rx="4.5" fill="#1a4d4d" stroke="#06b6d4" stroke-width="1" opacity="1"/>
  <text x="315" y="218.5" text-anchor="middle" fill="#e5e5e5" font-family="Nunito, sans-serif" font-size="14">Reducer</text>
  <rect x="420" y="200" width="110" height="30" rx="4.5" fill="#1a4d4d" stroke="#06b6d4" stroke-width="1" opacity="1"/>
  <text x="475" y="218.5" text-anchor="middle" fill="#e5e5e5" font-family="Nunito, sans-serif" font-size="14">State</text>
  <text x="95" y="248.8" fill="#a0a0a0" font-family="Nunito, sans-serif" font-size="12" opacity="1">dispatch 호출</text>
  <text x="260" y="248.8" fill="#a0a0a0" font-family="Nunito, sans-serif" font-size="12" opacity="1">순수 함수</text>
  <text x="420" y="248.8" fill="#a0a0a0" font-family="Nunito, sans-serif" font-size="12" opacity="1">불변 업데이트</text>
  <rect x="130" y="275" width="160" height="30" rx="4.5" fill="#5c3d1a" stroke="#f59e0b" stroke-width="1" opacity="1"/>
  <text x="210" y="293.25" text-anchor="middle" fill="#e5e5e5" font-family="Nunito, sans-serif" font-size="13">실전 패턴</text>
  <rect x="340" y="275" width="180" height="30" rx="4.5" fill="#2d1b69" stroke="#8b5cf6" stroke-width="1" opacity="1"/>
  <text x="430" y="293.25" text-anchor="middle" fill="#8b5cf6" font-family="Nunito, sans-serif" font-size="13">FSM 설계</text>
  <rect x="160" y="330" width="300" height="35" rx="5.25" fill="#1a4d4d" stroke="#06b6d4" stroke-width="1" opacity="1"/>
  <text x="310" y="351" text-anchor="middle" fill="#e5e5e5" font-family="Nunito, sans-serif" font-size="14">useReducer + useContext 미리보기</text>
</svg>