<svg xmlns="http://www.w3.org/2000/svg" width="600" height="545" viewBox="20 -20 545 495">
  <style>
    @import url('https://fonts.googleapis.com/css2?family=Nunito:wght@400;600;700&amp;display=swap');
  </style>
  <rect x="20" y="-20" width="545" height="495" rx="12" fill="#141414"/>
  <text x="100" y="31.6" fill="#e5e5e5" font-family="Nunito, sans-serif" font-size="24" opacity="1">useRef 개념 지도</text>
  <rect x="50" y="60" width="160" height="35" rx="5.25" fill="#1e3a5f" stroke="#4a9eed" stroke-width="1" opacity="1"/>
  <text x="130" y="81" text-anchor="middle" fill="#e5e5e5" font-family="Nunito, sans-serif" font-size="14">렌더링 사이클</text>
  <rect x="300" y="60" width="220" height="35" rx="5.25" fill="#1e3a5f" stroke="#4a9eed" stroke-width="1" opacity="1"/>
  <text x="410" y="81" text-anchor="middle" fill="#e5e5e5" font-family="Nunito, sans-serif" font-size="14">렌더링 무관 값의 필요성</text>
  <rect x="360" y="130" width="110" height="35" rx="5.25" fill="#1a4d2e" stroke="#22c55e" stroke-width="2" opacity="1"/>
  <text x="415" y="151.5" text-anchor="middle" fill="#22c55e" font-family="Nunito, sans-serif" font-size="16">useRef</text>
  <rect x="180" y="195" width="130" height="30" rx="4.5" fill="#1a4d4d" stroke="#06b6d4" stroke-width="1" opacity="1"/>
  <text x="245" y="213.25" text-anchor="middle" fill="#e5e5e5" font-family="Nunito, sans-serif" font-size="13">DOM 참조</text>
  <rect x="370" y="195" width="120" height="30" rx="4.5" fill="#1a4d4d" stroke="#06b6d4" stroke-width="1" opacity="1"/>
  <text x="430" y="213.25" text-anchor="middle" fill="#e5e5e5" font-family="Nunito, sans-serif" font-size="13">값 저장</text>
  <text x="170" y="243.8" fill="#a0a0a0" font-family="Nunito, sans-serif" font-size="12" opacity="1">ref 속성 연결 / Commit Phase</text>
  <text x="365" y="243.8" fill="#a0a0a0" font-family="Nunito, sans-serif" font-size="12" opacity="1">타이머 ID / 이전 값 / 인스턴스</text>
  <rect x="150" y="265" width="200" height="30" rx="4.5" fill="#2d1b69" stroke="#8b5cf6" stroke-width="1" opacity="1"/>
  <text x="250" y="283.25" text-anchor="middle" fill="#8b5cf6" font-family="Nunito, sans-serif" font-size="13">forwardRef / React 19</text>
  <rect x="150" y="305" width="200" height="30" rx="4.5" fill="#2d1b69" stroke="#8b5cf6" stroke-width="1" opacity="1"/>
  <text x="250" y="323.25" text-anchor="middle" fill="#8b5cf6" font-family="Nunito, sans-serif" font-size="13">useImperativeHandle</text>
  <rect x="120" y="360" width="320" height="35" rx="5.25" fill="#5c3d1a" stroke="#f59e0b" stroke-width="1" opacity="1"/>
  <text x="280" y="381" text-anchor="middle" fill="#f59e0b" font-family="Nunito, sans-serif" font-size="14">useRef vs useState 선택 기준</text>
  <rect x="200" y="415" width="200" height="30" rx="4.5" fill="#1a4d4d" stroke="#06b6d4" stroke-width="1" opacity="1"/>
  <text x="300" y="433.25" text-anchor="middle" fill="#e5e5e5" font-family="Nunito, sans-serif" font-size="13">Stale Closure 해결</text>
</svg>