<svg xmlns="http://www.w3.org/2000/svg" width="630" height="305" viewBox="10 -15 630 305">
  <style>
    @import url('https://fonts.googleapis.com/css2?family=Nunito:wght@400;600;700&amp;display=swap');
  </style>
  <rect x="10" y="-15" width="630" height="305" rx="12" fill="#141414"/>
  <text x="170" y="34.8" fill="#e5e5e5" font-family="Nunito, sans-serif" font-size="22" opacity="1">원칙 간 연결 구조</text>
  <rect x="40" y="55" width="220" height="40" rx="6" fill="#1e3a5f" stroke="#4a9eed" stroke-width="2" opacity="1"/>
  <text x="150" y="78.5" text-anchor="middle" fill="#e5e5e5" font-family="Nunito, sans-serif" font-size="14">선언적 사고</text>
  <defs><marker id="arrow-a_820" markerWidth="10" markerHeight="7" refX="9" refY="3.5" orient="auto"><polygon points="0 0, 10 3.5, 0 7" fill="#22c55e"/></marker></defs>
  <path d="M260,75 L360,75" fill="none" stroke="#22c55e" stroke-width="2" opacity="1" marker-end="url(#arrow-a_820)"/>
  <rect x="380" y="55" width="230" height="40" rx="6" fill="#1a4d2e" stroke="#22c55e" stroke-width="2" opacity="1"/>
  <text x="495" y="78.5" text-anchor="middle" fill="#e5e5e5" font-family="Nunito, sans-serif" font-size="14">사용자 관점 테스트</text>
  <rect x="40" y="110" width="220" height="40" rx="6" fill="#2d1b69" stroke="#8b5cf6" stroke-width="2" opacity="1"/>
  <text x="150" y="133.5" text-anchor="middle" fill="#e5e5e5" font-family="Nunito, sans-serif" font-size="14">관심사 분리</text>
  <defs><marker id="arrow-a_825" markerWidth="10" markerHeight="7" refX="9" refY="3.5" orient="auto"><polygon points="0 0, 10 3.5, 0 7" fill="#22c55e"/></marker></defs>
  <path d="M260,130 L360,130" fill="none" stroke="#22c55e" stroke-width="2" opacity="1" marker-end="url(#arrow-a_825)"/>
  <rect x="380" y="110" width="230" height="40" rx="6" fill="#1a4d4d" stroke="#06b6d4" stroke-width="2" opacity="1"/>
  <text x="495" y="133.5" text-anchor="middle" fill="#e5e5e5" font-family="Nunito, sans-serif" font-size="14">자동화 가능성 증가</text>
  <rect x="40" y="165" width="220" height="40" rx="6" fill="#5c3d1a" stroke="#f59e0b" stroke-width="2" opacity="1"/>
  <text x="150" y="188.5" text-anchor="middle" fill="#e5e5e5" font-family="Nunito, sans-serif" font-size="14">타입 안전성</text>
  <defs><marker id="arrow-a_830" markerWidth="10" markerHeight="7" refX="9" refY="3.5" orient="auto"><polygon points="0 0, 10 3.5, 0 7" fill="#22c55e"/></marker></defs>
  <path d="M260,185 L360,185" fill="none" stroke="#22c55e" stroke-width="2" opacity="1" marker-end="url(#arrow-a_830)"/>
  <rect x="380" y="165" width="230" height="40" rx="6" fill="#1a4d2e" stroke="#22c55e" stroke-width="2" opacity="1"/>
  <text x="495" y="188.5" text-anchor="middle" fill="#e5e5e5" font-family="Nunito, sans-serif" font-size="14">리팩토링 안전성</text>
  <rect x="40" y="220" width="220" height="40" rx="6" fill="#5c1a1a" stroke="#ef4444" stroke-width="2" opacity="1"/>
  <text x="150" y="243.5" text-anchor="middle" fill="#e5e5e5" font-family="Nunito, sans-serif" font-size="14">측정 우선 최적화</text>
  <defs><marker id="arrow-a_835" markerWidth="10" markerHeight="7" refX="9" refY="3.5" orient="auto"><polygon points="0 0, 10 3.5, 0 7" fill="#22c55e"/></marker></defs>
  <path d="M260,240 L360,240" fill="none" stroke="#22c55e" stroke-width="2" opacity="1" marker-end="url(#arrow-a_835)"/>
  <rect x="380" y="220" width="230" height="40" rx="6" fill="#1e3a5f" stroke="#4a9eed" stroke-width="2" opacity="1"/>
  <text x="495" y="243.5" text-anchor="middle" fill="#e5e5e5" font-family="Nunito, sans-serif" font-size="14">프로덕션 마인드셋</text>
</svg>