<svg xmlns="http://www.w3.org/2000/svg" width="610" height="477" viewBox="20 -20 610 476.8">
  <style>
    @import url('https://fonts.googleapis.com/css2?family=Nunito:wght@400;600;700&amp;display=swap');
  </style>
  <rect x="20" y="-20" width="610" height="476.8" rx="12" fill="#141414"/>
  <text x="130" y="29.8" fill="#e5e5e5" font-family="Nunito, sans-serif" font-size="22" opacity="1">프로젝트 진행 체크리스트</text>
  <rect x="50" y="50" width="550" height="42" rx="6.3" fill="#1e3a5f" stroke="#4a9eed" stroke-width="2" opacity="1"/>
  <text x="325" y="74.5" text-anchor="middle" fill="#e5e5e5" font-family="Nunito, sans-serif" font-size="14">1단계: 설계 (1~2일)</text>
  <text x="70" y="90.8" fill="#a0a0a0" font-family="Nunito, sans-serif" font-size="12" opacity="1">요구사항 정의, 기술 스택 선택, 폴더 구조, 데이터 모델</text>
  <defs><marker id="arrow-a_919" markerWidth="10" markerHeight="7" refX="9" refY="3.5" orient="auto"><polygon points="0 0, 10 3.5, 0 7" fill="#555555"/></marker></defs>
  <path d="M325,92 L325,102" fill="none" stroke="#555555" stroke-width="2" opacity="1" marker-end="url(#arrow-a_919)"/>
  <rect x="50" y="105" width="550" height="42" rx="6.3" fill="#1a4d4d" stroke="#06b6d4" stroke-width="2" opacity="1"/>
  <text x="325" y="129.5" text-anchor="middle" fill="#e5e5e5" font-family="Nunito, sans-serif" font-size="14">2단계: 기반 구축 (1~2일)</text>
  <text x="70" y="145.8" fill="#a0a0a0" font-family="Nunito, sans-serif" font-size="12" opacity="1">프로젝트 생성, ESLint/Prettier, Tailwind, Path Alias</text>
  <defs><marker id="arrow-a_923" markerWidth="10" markerHeight="7" refX="9" refY="3.5" orient="auto"><polygon points="0 0, 10 3.5, 0 7" fill="#555555"/></marker></defs>
  <path d="M325,147 L325,157" fill="none" stroke="#555555" stroke-width="2" opacity="1" marker-end="url(#arrow-a_923)"/>
  <rect x="50" y="160" width="550" height="42" rx="6.3" fill="#1a4d2e" stroke="#22c55e" stroke-width="2" opacity="1"/>
  <text x="325" y="184.5" text-anchor="middle" fill="#e5e5e5" font-family="Nunito, sans-serif" font-size="14">3단계: 핵심 기능 (5~10일)</text>
  <text x="70" y="200.8" fill="#a0a0a0" font-family="Nunito, sans-serif" font-size="12" opacity="1">인증, CRUD, TanStack Query, RHF+Zod, 에러/로딩</text>
  <defs><marker id="arrow-a_927" markerWidth="10" markerHeight="7" refX="9" refY="3.5" orient="auto"><polygon points="0 0, 10 3.5, 0 7" fill="#555555"/></marker></defs>
  <path d="M325,202 L325,212" fill="none" stroke="#555555" stroke-width="2" opacity="1" marker-end="url(#arrow-a_927)"/>
  <rect x="50" y="215" width="550" height="42" rx="6.3" fill="#2d1b69" stroke="#8b5cf6" stroke-width="2" opacity="1"/>
  <text x="325" y="239.5" text-anchor="middle" fill="#e5e5e5" font-family="Nunito, sans-serif" font-size="14">4단계: 품질 향상 (2~3일)</text>
  <text x="70" y="255.8" fill="#a0a0a0" font-family="Nunito, sans-serif" font-size="12" opacity="1">TypeScript strict, 반응형, 다크모드, 접근성, 성능</text>
  <defs><marker id="arrow-a_931" markerWidth="10" markerHeight="7" refX="9" refY="3.5" orient="auto"><polygon points="0 0, 10 3.5, 0 7" fill="#555555"/></marker></defs>
  <path d="M325,257 L325,267" fill="none" stroke="#555555" stroke-width="2" opacity="1" marker-end="url(#arrow-a_931)"/>
  <rect x="50" y="270" width="550" height="42" rx="6.3" fill="#5c3d1a" stroke="#f59e0b" stroke-width="2" opacity="1"/>
  <text x="325" y="294.5" text-anchor="middle" fill="#e5e5e5" font-family="Nunito, sans-serif" font-size="14">5단계: 테스트 (2~3일)</text>
  <text x="70" y="310.8" fill="#a0a0a0" font-family="Nunito, sans-serif" font-size="12" opacity="1">RTL+MSW, Custom Hook 테스트, Playwright E2E</text>
  <defs><marker id="arrow-a_935" markerWidth="10" markerHeight="7" refX="9" refY="3.5" orient="auto"><polygon points="0 0, 10 3.5, 0 7" fill="#555555"/></marker></defs>
  <path d="M325,312 L325,322" fill="none" stroke="#555555" stroke-width="2" opacity="1" marker-end="url(#arrow-a_935)"/>
  <rect x="50" y="325" width="550" height="42" rx="6.3" fill="#5c1a1a" stroke="#ef4444" stroke-width="2" opacity="1"/>
  <text x="325" y="349.5" text-anchor="middle" fill="#e5e5e5" font-family="Nunito, sans-serif" font-size="14">6단계: 배포+모니터링 (1~2일)</text>
  <text x="70" y="365.8" fill="#a0a0a0" font-family="Nunito, sans-serif" font-size="12" opacity="1">GitHub Actions CI, Vercel, Sentry, Source Map</text>
  <defs><marker id="arrow-a_939" markerWidth="10" markerHeight="7" refX="9" refY="3.5" orient="auto"><polygon points="0 0, 10 3.5, 0 7" fill="#555555"/></marker></defs>
  <path d="M325,367 L325,377" fill="none" stroke="#555555" stroke-width="2" opacity="1" marker-end="url(#arrow-a_939)"/>
  <rect x="50" y="380" width="550" height="42" rx="6.3" fill="#555555" stroke="#a0a0a0" stroke-width="2" opacity="1"/>
  <text x="325" y="404.5" text-anchor="middle" fill="#e5e5e5" font-family="Nunito, sans-serif" font-size="14">7단계: 문서화 (1일)</text>
  <text x="70" y="420.8" fill="#a0a0a0" font-family="Nunito, sans-serif" font-size="12" opacity="1">README, 아키텍처 다이어그램, 기술 결정 근거</text>
</svg>