<svg xmlns="http://www.w3.org/2000/svg" width="743" height="1059" viewBox="-30 -20 743 1058.6">
  <style>
    @import url('https://fonts.googleapis.com/css2?family=Nunito:wght@400;600;700&amp;display=swap');
  </style>
  <rect x="-30" y="-20" width="743" height="1058.6" rx="12" fill="#141414"/>
  <text x="30" y="29.8" fill="#e5e5e5" font-family="Nunito, sans-serif" font-size="22" opacity="1">TanStack Query 아키텍처</text>
  <rect x="20" y="50" width="399" height="42" rx="6.3" fill="#2d1b69" stroke="#8b5cf6" stroke-width="1.5" opacity="1"/>
  <text x="219.5" y="74.75" text-anchor="middle" fill="#e5e5e5" font-family="Nunito, sans-serif" font-size="15">TanStack Query 아키텍처</text>
  <path d="M20,96 L663,96" fill="none" stroke="#555555" stroke-width="1" opacity="1"/>
  <text x="30" y="119.6" fill="#e5e5e5" font-family="Nunito, sans-serif" font-size="14" opacity="1">┌───────────────────────────────────────┐</text>
  <path d="M20,138 L663,138" fill="none" stroke="#555555" stroke-width="1" opacity="1"/>
  <text x="30" y="161.6" fill="#e5e5e5" font-family="Nunito, sans-serif" font-size="14" opacity="1">QueryClientProvider</text>
  <path d="M20,180 L663,180" fill="none" stroke="#555555" stroke-width="1" opacity="1"/>
  <text x="30" y="203.6" fill="#e5e5e5" font-family="Nunito, sans-serif" font-size="14" opacity="1">(앱 최상위에서 QueryClient 제공)</text>
  <path d="M20,222 L663,222" fill="none" stroke="#555555" stroke-width="1" opacity="1"/>
  <text x="30" y="245.6" fill="#e5e5e5" font-family="Nunito, sans-serif" font-size="14" opacity="1">┌───────────┐  ┌───────────┐</text>
  <path d="M20,264 L663,264" fill="none" stroke="#555555" stroke-width="1" opacity="1"/>
  <text x="30" y="287.6" fill="#e5e5e5" font-family="Nunito, sans-serif" font-size="14" opacity="1">Component</text>
  <text x="431" y="287.6" fill="#e5e5e5" font-family="Nunito, sans-serif" font-size="14" opacity="1">Component</text>
  <path d="M20,306 L663,306" fill="none" stroke="#555555" stroke-width="1" opacity="1"/>
  <text x="30" y="329.6" fill="#e5e5e5" font-family="Nunito, sans-serif" font-size="14" opacity="1">useQuery</text>
  <text x="431" y="329.6" fill="#e5e5e5" font-family="Nunito, sans-serif" font-size="14" opacity="1">useQuery</text>
  <path d="M20,348 L663,348" fill="none" stroke="#555555" stroke-width="1" opacity="1"/>
  <text x="30" y="371.6" fill="#e5e5e5" font-family="Nunito, sans-serif" font-size="14" opacity="1">key:</text>
  <text x="431" y="371.6" fill="#e5e5e5" font-family="Nunito, sans-serif" font-size="14" opacity="1">key:</text>
  <text x="544" y="371.6" fill="#e5e5e5" font-family="Nunito, sans-serif" font-size="14" opacity="1">같은 queryKey</text>
  <path d="M20,390 L663,390" fill="none" stroke="#555555" stroke-width="1" opacity="1"/>
  <text x="30" y="413.6" fill="#e5e5e5" font-family="Nunito, sans-serif" font-size="14" opacity="1">['users']</text>
  <text x="431" y="413.6" fill="#e5e5e5" font-family="Nunito, sans-serif" font-size="14" opacity="1">['users']</text>
  <text x="544" y="413.6" fill="#e5e5e5" font-family="Nunito, sans-serif" font-size="14" opacity="1">= 같은 캐시 공유</text>
  <path d="M20,432 L663,432" fill="none" stroke="#555555" stroke-width="1" opacity="1"/>
  <text x="30" y="455.6" fill="#e5e5e5" font-family="Nunito, sans-serif" font-size="14" opacity="1">└─────┬─────┘  └─────┬─────┘</text>
  <path d="M20,474 L663,474" fill="none" stroke="#555555" stroke-width="1" opacity="1"/>
  <text x="30" y="497.6" fill="#e5e5e5" font-family="Nunito, sans-serif" font-size="14" opacity="1">└───────┬───────┘</text>
  <path d="M20,516 L663,516" fill="none" stroke="#555555" stroke-width="1" opacity="1"/>
  <text x="30" y="539.6" fill="#e5e5e5" font-family="Nunito, sans-serif" font-size="14" opacity="1">▼</text>
  <path d="M20,558 L663,558" fill="none" stroke="#555555" stroke-width="1" opacity="1"/>
  <text x="30" y="581.6" fill="#e5e5e5" font-family="Nunito, sans-serif" font-size="14" opacity="1">┌─────────────────────────────┐</text>
  <path d="M20,600 L663,600" fill="none" stroke="#555555" stroke-width="1" opacity="1"/>
  <text x="30" y="623.6" fill="#e5e5e5" font-family="Nunito, sans-serif" font-size="14" opacity="1">QueryClient (캐시 저장소)</text>
  <path d="M20,642 L663,642" fill="none" stroke="#555555" stroke-width="1" opacity="1"/>
  <text x="30" y="665.6" fill="#e5e5e5" font-family="Nunito, sans-serif" font-size="14" opacity="1">['users'] → { data, ... }</text>
  <path d="M20,684 L663,684" fill="none" stroke="#555555" stroke-width="1" opacity="1"/>
  <text x="30" y="707.6" fill="#e5e5e5" font-family="Nunito, sans-serif" font-size="14" opacity="1">['users', 42] → { ... }</text>
  <path d="M20,726 L663,726" fill="none" stroke="#555555" stroke-width="1" opacity="1"/>
  <text x="30" y="749.6" fill="#e5e5e5" font-family="Nunito, sans-serif" font-size="14" opacity="1">['products'] → { ... }</text>
  <path d="M20,768 L663,768" fill="none" stroke="#555555" stroke-width="1" opacity="1"/>
  <text x="30" y="791.6" fill="#e5e5e5" font-family="Nunito, sans-serif" font-size="14" opacity="1">└─────────────────────────────┘</text>
  <path d="M20,810 L663,810" fill="none" stroke="#555555" stroke-width="1" opacity="1"/>
  <text x="30" y="833.6" fill="#e5e5e5" font-family="Nunito, sans-serif" font-size="14" opacity="1">└───────────────────────────────────────┘</text>
  <path d="M20,852 L663,852" fill="none" stroke="#555555" stroke-width="1" opacity="1"/>
  <text x="30" y="875.6" fill="#e5e5e5" font-family="Nunito, sans-serif" font-size="14" opacity="1">핵심:</text>
  <path d="M20,894 L663,894" fill="none" stroke="#555555" stroke-width="1" opacity="1"/>
  <text x="30" y="917.6" fill="#e5e5e5" font-family="Nunito, sans-serif" font-size="14" opacity="1">· 여러 컴포넌트가 같은 queryKey를 사용하면 캐시를 공유</text>
  <path d="M20,936 L663,936" fill="none" stroke="#555555" stroke-width="1" opacity="1"/>
  <text x="30" y="959.6" fill="#e5e5e5" font-family="Nunito, sans-serif" font-size="14" opacity="1">· 요청은 한 번만, 결과는 모든 구독자에게 전달</text>
  <path d="M20,978 L663,978" fill="none" stroke="#555555" stroke-width="1" opacity="1"/>
  <text x="30" y="1001.6" fill="#e5e5e5" font-family="Nunito, sans-serif" font-size="14" opacity="1">· 컴포넌트가 언마운트되어도 gcTime 동안 캐시 유지</text>
</svg>