<svg xmlns="http://www.w3.org/2000/svg" width="820" height="380" viewBox="-20 -20 820 380">
  <style>
    @import url('https://fonts.googleapis.com/css2?family=Nunito:wght@400;600;700&amp;display=swap');
  </style>
  <rect x="-20" y="-20" width="820" height="380" rx="12" fill="#141414"/>
  <text x="230" y="35.2" fill="#e5e5e5" font-family="Nunito, sans-serif" font-size="28" opacity="1">Flutter Form 시스템</text>
  <rect x="300" y="70" width="200" height="50" rx="7.5" fill="#1e3a5f" stroke="#4a9eed" stroke-width="2" opacity="1"/>
  <text x="400" y="99.5" text-anchor="middle" fill="#e5e5e5" font-family="Nunito, sans-serif" font-size="18">Form 시스템</text>
  <defs><marker id="arrow-a1" markerWidth="10" markerHeight="7" refX="9" refY="3.5" orient="auto"><polygon points="0 0, 10 3.5, 0 7" fill="#555555"/></marker></defs>
  <path d="M340,120 L140,170" fill="none" stroke="#555555" stroke-width="2" opacity="1" marker-end="url(#arrow-a1)"/>
  <defs><marker id="arrow-a2" markerWidth="10" markerHeight="7" refX="9" refY="3.5" orient="auto"><polygon points="0 0, 10 3.5, 0 7" fill="#555555"/></marker></defs>
  <path d="M400,120 L400,170" fill="none" stroke="#555555" stroke-width="2" opacity="1" marker-end="url(#arrow-a2)"/>
  <defs><marker id="arrow-a3" markerWidth="10" markerHeight="7" refX="9" refY="3.5" orient="auto"><polygon points="0 0, 10 3.5, 0 7" fill="#555555"/></marker></defs>
  <path d="M460,120 L660,170" fill="none" stroke="#555555" stroke-width="2" opacity="1" marker-end="url(#arrow-a3)"/>
  <rect x="40" y="170" width="200" height="50" rx="7.5" fill="#1a4d2e" stroke="#22c55e" stroke-width="2" opacity="1"/>
  <text x="140" y="199.5" text-anchor="middle" fill="#e5e5e5" font-family="Nunito, sans-serif" font-size="18">TextField</text>
  <rect x="300" y="170" width="200" height="50" rx="7.5" fill="#2d1b69" stroke="#8b5cf6" stroke-width="2" opacity="1"/>
  <text x="400" y="199.5" text-anchor="middle" fill="#e5e5e5" font-family="Nunito, sans-serif" font-size="18">TextFormField</text>
  <rect x="560" y="170" width="200" height="50" rx="7.5" fill="#5c3d1a" stroke="#f59e0b" stroke-width="2" opacity="1"/>
  <text x="660" y="199.5" text-anchor="middle" fill="#e5e5e5" font-family="Nunito, sans-serif" font-size="18">Form</text>
  <rect x="10" y="250" width="150" height="35" rx="5.25" fill="#1a4d2e" stroke="#22c55e" stroke-width="1" opacity="1"/>
  <text x="85" y="270.5" text-anchor="middle" fill="#e5e5e5" font-family="Nunito, sans-serif" font-size="12">TextEditingController</text>
  <rect x="10" y="295" width="150" height="35" rx="5.25" fill="#1a4d2e" stroke="#22c55e" stroke-width="1" opacity="1"/>
  <text x="85" y="315.5" text-anchor="middle" fill="#e5e5e5" font-family="Nunito, sans-serif" font-size="12">InputDecoration</text>
  <rect x="300" y="250" width="100" height="35" rx="5.25" fill="#2d1b69" stroke="#8b5cf6" stroke-width="1" opacity="1"/>
  <text x="350" y="270.5" text-anchor="middle" fill="#e5e5e5" font-family="Nunito, sans-serif" font-size="12">Form 연동</text>
  <rect x="300" y="295" width="100" height="35" rx="5.25" fill="#2d1b69" stroke="#8b5cf6" stroke-width="1" opacity="1"/>
  <text x="350" y="315.5" text-anchor="middle" fill="#e5e5e5" font-family="Nunito, sans-serif" font-size="12">validator</text>
  <rect x="550" y="250" width="220" height="35" rx="5.25" fill="#5c3d1a" stroke="#f59e0b" stroke-width="1" opacity="1"/>
  <text x="660" y="270.5" text-anchor="middle" fill="#e5e5e5" font-family="Nunito, sans-serif" font-size="12">GlobalKey → FormState</text>
  <rect x="550" y="295" width="70" height="35" rx="5.25" fill="#5c3d1a" stroke="#f59e0b" stroke-width="1" opacity="1"/>
  <text x="585" y="315.25" text-anchor="middle" fill="#e5e5e5" font-family="Nunito, sans-serif" font-size="11">validate()</text>
  <rect x="625" y="295" width="65" height="35" rx="5.25" fill="#5c3d1a" stroke="#f59e0b" stroke-width="1" opacity="1"/>
  <text x="657.5" y="315.25" text-anchor="middle" fill="#e5e5e5" font-family="Nunito, sans-serif" font-size="11">save()</text>
  <rect x="695" y="295" width="65" height="35" rx="5.25" fill="#5c3d1a" stroke="#f59e0b" stroke-width="1" opacity="1"/>
  <text x="727.5" y="315.25" text-anchor="middle" fill="#e5e5e5" font-family="Nunito, sans-serif" font-size="11">reset()</text>
</svg>