<svg xmlns="http://www.w3.org/2000/svg" width="870" height="339" viewBox="-40 -20 870 338.8">
  <style>
    @import url('https://fonts.googleapis.com/css2?family=Nunito:wght@400;600;700&amp;display=swap');
  </style>
  <rect x="-40" y="-20" width="870" height="338.8" rx="12" fill="#141414"/>
  <text x="200" y="35.2" fill="#e5e5e5" font-family="Nunito, sans-serif" font-size="28" opacity="1">렌더링 최적화 전략</text>
  <rect x="310" y="70" width="160" height="50" rx="7.5" fill="#1e3a5f" stroke="#4a9eed" stroke-width="2" opacity="1"/>
  <text x="390" y="100" text-anchor="middle" fill="#e5e5e5" font-family="Nunito, sans-serif" font-size="20">최적화</text>
  <defs><marker id="arrow-a1" markerWidth="10" markerHeight="7" refX="9" refY="3.5" orient="auto"><polygon points="0 0, 10 3.5, 0 7" fill="#22c55e"/></marker></defs>
  <path d="M340,120 L90,160" fill="none" stroke="#22c55e" stroke-width="2" opacity="1" marker-end="url(#arrow-a1)"/>
  <defs><marker id="arrow-a2" markerWidth="10" markerHeight="7" refX="9" refY="3.5" orient="auto"><polygon points="0 0, 10 3.5, 0 7" fill="#8b5cf6"/></marker></defs>
  <path d="M370,120 L310,160" fill="none" stroke="#8b5cf6" stroke-width="2" opacity="1" marker-end="url(#arrow-a2)"/>
  <defs><marker id="arrow-a3" markerWidth="10" markerHeight="7" refX="9" refY="3.5" orient="auto"><polygon points="0 0, 10 3.5, 0 7" fill="#f59e0b"/></marker></defs>
  <path d="M410,120 L490,160" fill="none" stroke="#f59e0b" stroke-width="2" opacity="1" marker-end="url(#arrow-a3)"/>
  <defs><marker id="arrow-a4" markerWidth="10" markerHeight="7" refX="9" refY="3.5" orient="auto"><polygon points="0 0, 10 3.5, 0 7" fill="#06b6d4"/></marker></defs>
  <path d="M440,120 L690,160" fill="none" stroke="#06b6d4" stroke-width="2" opacity="1" marker-end="url(#arrow-a4)"/>
  <rect x="-10" y="170" width="180" height="50" rx="7.5" fill="#1a4d2e" stroke="#22c55e" stroke-width="2" opacity="1"/>
  <text x="80" y="199" text-anchor="middle" fill="#e5e5e5" font-family="Nunito, sans-serif" font-size="16">Rebuild 최소화</text>
  <text x="-10" y="242.6" fill="#22c55e" font-family="Nunito, sans-serif" font-size="14" opacity="1">· const 위젯</text>
  <text x="-10" y="262.2" fill="#22c55e" font-family="Nunito, sans-serif" font-size="14" opacity="1">· 위젯 분리</text>
  <text x="-10" y="281.8" fill="#22c55e" font-family="Nunito, sans-serif" font-size="14" opacity="1">· ValueNotifier</text>
  <rect x="220" y="170" width="180" height="50" rx="7.5" fill="#2d1b69" stroke="#8b5cf6" stroke-width="2" opacity="1"/>
  <text x="310" y="199" text-anchor="middle" fill="#e5e5e5" font-family="Nunito, sans-serif" font-size="16">Repaint 최소화</text>
  <text x="220" y="242.6" fill="#8b5cf6" font-family="Nunito, sans-serif" font-size="14" opacity="1">· RepaintBoundary</text>
  <rect x="420" y="170" width="180" height="50" rx="7.5" fill="#5c3d1a" stroke="#f59e0b" stroke-width="2" opacity="1"/>
  <text x="510" y="199" text-anchor="middle" fill="#e5e5e5" font-family="Nunito, sans-serif" font-size="16">목록 최적화</text>
  <text x="420" y="242.6" fill="#f59e0b" font-family="Nunito, sans-serif" font-size="14" opacity="1">· ListView.builder</text>
  <text x="420" y="262.2" fill="#f59e0b" font-family="Nunito, sans-serif" font-size="14" opacity="1">· Sliver</text>
  <text x="420" y="281.8" fill="#f59e0b" font-family="Nunito, sans-serif" font-size="14" opacity="1">· cacheExtent</text>
  <rect x="620" y="170" width="180" height="50" rx="7.5" fill="#1a4d4d" stroke="#06b6d4" stroke-width="2" opacity="1"/>
  <text x="710" y="199" text-anchor="middle" fill="#e5e5e5" font-family="Nunito, sans-serif" font-size="16">DevTools 진단</text>
  <text x="620" y="242.6" fill="#06b6d4" font-family="Nunito, sans-serif" font-size="14" opacity="1">· Performance Overlay</text>
  <text x="620" y="262.2" fill="#06b6d4" font-family="Nunito, sans-serif" font-size="14" opacity="1">· Widget Inspector</text>
</svg>