<svg xmlns="http://www.w3.org/2000/svg" width="640" height="545" viewBox="0 -20 640 545">
  <style>
    @import url('https://fonts.googleapis.com/css2?family=Nunito:wght@400;600;700&amp;display=swap');
  </style>
  <rect x="0" y="-20" width="640" height="545" rx="12" fill="#141414"/>
  <text x="200" y="31.6" fill="#e5e5e5" font-family="Nunito, sans-serif" font-size="24" opacity="1">async/await 실행 흐름</text>
  <rect x="180" y="70" width="240" height="55" rx="8.25" fill="#1e3a5f" stroke="#4a9eed" stroke-width="2" opacity="1"/>
  <text x="300" y="102" text-anchor="middle" fill="#e5e5e5" font-family="Nunito, sans-serif" font-size="18">async 함수 실행</text>
  <defs><marker id="arrow-a1" markerWidth="10" markerHeight="7" refX="9" refY="3.5" orient="auto"><polygon points="0 0, 10 3.5, 0 7" fill="#555555"/></marker></defs>
  <path d="M300,125 L300,160" fill="none" stroke="#555555" stroke-width="2" opacity="1" marker-end="url(#arrow-a1)"/>
  <rect x="195" y="160" width="210" height="55" rx="8.25" fill="#2d1b69" stroke="#8b5cf6" stroke-width="2" opacity="1"/>
  <text x="300" y="192" text-anchor="middle" fill="#e5e5e5" font-family="Nunito, sans-serif" font-size="18">await 만남</text>
  <defs><marker id="arrow-a2_left" markerWidth="10" markerHeight="7" refX="9" refY="3.5" orient="auto"><polygon points="0 0, 10 3.5, 0 7" fill="#555555"/></marker></defs>
  <path d="M230,215 L150,255" fill="none" stroke="#555555" stroke-width="2" opacity="1" marker-end="url(#arrow-a2_left)"/>
  <defs><marker id="arrow-a2_right" markerWidth="10" markerHeight="7" refX="9" refY="3.5" orient="auto"><polygon points="0 0, 10 3.5, 0 7" fill="#555555"/></marker></defs>
  <path d="M370,215 L450,255" fill="none" stroke="#555555" stroke-width="2" opacity="1" marker-end="url(#arrow-a2_right)"/>
  <rect x="30" y="255" width="260" height="55" rx="8.25" fill="#1e3a5f" stroke="#4a9eed" stroke-width="2" opacity="1"/>
  <text x="160" y="286.5" text-anchor="middle" fill="#e5e5e5" font-family="Nunito, sans-serif" font-size="16">Future 등록 (Event Loop)</text>
  <rect x="330" y="255" width="280" height="55" rx="8.25" fill="#1a4d4d" stroke="#06b6d4" stroke-width="2" opacity="1"/>
  <text x="470" y="276.09999999999997" text-anchor="middle" fill="#e5e5e5" font-family="Nunito, sans-serif" font-size="16">제어권 반환</text>
  <text x="470" y="296.9" text-anchor="middle" fill="#e5e5e5" font-family="Nunito, sans-serif" font-size="16">(다른 코드 실행 가능)</text>
  <defs><marker id="arrow-a3" markerWidth="10" markerHeight="7" refX="9" refY="3.5" orient="auto"><polygon points="0 0, 10 3.5, 0 7" fill="#555555"/></marker></defs>
  <path d="M160,310 L300,350" fill="none" stroke="#555555" stroke-width="2" opacity="1" marker-end="url(#arrow-a3)"/>
  <rect x="160" y="350" width="280" height="55" rx="8.25" fill="#5c3d1a" stroke="#f59e0b" stroke-width="2" opacity="1"/>
  <text x="300" y="382" text-anchor="middle" fill="#e5e5e5" font-family="Nunito, sans-serif" font-size="18">Future 완료 이벤트 발생</text>
  <defs><marker id="arrow-a4" markerWidth="10" markerHeight="7" refX="9" refY="3.5" orient="auto"><polygon points="0 0, 10 3.5, 0 7" fill="#555555"/></marker></defs>
  <path d="M300,405 L300,440" fill="none" stroke="#555555" stroke-width="2" opacity="1" marker-end="url(#arrow-a4)"/>
  <rect x="170" y="440" width="260" height="55" rx="8.25" fill="#1a4d2e" stroke="#22c55e" stroke-width="2" opacity="1"/>
  <text x="300" y="472" text-anchor="middle" fill="#e5e5e5" font-family="Nunito, sans-serif" font-size="18">await 이후 코드 재개</text>
</svg>