<svg xmlns="http://www.w3.org/2000/svg" width="770" height="465" viewBox="70 -20 770 465">
  <style>
    @import url('https://fonts.googleapis.com/css2?family=Nunito:wght@400;600;700&amp;display=swap');
  </style>
  <rect x="70" y="-20" width="770" height="465" rx="12" fill="#141414"/>
  <text x="170" y="31.6" fill="#e5e5e5" font-family="Nunito, sans-serif" font-size="24" opacity="1">생성자 선택 흐름도</text>
  <rect x="230" y="55" width="230" height="45" rx="6.75" fill="#555555" stroke="#a0a0a0" stroke-width="2" opacity="1"/>
  <text x="345" y="81.5" text-anchor="middle" fill="#e5e5e5" font-family="Nunito, sans-serif" font-size="16">객체를 생성해야 한다</text>
  <defs><marker id="arrow-a1" markerWidth="10" markerHeight="7" refX="9" refY="3.5" orient="auto"><polygon points="0 0, 10 3.5, 0 7" fill="#555555"/></marker></defs>
  <path d="M345,100 L345,130" fill="none" stroke="#555555" stroke-width="2" opacity="1" marker-end="url(#arrow-a1)"/>
  <rect x="140" y="130" width="410" height="50" rx="0" fill="#1e3a5f" stroke="#4a9eed" stroke-width="2" opacity="1"/>
  <text x="345" y="158.75" text-anchor="middle" fill="#e5e5e5" font-family="Nunito, sans-serif" font-size="15">모든 필드가 final이고 컴파일 타임 값?</text>
  <defs><marker id="arrow-a2_yes" markerWidth="10" markerHeight="7" refX="9" refY="3.5" orient="auto"><polygon points="0 0, 10 3.5, 0 7" fill="#22c55e"/></marker></defs>
  <path d="M550,155 L610,155" fill="none" stroke="#22c55e" stroke-width="2" opacity="1" marker-end="url(#arrow-a2_yes)"/>
  <text x="558" y="148.8" fill="#22c55e" font-family="Nunito, sans-serif" font-size="12" opacity="1">YES</text>
  <rect x="610" y="135" width="150" height="45" rx="6.75" fill="#1a4d2e" stroke="#22c55e" stroke-width="2" opacity="1"/>
  <text x="685" y="161.25" text-anchor="middle" fill="#e5e5e5" font-family="Nunito, sans-serif" font-size="15">const 생성자</text>
  <defs><marker id="arrow-a3_no" markerWidth="10" markerHeight="7" refX="9" refY="3.5" orient="auto"><polygon points="0 0, 10 3.5, 0 7" fill="#ef4444"/></marker></defs>
  <path d="M345,180 L345,210" fill="none" stroke="#ef4444" stroke-width="2" opacity="1" marker-end="url(#arrow-a3_no)"/>
  <text x="352" y="195.8" fill="#ef4444" font-family="Nunito, sans-serif" font-size="12" opacity="1">NO</text>
  <rect x="100" y="210" width="490" height="50" rx="0" fill="#1e3a5f" stroke="#4a9eed" stroke-width="2" opacity="1"/>
  <text x="345" y="238.75" text-anchor="middle" fill="#e5e5e5" font-family="Nunito, sans-serif" font-size="15">기존 인스턴스 재사용/서브클래스 반환?</text>
  <defs><marker id="arrow-a4_yes" markerWidth="10" markerHeight="7" refX="9" refY="3.5" orient="auto"><polygon points="0 0, 10 3.5, 0 7" fill="#22c55e"/></marker></defs>
  <path d="M590,235 L650,235" fill="none" stroke="#22c55e" stroke-width="2" opacity="1" marker-end="url(#arrow-a4_yes)"/>
  <text x="598" y="228.8" fill="#22c55e" font-family="Nunito, sans-serif" font-size="12" opacity="1">YES</text>
  <rect x="650" y="215" width="160" height="45" rx="6.75" fill="#2d1b69" stroke="#8b5cf6" stroke-width="2" opacity="1"/>
  <text x="730" y="241.25" text-anchor="middle" fill="#e5e5e5" font-family="Nunito, sans-serif" font-size="15">factory 생성자</text>
  <defs><marker id="arrow-a5_no" markerWidth="10" markerHeight="7" refX="9" refY="3.5" orient="auto"><polygon points="0 0, 10 3.5, 0 7" fill="#ef4444"/></marker></defs>
  <path d="M345,260 L345,290" fill="none" stroke="#ef4444" stroke-width="2" opacity="1" marker-end="url(#arrow-a5_no)"/>
  <text x="352" y="275.8" fill="#ef4444" font-family="Nunito, sans-serif" font-size="12" opacity="1">NO</text>
  <rect x="150" y="290" width="390" height="50" rx="0" fill="#1e3a5f" stroke="#4a9eed" stroke-width="2" opacity="1"/>
  <text x="345" y="318.75" text-anchor="middle" fill="#e5e5e5" font-family="Nunito, sans-serif" font-size="15">생성 시나리오가 여러 개?</text>
  <defs><marker id="arrow-a6_yes" markerWidth="10" markerHeight="7" refX="9" refY="3.5" orient="auto"><polygon points="0 0, 10 3.5, 0 7" fill="#22c55e"/></marker></defs>
  <path d="M540,315 L600,315" fill="none" stroke="#22c55e" stroke-width="2" opacity="1" marker-end="url(#arrow-a6_yes)"/>
  <text x="548" y="308.8" fill="#22c55e" font-family="Nunito, sans-serif" font-size="12" opacity="1">YES</text>
  <rect x="600" y="295" width="170" height="45" rx="6.75" fill="#5c3d1a" stroke="#f59e0b" stroke-width="2" opacity="1"/>
  <text x="685" y="321.25" text-anchor="middle" fill="#e5e5e5" font-family="Nunito, sans-serif" font-size="15">Named 생성자</text>
  <defs><marker id="arrow-a7_no" markerWidth="10" markerHeight="7" refX="9" refY="3.5" orient="auto"><polygon points="0 0, 10 3.5, 0 7" fill="#ef4444"/></marker></defs>
  <path d="M345,340 L345,370" fill="none" stroke="#ef4444" stroke-width="2" opacity="1" marker-end="url(#arrow-a7_no)"/>
  <text x="352" y="355.8" fill="#ef4444" font-family="Nunito, sans-serif" font-size="12" opacity="1">NO</text>
  <rect x="275" y="370" width="150" height="45" rx="6.75" fill="#1e3a5f" stroke="#4a9eed" stroke-width="2" opacity="1"/>
  <text x="350" y="396.25" text-anchor="middle" fill="#e5e5e5" font-family="Nunito, sans-serif" font-size="15">기본 생성자</text>
</svg>