<svg xmlns="http://www.w3.org/2000/svg" width="700" height="432" viewBox="70 -10 700 432.4">
  <style>
    @import url('https://fonts.googleapis.com/css2?family=Nunito:wght@400;600;700&amp;display=swap');
  </style>
  <rect x="70" y="-10" width="700" height="432.4" rx="12" fill="#141414"/>
  <text x="150" y="45.2" fill="#e5e5e5" font-family="Nunito, sans-serif" font-size="28" opacity="1">AnimationController 동작</text>
  <rect x="100" y="100" width="80" height="50" rx="7.5" fill="#1e3a5f" stroke="#4a9eed" stroke-width="2" opacity="1"/>
  <text x="140" y="130" text-anchor="middle" fill="#e5e5e5" font-family="Nunito, sans-serif" font-size="20">0.0</text>
  <rect x="180" y="110" width="200" height="30" rx="4.5" fill="#555555" stroke="#a0a0a0" stroke-width="1" opacity="1"/>
  <rect x="180" y="110" width="100" height="30" rx="4.5" fill="#2d1b69" stroke="#8b5cf6" stroke-width="1" opacity="1"/>
  <rect x="380" y="100" width="80" height="50" rx="7.5" fill="#2d1b69" stroke="#8b5cf6" stroke-width="2" opacity="1"/>
  <text x="420" y="130" text-anchor="middle" fill="#e5e5e5" font-family="Nunito, sans-serif" font-size="20">0.5</text>
  <rect x="460" y="110" width="200" height="30" rx="4.5" fill="#555555" stroke="#a0a0a0" stroke-width="1" opacity="1"/>
  <rect x="460" y="110" width="200" height="30" rx="4.5" fill="#1a4d2e" stroke="#22c55e" stroke-width="1" opacity="1"/>
  <rect x="660" y="100" width="80" height="50" rx="7.5" fill="#1a4d2e" stroke="#22c55e" stroke-width="2" opacity="1"/>
  <text x="700" y="130" text-anchor="middle" fill="#e5e5e5" font-family="Nunito, sans-serif" font-size="20">1.0</text>
  <defs><marker id="arrow-forward_arrow" markerWidth="10" markerHeight="7" refX="9" refY="3.5" orient="auto"><polygon points="0 0, 10 3.5, 0 7" fill="#4a9eed"/></marker></defs>
  <path d="M140,170 L700,170" fill="none" stroke="#4a9eed" stroke-width="2" opacity="1" marker-end="url(#arrow-forward_arrow)"/>
  <text x="350" y="187.6" fill="#4a9eed" font-family="Nunito, sans-serif" font-size="14" opacity="1">forward()</text>
  <defs><marker id="arrow-reverse_arrow" markerWidth="10" markerHeight="7" refX="9" refY="3.5" orient="auto"><polygon points="0 0, 10 3.5, 0 7" fill="#f59e0b"/></marker></defs>
  <path d="M700,200 L140,200" fill="none" stroke="#f59e0b" stroke-width="2" opacity="1" marker-end="url(#arrow-reverse_arrow)"/>
  <text x="350" y="217.6" fill="#f59e0b" font-family="Nunito, sans-serif" font-size="14" opacity="1">reverse()</text>
  <defs><marker id="arrow-repeat_arrow" markerWidth="10" markerHeight="7" refX="9" refY="3.5" orient="auto"><polygon points="0 0, 10 3.5, 0 7" fill="#8b5cf6"/></marker></defs>
  <path d="M140,240 L700,240" fill="none" stroke="#8b5cf6" stroke-width="2" opacity="1" marker-end="url(#arrow-repeat_arrow)"/>
  <text x="350" y="257.6" fill="#8b5cf6" font-family="Nunito, sans-serif" font-size="14" opacity="1">repeat()</text>
  <defs><marker id="arrow-reset_arrow" markerWidth="10" markerHeight="7" refX="9" refY="3.5" orient="auto"><polygon points="0 0, 10 3.5, 0 7" fill="#ef4444"/></marker></defs>
  <path d="M700,270 L140,270" fill="none" stroke="#ef4444" stroke-width="2" opacity="1" marker-end="url(#arrow-reset_arrow)"/>
  <text x="350" y="287.6" fill="#ef4444" font-family="Nunito, sans-serif" font-size="14" opacity="1">reset()</text>
  <rect x="280" y="310" width="240" height="35" rx="5.25" fill="#555555" stroke="#a0a0a0" stroke-width="1" opacity="1"/>
  <text x="400" y="331.5" text-anchor="middle" fill="#e5e5e5" font-family="Nunito, sans-serif" font-size="16">duration: 500ms</text>
  <text x="100" y="384.4" fill="#a0a0a0" font-family="Nunito, sans-serif" font-size="16" opacity="1">Curves:</text>
  <text x="220" y="382.6" fill="#06b6d4" font-family="Nunito, sans-serif" font-size="14" opacity="1">linear  ·  easeIn  ·  easeOut  ·  bounceOut</text>
</svg>