<svg xmlns="http://www.w3.org/2000/svg" width="760" height="530" viewBox="20 -20 760 530">
  <style>
    @import url('https://fonts.googleapis.com/css2?family=Nunito:wght@400;600;700&amp;display=swap');
  </style>
  <rect x="20" y="-20" width="760" height="530" rx="12" fill="#141414"/>
  <text x="230" y="35.2" fill="#e5e5e5" font-family="Nunito, sans-serif" font-size="28" opacity="1">Hero 애니메이션</text>
  <rect x="50" y="80" width="280" height="400" rx="42" fill="#1e3a5f" stroke="#4a9eed" stroke-width="2" opacity="1"/>
  <text x="100" y="108" fill="#e5e5e5" font-family="Nunito, sans-serif" font-size="20" opacity="1">화면 A (목록)</text>
  <rect x="110" y="140" width="80" height="80" rx="12" fill="#5c3d1a" stroke="#f59e0b" stroke-width="3" opacity="1"/>
  <text x="150" y="184" text-anchor="middle" fill="#e5e5e5" font-family="Nunito, sans-serif" font-size="16">IMG</text>
  <rect x="200" y="150" width="110" height="25" rx="3.75" fill="#555555" stroke="#a0a0a0" stroke-width="1" opacity="1"/>
  <text x="255" y="165.5" text-anchor="middle" fill="#e5e5e5" font-family="Nunito, sans-serif" font-size="12">제목 텍스트</text>
  <rect x="200" y="185" width="110" height="25" rx="3.75" fill="#555555" stroke="#a0a0a0" stroke-width="1" opacity="1"/>
  <text x="255" y="200.5" text-anchor="middle" fill="#e5e5e5" font-family="Nunito, sans-serif" font-size="12">설명 텍스트</text>
  <rect x="110" y="240" width="200" height="50" rx="7.5" fill="#555555" stroke="#a0a0a0" stroke-width="1" opacity="1"/>
  <text x="210" y="268.5" text-anchor="middle" fill="#a0a0a0" font-family="Nunito, sans-serif" font-size="14">다른 항목...</text>
  <rect x="110" y="300" width="200" height="50" rx="7.5" fill="#555555" stroke="#a0a0a0" stroke-width="1" opacity="1"/>
  <text x="210" y="328.5" text-anchor="middle" fill="#a0a0a0" font-family="Nunito, sans-serif" font-size="14">다른 항목...</text>
  <rect x="470" y="80" width="280" height="400" rx="42" fill="#1a4d2e" stroke="#22c55e" stroke-width="2" opacity="1"/>
  <text x="520" y="108" fill="#e5e5e5" font-family="Nunito, sans-serif" font-size="20" opacity="1">화면 B (상세)</text>
  <rect x="510" y="130" width="200" height="180" rx="27" fill="#5c3d1a" stroke="#f59e0b" stroke-width="3" opacity="1"/>
  <text x="610" y="225" text-anchor="middle" fill="#e5e5e5" font-family="Nunito, sans-serif" font-size="20">IMG (확대)</text>
  <rect x="510" y="330" width="200" height="30" rx="4.5" fill="#555555" stroke="#a0a0a0" stroke-width="1" opacity="1"/>
  <text x="610" y="348.5" text-anchor="middle" fill="#e5e5e5" font-family="Nunito, sans-serif" font-size="14">상세 제목</text>
  <rect x="510" y="370" width="200" height="50" rx="7.5" fill="#555555" stroke="#a0a0a0" stroke-width="1" opacity="1"/>
  <text x="610" y="398.5" text-anchor="middle" fill="#a0a0a0" font-family="Nunito, sans-serif" font-size="14">상세 설명 내용...</text>
  <defs><marker id="arrow-hero_arrow" markerWidth="10" markerHeight="7" refX="9" refY="3.5" orient="auto"><polygon points="0 0, 10 3.5, 0 7" fill="#f59e0b"/></marker></defs>
  <path d="M330,200 L400,160 L470,180" fill="none" stroke="#f59e0b" stroke-width="3" opacity="1" marker-end="url(#arrow-hero_arrow)"/>
  <text x="355" y="154.4" fill="#f59e0b" font-family="Nunito, sans-serif" font-size="16" opacity="1">Hero 전환</text>
</svg>