<svg xmlns="http://www.w3.org/2000/svg" width="630" height="380" viewBox="120 -20 630 380">
  <style>
    @import url('https://fonts.googleapis.com/css2?family=Nunito:wght@400;600;700&amp;display=swap');
  </style>
  <rect x="120" y="-20" width="630" height="380" rx="12" fill="#141414"/>
  <text x="220" y="31.6" fill="#e5e5e5" font-family="Nunito, sans-serif" font-size="24" opacity="1">예외 처리 흐름</text>
  <rect x="230" y="60" width="200" height="50" rx="7.5" fill="#1e3a5f" stroke="#4a9eed" stroke-width="2" opacity="1"/>
  <text x="330" y="89" text-anchor="middle" fill="#e5e5e5" font-family="Nunito, sans-serif" font-size="16">try 블록</text>
  <defs><marker id="arrow-a1" markerWidth="10" markerHeight="7" refX="9" refY="3.5" orient="auto"><polygon points="0 0, 10 3.5, 0 7" fill="#555555"/></marker></defs>
  <path d="M330,110 L330,140" fill="none" stroke="#555555" stroke-width="2" opacity="1" marker-end="url(#arrow-a1)"/>
  <text x="340" y="128.8" fill="#a0a0a0" font-family="Nunito, sans-serif" font-size="12" opacity="1">예외 발생</text>
  <rect x="190" y="140" width="280" height="50" rx="7.5" fill="#5c3d1a" stroke="#f59e0b" stroke-width="2" opacity="1"/>
  <text x="330" y="169" text-anchor="middle" fill="#e5e5e5" font-family="Nunito, sans-serif" font-size="16">on 블록 순서 매칭</text>
  <defs><marker id="arrow-a2_yes" markerWidth="10" markerHeight="7" refX="9" refY="3.5" orient="auto"><polygon points="0 0, 10 3.5, 0 7" fill="#22c55e"/></marker></defs>
  <path d="M470,165 L530,135" fill="none" stroke="#22c55e" stroke-width="2" opacity="1" marker-end="url(#arrow-a2_yes)"/>
  <text x="478" y="144.9" fill="#22c55e" font-family="Nunito, sans-serif" font-size="11" opacity="1">매칭 성공</text>
  <rect x="530" y="110" width="180" height="50" rx="7.5" fill="#1a4d2e" stroke="#22c55e" stroke-width="2" opacity="1"/>
  <text x="620" y="139" text-anchor="middle" fill="#e5e5e5" font-family="Nunito, sans-serif" font-size="16">catch 실행</text>
  <defs><marker id="arrow-a3_no" markerWidth="10" markerHeight="7" refX="9" refY="3.5" orient="auto"><polygon points="0 0, 10 3.5, 0 7" fill="#ef4444"/></marker></defs>
  <path d="M330,190 L330,220" fill="none" stroke="#ef4444" stroke-width="2" opacity="1" marker-end="url(#arrow-a3_no)"/>
  <text x="340" y="207.9" fill="#ef4444" font-family="Nunito, sans-serif" font-size="11" opacity="1">매칭 실패</text>
  <rect x="150" y="220" width="360" height="50" rx="7.5" fill="#5c1a1a" stroke="#ef4444" stroke-width="2" opacity="1"/>
  <text x="330" y="249" text-anchor="middle" fill="#e5e5e5" font-family="Nunito, sans-serif" font-size="16">다음 on 블록 또는 예외 전파</text>
  <defs><marker id="arrow-a4" markerWidth="10" markerHeight="7" refX="9" refY="3.5" orient="auto"><polygon points="0 0, 10 3.5, 0 7" fill="#555555"/></marker></defs>
  <path d="M620,160 L620,280" fill="none" stroke="#555555" stroke-width="2" opacity="1" marker-end="url(#arrow-a4)"/>
  <defs><marker id="arrow-a5" markerWidth="10" markerHeight="7" refX="9" refY="3.5" orient="auto"><polygon points="0 0, 10 3.5, 0 7" fill="#555555"/></marker></defs>
  <path d="M330,270 L620,280" fill="none" stroke="#555555" stroke-width="2" opacity="1" marker-end="url(#arrow-a5)"/>
  <rect x="520" y="280" width="200" height="50" rx="7.5" fill="#2d1b69" stroke="#8b5cf6" stroke-width="2" opacity="1"/>
  <text x="620" y="309" text-anchor="middle" fill="#e5e5e5" font-family="Nunito, sans-serif" font-size="16">finally 실행 (항상)</text>
</svg>