<svg xmlns="http://www.w3.org/2000/svg" width="600" height="391" viewBox="0 -20 560 365">
  <style>
    @import url('https://fonts.googleapis.com/css2?family=Nunito:wght@400;600;700&amp;display=swap');
  </style>
  <rect x="0" y="-20" width="560" height="365" rx="12" fill="#141414"/>
  <text x="150" y="31.6" fill="#e5e5e5" font-family="Nunito, sans-serif" font-size="24" opacity="1">IS-A / CAN-DO / HAS-A 관계</text>
  <rect x="30" y="65" width="220" height="70" rx="10.5" fill="#1e3a5f" stroke="#4a9eed" stroke-width="2" opacity="1"/>
  <text x="140" y="103.75" text-anchor="middle" fill="#e5e5e5" font-family="Nunito, sans-serif" font-size="15">A는 B이다 (IS-A)</text>
  <defs><marker id="arrow-a1" markerWidth="10" markerHeight="7" refX="9" refY="3.5" orient="auto"><polygon points="0 0, 10 3.5, 0 7" fill="#4a9eed"/></marker></defs>
  <path d="M250,100 L310,100" fill="none" stroke="#4a9eed" stroke-width="2" opacity="1" marker-end="url(#arrow-a1)"/>
  <rect x="310" y="78" width="190" height="44" rx="6.6" fill="#1e3a5f" stroke="#4a9eed" stroke-width="1" opacity="1"/>
  <text x="405" y="103.75" text-anchor="middle" fill="#e5e5e5" font-family="Nunito, sans-serif" font-size="15">extends (상속)</text>
  <rect x="30" y="155" width="220" height="70" rx="10.5" fill="#1a4d2e" stroke="#22c55e" stroke-width="2" opacity="1"/>
  <text x="140" y="193.25" text-anchor="middle" fill="#e5e5e5" font-family="Nunito, sans-serif" font-size="13">A는 B를 할 수 있다 (CAN-DO)</text>
  <defs><marker id="arrow-a2" markerWidth="10" markerHeight="7" refX="9" refY="3.5" orient="auto"><polygon points="0 0, 10 3.5, 0 7" fill="#22c55e"/></marker></defs>
  <path d="M250,190 L310,190" fill="none" stroke="#22c55e" stroke-width="2" opacity="1" marker-end="url(#arrow-a2)"/>
  <rect x="310" y="168" width="220" height="44" rx="6.6" fill="#1a4d2e" stroke="#22c55e" stroke-width="1" opacity="1"/>
  <text x="420" y="193.5" text-anchor="middle" fill="#e5e5e5" font-family="Nunito, sans-serif" font-size="14">implements (인터페이스)</text>
  <rect x="30" y="245" width="220" height="70" rx="10.5" fill="#2d1b69" stroke="#8b5cf6" stroke-width="2" opacity="1"/>
  <text x="140" y="283.25" text-anchor="middle" fill="#e5e5e5" font-family="Nunito, sans-serif" font-size="13">A에게 B를 추가한다 (HAS-A)</text>
  <defs><marker id="arrow-a3" markerWidth="10" markerHeight="7" refX="9" refY="3.5" orient="auto"><polygon points="0 0, 10 3.5, 0 7" fill="#8b5cf6"/></marker></defs>
  <path d="M250,280 L310,280" fill="none" stroke="#8b5cf6" stroke-width="2" opacity="1" marker-end="url(#arrow-a3)"/>
  <rect x="310" y="258" width="200" height="44" rx="6.6" fill="#2d1b69" stroke="#8b5cf6" stroke-width="1" opacity="1"/>
  <text x="410" y="283.75" text-anchor="middle" fill="#e5e5e5" font-family="Nunito, sans-serif" font-size="15">mixin (with)</text>
</svg>