<svg xmlns="http://www.w3.org/2000/svg" width="740" height="460" viewBox="0 -20 740 460">
  <style>
    @import url('https://fonts.googleapis.com/css2?family=Nunito:wght@400;600;700&amp;display=swap');
  </style>
  <rect x="0" y="-20" width="740" height="460" rx="12" fill="#141414"/>
  <text x="200" y="35.2" fill="#e5e5e5" font-family="Nunito, sans-serif" font-size="28" opacity="1">Provider vs Riverpod</text>
  <rect x="30" y="70" width="200" height="40" rx="6" fill="#2d1b69" stroke="#8b5cf6" stroke-width="2" opacity="1"/>
  <text x="130" y="94" text-anchor="middle" fill="#e5e5e5" font-family="Nunito, sans-serif" font-size="16">특성</text>
  <rect x="240" y="70" width="230" height="40" rx="6" fill="#1e3a5f" stroke="#4a9eed" stroke-width="2" opacity="1"/>
  <text x="355" y="94" text-anchor="middle" fill="#e5e5e5" font-family="Nunito, sans-serif" font-size="16">Provider</text>
  <rect x="480" y="70" width="230" height="40" rx="6" fill="#1a4d2e" stroke="#22c55e" stroke-width="2" opacity="1"/>
  <text x="595" y="94" text-anchor="middle" fill="#e5e5e5" font-family="Nunito, sans-serif" font-size="16">Riverpod</text>
  <rect x="30" y="120" width="200" height="40" rx="6" fill="#2d1b69" stroke="#8b5cf6" stroke-width="1" opacity="0.4"/>
  <text x="130" y="143.5" text-anchor="middle" fill="#e5e5e5" font-family="Nunito, sans-serif" font-size="14">BuildContext</text>
  <rect x="240" y="120" width="230" height="40" rx="6" fill="#1e3a5f" stroke="#4a9eed" stroke-width="1" opacity="0.4"/>
  <text x="355" y="143.5" text-anchor="middle" fill="#e5e5e5" font-family="Nunito, sans-serif" font-size="14">의존</text>
  <rect x="480" y="120" width="230" height="40" rx="6" fill="#1a4d2e" stroke="#22c55e" stroke-width="1" opacity="0.4"/>
  <text x="595" y="143.5" text-anchor="middle" fill="#e5e5e5" font-family="Nunito, sans-serif" font-size="14">불필요</text>
  <rect x="30" y="170" width="200" height="40" rx="6" fill="#2d1b69" stroke="#8b5cf6" stroke-width="1" opacity="0.4"/>
  <text x="130" y="193.5" text-anchor="middle" fill="#e5e5e5" font-family="Nunito, sans-serif" font-size="14">위젯 트리</text>
  <rect x="240" y="170" width="230" height="40" rx="6" fill="#1e3a5f" stroke="#4a9eed" stroke-width="1" opacity="0.4"/>
  <text x="355" y="193.5" text-anchor="middle" fill="#e5e5e5" font-family="Nunito, sans-serif" font-size="14">종속</text>
  <rect x="480" y="170" width="230" height="40" rx="6" fill="#1a4d2e" stroke="#22c55e" stroke-width="1" opacity="0.4"/>
  <text x="595" y="193.5" text-anchor="middle" fill="#e5e5e5" font-family="Nunito, sans-serif" font-size="14">독립</text>
  <rect x="30" y="220" width="200" height="40" rx="6" fill="#2d1b69" stroke="#8b5cf6" stroke-width="1" opacity="0.4"/>
  <text x="130" y="243.5" text-anchor="middle" fill="#e5e5e5" font-family="Nunito, sans-serif" font-size="14">같은 타입 중복</text>
  <rect x="240" y="220" width="230" height="40" rx="6" fill="#1e3a5f" stroke="#4a9eed" stroke-width="1" opacity="0.4"/>
  <text x="355" y="243.5" text-anchor="middle" fill="#e5e5e5" font-family="Nunito, sans-serif" font-size="14">어려움</text>
  <rect x="480" y="220" width="230" height="40" rx="6" fill="#1a4d2e" stroke="#22c55e" stroke-width="1" opacity="0.4"/>
  <text x="595" y="243.5" text-anchor="middle" fill="#e5e5e5" font-family="Nunito, sans-serif" font-size="14">가능</text>
  <rect x="30" y="270" width="200" height="40" rx="6" fill="#2d1b69" stroke="#8b5cf6" stroke-width="1" opacity="0.4"/>
  <text x="130" y="293.5" text-anchor="middle" fill="#e5e5e5" font-family="Nunito, sans-serif" font-size="14">오류 감지</text>
  <rect x="240" y="270" width="230" height="40" rx="6" fill="#1e3a5f" stroke="#4a9eed" stroke-width="1" opacity="0.4"/>
  <text x="355" y="293.5" text-anchor="middle" fill="#e5e5e5" font-family="Nunito, sans-serif" font-size="14">런타임 오류</text>
  <rect x="480" y="270" width="230" height="40" rx="6" fill="#1a4d2e" stroke="#22c55e" stroke-width="1" opacity="0.4"/>
  <text x="595" y="293.5" text-anchor="middle" fill="#e5e5e5" font-family="Nunito, sans-serif" font-size="14">컴파일 안전</text>
  <rect x="30" y="320" width="200" height="40" rx="6" fill="#2d1b69" stroke="#8b5cf6" stroke-width="1" opacity="0.4"/>
  <text x="130" y="343.5" text-anchor="middle" fill="#e5e5e5" font-family="Nunito, sans-serif" font-size="14">상태 타입</text>
  <rect x="240" y="320" width="230" height="40" rx="6" fill="#1e3a5f" stroke="#4a9eed" stroke-width="1" opacity="0.4"/>
  <text x="355" y="343.5" text-anchor="middle" fill="#e5e5e5" font-family="Nunito, sans-serif" font-size="14">ChangeNotifier 필수</text>
  <rect x="480" y="320" width="230" height="40" rx="6" fill="#1a4d2e" stroke="#22c55e" stroke-width="1" opacity="0.4"/>
  <text x="595" y="343.5" text-anchor="middle" fill="#e5e5e5" font-family="Nunito, sans-serif" font-size="14">다양한 타입</text>
  <rect x="30" y="370" width="200" height="40" rx="6" fill="#2d1b69" stroke="#8b5cf6" stroke-width="1" opacity="0.4"/>
  <text x="130" y="393.5" text-anchor="middle" fill="#e5e5e5" font-family="Nunito, sans-serif" font-size="14">자동 dispose</text>
  <rect x="240" y="370" width="230" height="40" rx="6" fill="#1e3a5f" stroke="#4a9eed" stroke-width="1" opacity="0.4"/>
  <text x="355" y="393.5" text-anchor="middle" fill="#e5e5e5" font-family="Nunito, sans-serif" font-size="14">제한</text>
  <rect x="480" y="370" width="230" height="40" rx="6" fill="#1a4d2e" stroke="#22c55e" stroke-width="1" opacity="0.4"/>
  <text x="595" y="393.5" text-anchor="middle" fill="#e5e5e5" font-family="Nunito, sans-serif" font-size="14">내장</text>
</svg>