<svg xmlns="http://www.w3.org/2000/svg" width="860" height="490" viewBox="-60 -20 860 490">
  <style>
    @import url('https://fonts.googleapis.com/css2?family=Nunito:wght@400;600;700&amp;display=swap');
  </style>
  <rect x="-60" y="-20" width="860" height="490" rx="12" fill="#141414"/>
  <text x="200" y="31.6" fill="#e5e5e5" font-family="Nunito, sans-serif" font-size="24" opacity="1">Event Loop 심화 구조</text>
  <rect x="30" y="60" width="740" height="380" rx="57" fill="transparent" stroke="#555555" stroke-width="2" opacity="1" stroke-dasharray="8 4"/>
  <text x="50" y="80.6" fill="#a0a0a0" font-family="Nunito, sans-serif" font-size="14" opacity="1">Event Loop</text>
  <rect x="60" y="100" width="280" height="55" rx="8.25" fill="#1e3a5f" stroke="#4a9eed" stroke-width="2" opacity="1"/>
  <text x="200" y="132" text-anchor="middle" fill="#e5e5e5" font-family="Nunito, sans-serif" font-size="18">현재 동기 코드 실행 완료</text>
  <defs><marker id="arrow-a1" markerWidth="10" markerHeight="7" refX="9" refY="3.5" orient="auto"><polygon points="0 0, 10 3.5, 0 7" fill="#a0a0a0"/></marker></defs>
  <path d="M200,155 L200,190" fill="none" stroke="#a0a0a0" stroke-width="2" opacity="1" marker-end="url(#arrow-a1)"/>
  <rect x="60" y="190" width="280" height="55" rx="8.25" fill="#2d1b69" stroke="#8b5cf6" stroke-width="2" opacity="1"/>
  <text x="200" y="211.1" text-anchor="middle" fill="#e5e5e5" font-family="Nunito, sans-serif" font-size="16">Microtask Queue 처리</text>
  <text x="200" y="231.9" text-anchor="middle" fill="#e5e5e5" font-family="Nunito, sans-serif" font-size="16">(우선)</text>
  <text x="370" y="207.6" fill="#a0a0a0" font-family="Nunito, sans-serif" font-size="14" opacity="1">Future.microtask()</text>
  <text x="370" y="227.2" fill="#a0a0a0" font-family="Nunito, sans-serif" font-size="14" opacity="1">scheduleMicrotask(), then() 콜백</text>
  <defs><marker id="arrow-a2" markerWidth="10" markerHeight="7" refX="9" refY="3.5" orient="auto"><polygon points="0 0, 10 3.5, 0 7" fill="#a0a0a0"/></marker></defs>
  <path d="M200,245 L200,280" fill="none" stroke="#a0a0a0" stroke-width="2" opacity="1" marker-end="url(#arrow-a2)"/>
  <rect x="60" y="280" width="280" height="55" rx="8.25" fill="#5c3d1a" stroke="#f59e0b" stroke-width="2" opacity="1"/>
  <text x="200" y="301.09999999999997" text-anchor="middle" fill="#e5e5e5" font-family="Nunito, sans-serif" font-size="16">Event Queue에서</text>
  <text x="200" y="321.9" text-anchor="middle" fill="#e5e5e5" font-family="Nunito, sans-serif" font-size="16">이벤트 하나 처리</text>
  <text x="370" y="297.6" fill="#a0a0a0" font-family="Nunito, sans-serif" font-size="14" opacity="1">Future.delayed(), I/O</text>
  <text x="370" y="317.20000000000005" fill="#a0a0a0" font-family="Nunito, sans-serif" font-size="14" opacity="1">Timer, Stream</text>
  <defs><marker id="arrow-loop_arrow" markerWidth="10" markerHeight="7" refX="9" refY="3.5" orient="auto"><polygon points="0 0, 10 3.5, 0 7" fill="#555555"/></marker></defs>
  <path d="M45,335 L15,335 L15,105 L60,105" fill="none" stroke="#555555" stroke-width="2" opacity="1" stroke-dasharray="8 4" marker-end="url(#arrow-loop_arrow)"/>
  <text x="-30" y="212.6" fill="#a0a0a0" font-family="Nunito, sans-serif" font-size="14" opacity="1">반복</text>
</svg>