<svg xmlns="http://www.w3.org/2000/svg" width="870" height="310" viewBox="-10 -20 870 309.6">
  <style>
    @import url('https://fonts.googleapis.com/css2?family=Nunito:wght@400;600;700&amp;display=swap');
  </style>
  <rect x="-10" y="-20" width="870" height="309.6" rx="12" fill="#141414"/>
  <text x="250" y="31.6" fill="#e5e5e5" font-family="Nunito, sans-serif" font-size="24" opacity="1">Dart 핵심 개념</text>
  <rect x="300" y="50" width="200" height="55" rx="8.25" fill="#1e3a5f" stroke="#4a9eed" stroke-width="2" opacity="1"/>
  <text x="400" y="82" text-anchor="middle" fill="#e5e5e5" font-family="Nunito, sans-serif" font-size="18">Dart 핵심 개념</text>
  <path d="M320,105 L70,145" fill="none" stroke="#555555" stroke-width="2" opacity="1"/>
  <path d="M350,105 L230,145" fill="none" stroke="#555555" stroke-width="2" opacity="1"/>
  <path d="M400,105 L400,145" fill="none" stroke="#555555" stroke-width="2" opacity="1"/>
  <path d="M440,105 L560,145" fill="none" stroke="#555555" stroke-width="2" opacity="1"/>
  <path d="M470,105 L720,145" fill="none" stroke="#555555" stroke-width="2" opacity="1"/>
  <rect x="20" y="145" width="150" height="50" rx="7.5" fill="#1a4d2e" stroke="#22c55e" stroke-width="2" opacity="1"/>
  <text x="95" y="174" text-anchor="middle" fill="#e5e5e5" font-family="Nunito, sans-serif" font-size="16">타입 시스템</text>
  <text x="25" y="216.7" fill="#a0a0a0" font-family="Nunito, sans-serif" font-size="13" opacity="1">• Null Safety</text>
  <text x="25" y="234.89999999999998" fill="#a0a0a0" font-family="Nunito, sans-serif" font-size="13" opacity="1">• 타입 추론</text>
  <rect x="185" y="145" width="150" height="50" rx="7.5" fill="#2d1b69" stroke="#8b5cf6" stroke-width="2" opacity="1"/>
  <text x="260" y="174" text-anchor="middle" fill="#e5e5e5" font-family="Nunito, sans-serif" font-size="16">객체지향</text>
  <text x="190" y="216.7" fill="#a0a0a0" font-family="Nunito, sans-serif" font-size="13" opacity="1">• Class</text>
  <text x="190" y="234.89999999999998" fill="#a0a0a0" font-family="Nunito, sans-serif" font-size="13" opacity="1">• Mixin</text>
  <rect x="350" y="145" width="150" height="50" rx="7.5" fill="#5c3d1a" stroke="#f59e0b" stroke-width="2" opacity="1"/>
  <text x="425" y="174" text-anchor="middle" fill="#e5e5e5" font-family="Nunito, sans-serif" font-size="16">비동기</text>
  <text x="355" y="216.7" fill="#a0a0a0" font-family="Nunito, sans-serif" font-size="13" opacity="1">• Future</text>
  <text x="355" y="234.89999999999998" fill="#a0a0a0" font-family="Nunito, sans-serif" font-size="13" opacity="1">• Stream</text>
  <text x="355" y="253.1" fill="#a0a0a0" font-family="Nunito, sans-serif" font-size="13" opacity="1">• Isolate</text>
  <rect x="515" y="145" width="150" height="50" rx="7.5" fill="#1a4d4d" stroke="#06b6d4" stroke-width="2" opacity="1"/>
  <text x="590" y="174" text-anchor="middle" fill="#e5e5e5" font-family="Nunito, sans-serif" font-size="16">컬렉션</text>
  <text x="520" y="216.7" fill="#a0a0a0" font-family="Nunito, sans-serif" font-size="13" opacity="1">• List / Map / Set</text>
  <rect x="680" y="145" width="150" height="50" rx="7.5" fill="#5c1a1a" stroke="#ef4444" stroke-width="2" opacity="1"/>
  <text x="755" y="164.4" text-anchor="middle" fill="#e5e5e5" font-family="Nunito, sans-serif" font-size="14">Records &amp;</text>
  <text x="755" y="182.6" text-anchor="middle" fill="#e5e5e5" font-family="Nunito, sans-serif" font-size="14">Patterns</text>
  <text x="685" y="216.7" fill="#a0a0a0" font-family="Nunito, sans-serif" font-size="13" opacity="1">• Record</text>
  <text x="685" y="234.89999999999998" fill="#a0a0a0" font-family="Nunito, sans-serif" font-size="13" opacity="1">• Pattern Matching</text>
</svg>