<svg xmlns="http://www.w3.org/2000/svg" width="600" height="710" viewBox="120 -10 549.3 650">
  <style>
    @import url('https://fonts.googleapis.com/css2?family=Nunito:wght@400;600;700&amp;display=swap');
  </style>
  <rect x="120" y="-10" width="549.3" height="650" rx="12" fill="#141414"/>
  <text x="150" y="45.2" fill="#e5e5e5" font-family="Nunito, sans-serif" font-size="28" opacity="1">Dio 인터셉터 파이프라인</text>
  <rect x="250" y="80" width="300" height="50" rx="7.5" fill="#1e3a5f" stroke="#4a9eed" stroke-width="2" opacity="1"/>
  <text x="400" y="109.5" text-anchor="middle" fill="#e5e5e5" font-family="Nunito, sans-serif" font-size="18">앱 코드</text>
  <defs><marker id="arrow-a1" markerWidth="10" markerHeight="7" refX="9" refY="3.5" orient="auto"><polygon points="0 0, 10 3.5, 0 7" fill="#a0a0a0"/></marker></defs>
  <path d="M400,130 L400,160" fill="none" stroke="#a0a0a0" stroke-width="2" opacity="1" marker-end="url(#arrow-a1)"/>
  <rect x="250" y="160" width="300" height="50" rx="7.5" fill="#2d1b69" stroke="#8b5cf6" stroke-width="2" opacity="1"/>
  <text x="400" y="189.5" text-anchor="middle" fill="#e5e5e5" font-family="Nunito, sans-serif" font-size="18">Request 인터셉터</text>
  <text x="570" y="182.6" fill="#8b5cf6" font-family="Nunito, sans-serif" font-size="14" opacity="1">토큰 첨부, 로깅</text>
  <defs><marker id="arrow-a2" markerWidth="10" markerHeight="7" refX="9" refY="3.5" orient="auto"><polygon points="0 0, 10 3.5, 0 7" fill="#a0a0a0"/></marker></defs>
  <path d="M400,210 L400,240" fill="none" stroke="#a0a0a0" stroke-width="2" opacity="1" marker-end="url(#arrow-a2)"/>
  <rect x="250" y="240" width="300" height="50" rx="7.5" fill="#555555" stroke="#a0a0a0" stroke-width="2" opacity="1"/>
  <text x="400" y="269.5" text-anchor="middle" fill="#e5e5e5" font-family="Nunito, sans-serif" font-size="18">Dio → HTTP 요청</text>
  <defs><marker id="arrow-a3" markerWidth="10" markerHeight="7" refX="9" refY="3.5" orient="auto"><polygon points="0 0, 10 3.5, 0 7" fill="#a0a0a0"/></marker></defs>
  <path d="M400,290 L400,320" fill="none" stroke="#a0a0a0" stroke-width="2" opacity="1" marker-end="url(#arrow-a3)"/>
  <rect x="250" y="320" width="300" height="50" rx="7.5" fill="#5c3d1a" stroke="#f59e0b" stroke-width="2" opacity="1"/>
  <text x="400" y="349.5" text-anchor="middle" fill="#e5e5e5" font-family="Nunito, sans-serif" font-size="18">서버 응답</text>
  <defs><marker id="arrow-a4" markerWidth="10" markerHeight="7" refX="9" refY="3.5" orient="auto"><polygon points="0 0, 10 3.5, 0 7" fill="#a0a0a0"/></marker></defs>
  <path d="M400,370 L400,400" fill="none" stroke="#a0a0a0" stroke-width="2" opacity="1" marker-end="url(#arrow-a4)"/>
  <rect x="250" y="400" width="300" height="50" rx="7.5" fill="#1a4d2e" stroke="#22c55e" stroke-width="2" opacity="1"/>
  <text x="400" y="429.5" text-anchor="middle" fill="#e5e5e5" font-family="Nunito, sans-serif" font-size="18">Response 인터셉터</text>
  <text x="570" y="422.6" fill="#22c55e" font-family="Nunito, sans-serif" font-size="14" opacity="1">응답 변환</text>
  <defs><marker id="arrow-a5" markerWidth="10" markerHeight="7" refX="9" refY="3.5" orient="auto"><polygon points="0 0, 10 3.5, 0 7" fill="#a0a0a0"/></marker></defs>
  <path d="M400,450 L400,480" fill="none" stroke="#a0a0a0" stroke-width="2" opacity="1" marker-end="url(#arrow-a5)"/>
  <rect x="250" y="480" width="300" height="50" rx="7.5" fill="#5c1a1a" stroke="#ef4444" stroke-width="2" opacity="1"/>
  <text x="400" y="509.5" text-anchor="middle" fill="#e5e5e5" font-family="Nunito, sans-serif" font-size="18">Error 인터셉터</text>
  <text x="570" y="502.6" fill="#ef4444" font-family="Nunito, sans-serif" font-size="14" opacity="1">오류 처리</text>
  <defs><marker id="arrow-a6" markerWidth="10" markerHeight="7" refX="9" refY="3.5" orient="auto"><polygon points="0 0, 10 3.5, 0 7" fill="#a0a0a0"/></marker></defs>
  <path d="M400,530 L400,560" fill="none" stroke="#a0a0a0" stroke-width="2" opacity="1" marker-end="url(#arrow-a6)"/>
  <rect x="250" y="560" width="300" height="50" rx="7.5" fill="#1e3a5f" stroke="#4a9eed" stroke-width="2" opacity="1"/>
  <text x="400" y="589.5" text-anchor="middle" fill="#e5e5e5" font-family="Nunito, sans-serif" font-size="18">앱 코드 결과</text>
</svg>