<svg xmlns="http://www.w3.org/2000/svg" width="730" height="381" viewBox="20 -20 730 381">
  <style>
    @import url('https://fonts.googleapis.com/css2?family=Nunito:wght@400;600;700&amp;display=swap');
  </style>
  <rect x="20" y="-20" width="730" height="381" rx="12" fill="#141414"/>
  <text x="200" y="31.6" fill="#e5e5e5" font-family="Nunito, sans-serif" font-size="24" opacity="1">메모리 할당 구조 (스택/힙)</text>
  <rect x="50" y="60" width="250" height="220" rx="33" fill="#2d1b69" stroke="#8b5cf6" stroke-width="2" opacity="1"/>
  <text x="110" y="86.2" fill="#e5e5e5" font-family="Nunito, sans-serif" font-size="18" opacity="1">스택 메모리</text>
  <rect x="80" y="110" width="190" height="50" rx="7.5" fill="#3d2b79" stroke="#a78bfa" stroke-width="1" opacity="1"/>
  <text x="175" y="129.4" text-anchor="middle" fill="#e5e5e5" font-family="Nunito, sans-serif" font-size="14">account1</text>
  <text x="175" y="147.6" text-anchor="middle" fill="#e5e5e5" font-family="Nunito, sans-serif" font-size="14">0x7A3F</text>
  <rect x="80" y="175" width="190" height="50" rx="7.5" fill="#3d2b79" stroke="#a78bfa" stroke-width="1" opacity="1"/>
  <text x="175" y="194.4" text-anchor="middle" fill="#e5e5e5" font-family="Nunito, sans-serif" font-size="14">account2</text>
  <text x="175" y="212.6" text-anchor="middle" fill="#e5e5e5" font-family="Nunito, sans-serif" font-size="14">0xB12C</text>
  <rect x="420" y="60" width="300" height="220" rx="33" fill="#1a4d2e" stroke="#22c55e" stroke-width="2" opacity="1"/>
  <text x="510" y="86.2" fill="#e5e5e5" font-family="Nunito, sans-serif" font-size="18" opacity="1">힙 메모리</text>
  <rect x="440" y="110" width="260" height="50" rx="7.5" fill="#2a6d3e" stroke="#4ade80" stroke-width="1" opacity="1"/>
  <text x="570" y="129.79999999999998" text-anchor="middle" fill="#e5e5e5" font-family="Nunito, sans-serif" font-size="13">BankAccount (0x7A3F)</text>
  <text x="570" y="146.7" text-anchor="middle" fill="#e5e5e5" font-family="Nunito, sans-serif" font-size="13">잔액=50만, 홍길동</text>
  <rect x="440" y="175" width="260" height="50" rx="7.5" fill="#2a6d3e" stroke="#4ade80" stroke-width="1" opacity="1"/>
  <text x="570" y="194.79999999999998" text-anchor="middle" fill="#e5e5e5" font-family="Nunito, sans-serif" font-size="13">BankAccount (0xB12C)</text>
  <text x="570" y="211.7" text-anchor="middle" fill="#e5e5e5" font-family="Nunito, sans-serif" font-size="13">잔액=120만, 김철수</text>
  <defs><marker id="arrow-ref1" markerWidth="10" markerHeight="7" refX="9" refY="3.5" orient="auto"><polygon points="0 0, 10 3.5, 0 7" fill="#f59e0b"/></marker></defs>
  <path d="M270,135 L440,135" fill="none" stroke="#f59e0b" stroke-width="2" opacity="1" stroke-dasharray="8 4" marker-end="url(#arrow-ref1)"/>
  <defs><marker id="arrow-ref2" markerWidth="10" markerHeight="7" refX="9" refY="3.5" orient="auto"><polygon points="0 0, 10 3.5, 0 7" fill="#f59e0b"/></marker></defs>
  <path d="M270,200 L440,200" fill="none" stroke="#f59e0b" stroke-width="2" opacity="1" stroke-dasharray="8 4" marker-end="url(#arrow-ref2)"/>
  <text x="80" y="323.5" fill="#a0a0a0" font-family="Nunito, sans-serif" font-size="15" opacity="1">변수는 스택에, 실제 객체는 힙에 저장. 변수는 힙 주소를 참조.</text>
</svg>