<svg xmlns="http://www.w3.org/2000/svg" width="860" height="326" viewBox="-30 -10 860 326.4">
  <style>
    @import url('https://fonts.googleapis.com/css2?family=Nunito:wght@400;600;700&amp;display=swap');
  </style>
  <rect x="-30" y="-10" width="860" height="326.4" rx="12" fill="#141414"/>
  <text x="220" y="45.2" fill="#e5e5e5" font-family="Nunito, sans-serif" font-size="28" opacity="1">로컬 데이터 저장</text>
  <rect x="300" y="80" width="200" height="50" rx="7.5" fill="#1e3a5f" stroke="#4a9eed" stroke-width="2" opacity="1"/>
  <text x="400" y="109.5" text-anchor="middle" fill="#e5e5e5" font-family="Nunito, sans-serif" font-size="18">로컬 저장</text>
  <defs><marker id="arrow-a1" markerWidth="10" markerHeight="7" refX="9" refY="3.5" orient="auto"><polygon points="0 0, 10 3.5, 0 7" fill="#a0a0a0"/></marker></defs>
  <path d="M340,130 L90,190" fill="none" stroke="#a0a0a0" stroke-width="2" opacity="1" marker-end="url(#arrow-a1)"/>
  <defs><marker id="arrow-a2" markerWidth="10" markerHeight="7" refX="9" refY="3.5" orient="auto"><polygon points="0 0, 10 3.5, 0 7" fill="#a0a0a0"/></marker></defs>
  <path d="M370,130 L290,190" fill="none" stroke="#a0a0a0" stroke-width="2" opacity="1" marker-end="url(#arrow-a2)"/>
  <defs><marker id="arrow-a3" markerWidth="10" markerHeight="7" refX="9" refY="3.5" orient="auto"><polygon points="0 0, 10 3.5, 0 7" fill="#a0a0a0"/></marker></defs>
  <path d="M430,130 L510,190" fill="none" stroke="#a0a0a0" stroke-width="2" opacity="1" marker-end="url(#arrow-a3)"/>
  <defs><marker id="arrow-a4" markerWidth="10" markerHeight="7" refX="9" refY="3.5" orient="auto"><polygon points="0 0, 10 3.5, 0 7" fill="#a0a0a0"/></marker></defs>
  <path d="M460,130 L710,190" fill="none" stroke="#a0a0a0" stroke-width="2" opacity="1" marker-end="url(#arrow-a4)"/>
  <rect x="0" y="190" width="180" height="50" rx="7.5" fill="#1a4d2e" stroke="#22c55e" stroke-width="2" opacity="1"/>
  <text x="90" y="218.75" text-anchor="middle" fill="#e5e5e5" font-family="Nunito, sans-serif" font-size="15">SharedPreferences</text>
  <text x="0" y="261.7" fill="#22c55e" font-family="Nunito, sans-serif" font-size="13" opacity="1">Key-Value</text>
  <text x="0" y="279.9" fill="#22c55e" font-family="Nunito, sans-serif" font-size="13" opacity="1">(String, int, bool)</text>
  <rect x="200" y="190" width="180" height="50" rx="7.5" fill="#2d1b69" stroke="#8b5cf6" stroke-width="2" opacity="1"/>
  <text x="290" y="219.5" text-anchor="middle" fill="#e5e5e5" font-family="Nunito, sans-serif" font-size="18">Hive</text>
  <text x="200" y="261.7" fill="#8b5cf6" font-family="Nunito, sans-serif" font-size="13" opacity="1">Box, TypeAdapter</text>
  <text x="200" y="279.9" fill="#8b5cf6" font-family="Nunito, sans-serif" font-size="13" opacity="1">NoSQL</text>
  <rect x="400" y="190" width="180" height="50" rx="7.5" fill="#5c3d1a" stroke="#f59e0b" stroke-width="2" opacity="1"/>
  <text x="490" y="219" text-anchor="middle" fill="#e5e5e5" font-family="Nunito, sans-serif" font-size="16">SQLite (sqflite)</text>
  <text x="400" y="261.7" fill="#f59e0b" font-family="Nunito, sans-serif" font-size="13" opacity="1">SQL 쿼리, JOIN</text>
  <rect x="600" y="190" width="200" height="50" rx="7.5" fill="#1a4d4d" stroke="#06b6d4" stroke-width="2" opacity="1"/>
  <text x="700" y="218.75" text-anchor="middle" fill="#e5e5e5" font-family="Nunito, sans-serif" font-size="15">Firebase Firestore</text>
  <text x="600" y="261.7" fill="#06b6d4" font-family="Nunito, sans-serif" font-size="13" opacity="1">클라우드 NoSQL</text>
  <text x="600" y="279.9" fill="#06b6d4" font-family="Nunito, sans-serif" font-size="13" opacity="1">오프라인 캐싱</text>
</svg>