<svg xmlns="http://www.w3.org/2000/svg" width="620.8" height="490" viewBox="170 -10 620.8 490">
  <style>
    @import url('https://fonts.googleapis.com/css2?family=Nunito:wght@400;600;700&amp;display=swap');
  </style>
  <rect x="170" y="-10" width="620.8" height="490" rx="12" fill="#141414"/>
  <text x="200" y="45.2" fill="#e5e5e5" font-family="Nunito, sans-serif" font-size="28" opacity="1">FutureBuilder 내부 동작</text>
  <rect x="200" y="90" width="400" height="60" rx="9" fill="#1e3a5f" stroke="#4a9eed" stroke-width="2" opacity="1"/>
  <text x="400" y="124.5" text-anchor="middle" fill="#e5e5e5" font-family="Nunito, sans-serif" font-size="18">① Widget mount → Future 구독</text>
  <defs><marker id="arrow-arrow1" markerWidth="10" markerHeight="7" refX="9" refY="3.5" orient="auto"><polygon points="0 0, 10 3.5, 0 7" fill="#a0a0a0"/></marker></defs>
  <path d="M400,150 L400,190" fill="none" stroke="#a0a0a0" stroke-width="2" opacity="1" marker-end="url(#arrow-arrow1)"/>
  <rect x="200" y="190" width="400" height="60" rx="9" fill="#5c3d1a" stroke="#f59e0b" stroke-width="2" opacity="1"/>
  <text x="400" y="224.5" text-anchor="middle" fill="#e5e5e5" font-family="Nunito, sans-serif" font-size="18">② ConnectionState.waiting</text>
  <text x="620" y="214.4" fill="#f59e0b" font-family="Nunito, sans-serif" font-size="16" opacity="1">로딩 UI 표시</text>
  <defs><marker id="arrow-arrow2" markerWidth="10" markerHeight="7" refX="9" refY="3.5" orient="auto"><polygon points="0 0, 10 3.5, 0 7" fill="#a0a0a0"/></marker></defs>
  <path d="M400,250 L400,290" fill="none" stroke="#a0a0a0" stroke-width="2" opacity="1" marker-end="url(#arrow-arrow2)"/>
  <rect x="200" y="290" width="400" height="60" rx="9" fill="#2d1b69" stroke="#8b5cf6" stroke-width="2" opacity="1"/>
  <text x="400" y="324.5" text-anchor="middle" fill="#e5e5e5" font-family="Nunito, sans-serif" font-size="18">③ Future 완료 → setState()</text>
  <defs><marker id="arrow-arrow3" markerWidth="10" markerHeight="7" refX="9" refY="3.5" orient="auto"><polygon points="0 0, 10 3.5, 0 7" fill="#a0a0a0"/></marker></defs>
  <path d="M400,350 L400,390" fill="none" stroke="#a0a0a0" stroke-width="2" opacity="1" marker-end="url(#arrow-arrow3)"/>
  <rect x="200" y="390" width="400" height="60" rx="9" fill="#1a4d2e" stroke="#22c55e" stroke-width="2" opacity="1"/>
  <text x="400" y="424.5" text-anchor="middle" fill="#e5e5e5" font-family="Nunito, sans-serif" font-size="18">④ ConnectionState.done</text>
  <text x="620" y="414.4" fill="#22c55e" font-family="Nunito, sans-serif" font-size="16" opacity="1">data 또는 error 표시</text>
</svg>