<svg xmlns="http://www.w3.org/2000/svg" width="840" height="345" viewBox="-10 -10 840 344.6">
  <style>
    @import url('https://fonts.googleapis.com/css2?family=Nunito:wght@400;600;700&amp;display=swap');
  </style>
  <rect x="-10" y="-10" width="840" height="344.6" rx="12" fill="#141414"/>
  <text x="250" y="45.2" fill="#e5e5e5" font-family="Nunito, sans-serif" font-size="28" opacity="1">HTTP 통신</text>
  <rect x="300" y="80" width="200" height="50" rx="7.5" fill="#1e3a5f" stroke="#4a9eed" stroke-width="2" opacity="1"/>
  <text x="400" y="109.5" text-anchor="middle" fill="#e5e5e5" font-family="Nunito, sans-serif" font-size="18">HTTP 통신</text>
  <defs><marker id="arrow-a1" markerWidth="10" markerHeight="7" refX="9" refY="3.5" orient="auto"><polygon points="0 0, 10 3.5, 0 7" fill="#a0a0a0"/></marker></defs>
  <path d="M340,130 L120,190" fill="none" stroke="#a0a0a0" stroke-width="2" opacity="1" marker-end="url(#arrow-a1)"/>
  <defs><marker id="arrow-a2" markerWidth="10" markerHeight="7" refX="9" refY="3.5" orient="auto"><polygon points="0 0, 10 3.5, 0 7" fill="#a0a0a0"/></marker></defs>
  <path d="M370,130 L300,190" fill="none" stroke="#a0a0a0" stroke-width="2" opacity="1" marker-end="url(#arrow-a2)"/>
  <defs><marker id="arrow-a3" markerWidth="10" markerHeight="7" refX="9" refY="3.5" orient="auto"><polygon points="0 0, 10 3.5, 0 7" fill="#a0a0a0"/></marker></defs>
  <path d="M430,130 L500,190" fill="none" stroke="#a0a0a0" stroke-width="2" opacity="1" marker-end="url(#arrow-a3)"/>
  <defs><marker id="arrow-a4" markerWidth="10" markerHeight="7" refX="9" refY="3.5" orient="auto"><polygon points="0 0, 10 3.5, 0 7" fill="#a0a0a0"/></marker></defs>
  <path d="M460,130 L680,190" fill="none" stroke="#a0a0a0" stroke-width="2" opacity="1" marker-end="url(#arrow-a4)"/>
  <rect x="20" y="190" width="180" height="50" rx="7.5" fill="#1a4d2e" stroke="#22c55e" stroke-width="2" opacity="1"/>
  <text x="110" y="219.5" text-anchor="middle" fill="#e5e5e5" font-family="Nunito, sans-serif" font-size="18">REST API</text>
  <text x="20" y="261.7" fill="#22c55e" font-family="Nunito, sans-serif" font-size="13" opacity="1">HTTP 메서드</text>
  <text x="20" y="279.9" fill="#22c55e" font-family="Nunito, sans-serif" font-size="13" opacity="1">(GET·POST·PUT·DELETE)</text>
  <text x="20" y="298.09999999999997" fill="#22c55e" font-family="Nunito, sans-serif" font-size="13" opacity="1">상태 코드, 요청/응답 구조</text>
  <rect x="220" y="190" width="180" height="50" rx="7.5" fill="#2d1b69" stroke="#8b5cf6" stroke-width="2" opacity="1"/>
  <text x="310" y="219.5" text-anchor="middle" fill="#e5e5e5" font-family="Nunito, sans-serif" font-size="18">Dio</text>
  <text x="220" y="261.7" fill="#8b5cf6" font-family="Nunito, sans-serif" font-size="13" opacity="1">기본 설정</text>
  <text x="220" y="279.9" fill="#8b5cf6" font-family="Nunito, sans-serif" font-size="13" opacity="1">인터셉터, 에러 처리</text>
  <rect x="420" y="190" width="180" height="50" rx="7.5" fill="#5c3d1a" stroke="#f59e0b" stroke-width="2" opacity="1"/>
  <text x="510" y="219.5" text-anchor="middle" fill="#e5e5e5" font-family="Nunito, sans-serif" font-size="18">JSON ↔ Dart</text>
  <text x="420" y="261.7" fill="#f59e0b" font-family="Nunito, sans-serif" font-size="13" opacity="1">fromJson(), toJson()</text>
  <rect x="620" y="190" width="180" height="50" rx="7.5" fill="#1a4d4d" stroke="#06b6d4" stroke-width="2" opacity="1"/>
  <text x="710" y="219.5" text-anchor="middle" fill="#e5e5e5" font-family="Nunito, sans-serif" font-size="18">GraphQL</text>
  <text x="620" y="261.7" fill="#06b6d4" font-family="Nunito, sans-serif" font-size="13" opacity="1">Query, Mutation</text>
</svg>