<svg xmlns="http://www.w3.org/2000/svg" width="770" height="460" viewBox="20 -10 770 460">
  <style>
    @import url('https://fonts.googleapis.com/css2?family=Nunito:wght@400;600;700&amp;display=swap');
  </style>
  <rect x="20" y="-10" width="770" height="460" rx="12" fill="#141414"/>
  <text x="150" y="45.2" fill="#e5e5e5" font-family="Nunito, sans-serif" font-size="28" opacity="1">StatefulWidget 구조</text>
  <rect x="50" y="120" width="220" height="70" rx="10.5" fill="#1e3a5f" stroke="#4a9eed" stroke-width="2" opacity="1"/>
  <text x="160" y="147.79999999999998" text-anchor="middle" fill="#e5e5e5" font-family="Nunito, sans-serif" font-size="18">StatefulWidget</text>
  <text x="160" y="171.2" text-anchor="middle" fill="#e5e5e5" font-family="Nunito, sans-serif" font-size="18">(불변)</text>
  <defs><marker id="arrow-a1" markerWidth="10" markerHeight="7" refX="9" refY="3.5" orient="auto"><polygon points="0 0, 10 3.5, 0 7" fill="#e5e5e5"/></marker></defs>
  <path d="M270,155 L370,155" fill="none" stroke="#e5e5e5" stroke-width="2" opacity="1" marker-end="url(#arrow-a1)"/>
  <text x="275" y="135.8" fill="#a0a0a0" font-family="Nunito, sans-serif" font-size="12" opacity="1">createState()</text>
  <text x="275" y="152.60000000000002" fill="#a0a0a0" font-family="Nunito, sans-serif" font-size="12" opacity="1">1회 호출</text>
  <rect x="370" y="120" width="220" height="70" rx="10.5" fill="#2d1b69" stroke="#8b5cf6" stroke-width="2" opacity="1"/>
  <text x="480" y="147.79999999999998" text-anchor="middle" fill="#e5e5e5" font-family="Nunito, sans-serif" font-size="18">State 객체</text>
  <text x="480" y="171.2" text-anchor="middle" fill="#e5e5e5" font-family="Nunito, sans-serif" font-size="18">(가변)</text>
  <defs><marker id="arrow-a2" markerWidth="10" markerHeight="7" refX="9" refY="3.5" orient="auto"><polygon points="0 0, 10 3.5, 0 7" fill="#e5e5e5"/></marker></defs>
  <path d="M480,190 L480,250" fill="none" stroke="#e5e5e5" stroke-width="2" opacity="1" marker-end="url(#arrow-a2)"/>
  <text x="495" y="221.7" fill="#a0a0a0" font-family="Nunito, sans-serif" font-size="13" opacity="1">build()</text>
  <rect x="370" y="260" width="220" height="70" rx="10.5" fill="#1a4d2e" stroke="#22c55e" stroke-width="2" opacity="1"/>
  <text x="480" y="287.8" text-anchor="middle" fill="#e5e5e5" font-family="Nunito, sans-serif" font-size="18">Widget Tree</text>
  <text x="480" y="311.2" text-anchor="middle" fill="#e5e5e5" font-family="Nunito, sans-serif" font-size="18">반환</text>
  <rect x="620" y="140" width="140" height="45" rx="6.75" fill="#5c3d1a" stroke="#f59e0b" stroke-width="2" opacity="1"/>
  <text x="690" y="166.5" text-anchor="middle" fill="#e5e5e5" font-family="Nunito, sans-serif" font-size="16">setState()</text>
  <defs><marker id="arrow-a_setstate" markerWidth="10" markerHeight="7" refX="9" refY="3.5" orient="auto"><polygon points="0 0, 10 3.5, 0 7" fill="#f59e0b"/></marker></defs>
  <path d="M690,185 L480,300" fill="none" stroke="#f59e0b" stroke-width="2" opacity="1" marker-end="url(#arrow-a_setstate)"/>
  <text x="100" y="394.4" fill="#a0a0a0" font-family="Nunito, sans-serif" font-size="16" opacity="1">Widget은 매 rebuild마다 새로, State는 유지</text>
  <rect x="90" y="370" width="520" height="50" rx="7.5" fill="transparent" stroke="#555555" stroke-width="1" opacity="1"/>
</svg>