<svg xmlns="http://www.w3.org/2000/svg" width="660" height="270" viewBox="20 -20 660 270">
  <style>
    @import url('https://fonts.googleapis.com/css2?family=Nunito:wght@400;600;700&amp;display=swap');
  </style>
  <rect x="20" y="-20" width="660" height="270" rx="12" fill="#141414"/>
  <text x="200" y="31.6" fill="#e5e5e5" font-family="Nunito, sans-serif" font-size="24" opacity="1">Dart 컬렉션 타입 비교</text>
  <rect x="50" y="60" width="120" height="40" rx="0" fill="#2d1b69" stroke="#8b5cf6" stroke-width="2" opacity="1"/>
  <text x="110" y="84" text-anchor="middle" fill="#e5e5e5" font-family="Nunito, sans-serif" font-size="16">타입</text>
  <rect x="170" y="60" width="100" height="40" rx="0" fill="#2d1b69" stroke="#8b5cf6" stroke-width="2" opacity="1"/>
  <text x="220" y="84" text-anchor="middle" fill="#e5e5e5" font-family="Nunito, sans-serif" font-size="16">순서</text>
  <rect x="270" y="60" width="100" height="40" rx="0" fill="#2d1b69" stroke="#8b5cf6" stroke-width="2" opacity="1"/>
  <text x="320" y="84" text-anchor="middle" fill="#e5e5e5" font-family="Nunito, sans-serif" font-size="16">중복</text>
  <rect x="370" y="60" width="140" height="40" rx="0" fill="#2d1b69" stroke="#8b5cf6" stroke-width="2" opacity="1"/>
  <text x="440" y="84" text-anchor="middle" fill="#e5e5e5" font-family="Nunito, sans-serif" font-size="16">접근 방식</text>
  <rect x="510" y="60" width="140" height="40" rx="0" fill="#2d1b69" stroke="#8b5cf6" stroke-width="2" opacity="1"/>
  <text x="580" y="84" text-anchor="middle" fill="#e5e5e5" font-family="Nunito, sans-serif" font-size="16">용도</text>
  <rect x="50" y="100" width="120" height="40" rx="0" fill="#1e3a5f" stroke="#4a9eed" stroke-width="2" opacity="1"/>
  <text x="110" y="124" text-anchor="middle" fill="#e5e5e5" font-family="Nunito, sans-serif" font-size="16">List</text>
  <rect x="170" y="100" width="100" height="40" rx="0" fill="#1e3a5f" stroke="#4a9eed" stroke-width="2" opacity="1"/>
  <text x="220" y="124" text-anchor="middle" fill="#e5e5e5" font-family="Nunito, sans-serif" font-size="16">O</text>
  <rect x="270" y="100" width="100" height="40" rx="0" fill="#1e3a5f" stroke="#4a9eed" stroke-width="2" opacity="1"/>
  <text x="320" y="124" text-anchor="middle" fill="#e5e5e5" font-family="Nunito, sans-serif" font-size="16">O</text>
  <rect x="370" y="100" width="140" height="40" rx="0" fill="#1e3a5f" stroke="#4a9eed" stroke-width="2" opacity="1"/>
  <text x="440" y="124" text-anchor="middle" fill="#e5e5e5" font-family="Nunito, sans-serif" font-size="16">인덱스 접근</text>
  <rect x="510" y="100" width="140" height="40" rx="0" fill="#1e3a5f" stroke="#4a9eed" stroke-width="2" opacity="1"/>
  <text x="580" y="124" text-anchor="middle" fill="#e5e5e5" font-family="Nunito, sans-serif" font-size="16">일반 목록</text>
  <rect x="50" y="140" width="120" height="40" rx="0" fill="#1a4d2e" stroke="#22c55e" stroke-width="2" opacity="1"/>
  <text x="110" y="164" text-anchor="middle" fill="#e5e5e5" font-family="Nunito, sans-serif" font-size="16">Set</text>
  <rect x="170" y="140" width="100" height="40" rx="0" fill="#1a4d2e" stroke="#22c55e" stroke-width="2" opacity="1"/>
  <text x="220" y="164" text-anchor="middle" fill="#e5e5e5" font-family="Nunito, sans-serif" font-size="16">X</text>
  <rect x="270" y="140" width="100" height="40" rx="0" fill="#1a4d2e" stroke="#22c55e" stroke-width="2" opacity="1"/>
  <text x="320" y="164" text-anchor="middle" fill="#e5e5e5" font-family="Nunito, sans-serif" font-size="16">X</text>
  <rect x="370" y="140" width="140" height="40" rx="0" fill="#1a4d2e" stroke="#22c55e" stroke-width="2" opacity="1"/>
  <text x="440" y="164" text-anchor="middle" fill="#e5e5e5" font-family="Nunito, sans-serif" font-size="16">포함 여부</text>
  <rect x="510" y="140" width="140" height="40" rx="0" fill="#1a4d2e" stroke="#22c55e" stroke-width="2" opacity="1"/>
  <text x="580" y="164" text-anchor="middle" fill="#e5e5e5" font-family="Nunito, sans-serif" font-size="16">고유값 집합</text>
  <rect x="50" y="180" width="120" height="40" rx="0" fill="#5c3d1a" stroke="#f59e0b" stroke-width="2" opacity="1"/>
  <text x="110" y="204" text-anchor="middle" fill="#e5e5e5" font-family="Nunito, sans-serif" font-size="16">Map</text>
  <rect x="170" y="180" width="100" height="40" rx="0" fill="#5c3d1a" stroke="#f59e0b" stroke-width="2" opacity="1"/>
  <text x="220" y="204" text-anchor="middle" fill="#e5e5e5" font-family="Nunito, sans-serif" font-size="16">X</text>
  <rect x="270" y="180" width="100" height="40" rx="0" fill="#5c3d1a" stroke="#f59e0b" stroke-width="2" opacity="1"/>
  <text x="320" y="204" text-anchor="middle" fill="#e5e5e5" font-family="Nunito, sans-serif" font-size="16">키 중복 X</text>
  <rect x="370" y="180" width="140" height="40" rx="0" fill="#5c3d1a" stroke="#f59e0b" stroke-width="2" opacity="1"/>
  <text x="440" y="204" text-anchor="middle" fill="#e5e5e5" font-family="Nunito, sans-serif" font-size="16">키로 접근</text>
  <rect x="510" y="180" width="140" height="40" rx="0" fill="#5c3d1a" stroke="#f59e0b" stroke-width="2" opacity="1"/>
  <text x="580" y="204" text-anchor="middle" fill="#e5e5e5" font-family="Nunito, sans-serif" font-size="16">키-값 사전</text>
</svg>