<svg xmlns="http://www.w3.org/2000/svg" width="740" height="520" viewBox="10 -20 740 520">
  <style>
    @import url('https://fonts.googleapis.com/css2?family=Nunito:wght@400;600;700&amp;display=swap');
  </style>
  <rect x="10" y="-20" width="740" height="520" rx="12" fill="#141414"/>
  <text x="180" y="31.6" fill="#e5e5e5" font-family="Nunito, sans-serif" font-size="24" opacity="1">Dart 실행 모델 개요</text>
  <rect x="40" y="60" width="680" height="240" rx="36" fill="#1e3a5f" stroke="#4a9eed" stroke-width="2" opacity="0.2"/>
  <text x="270" y="90" fill="#4a9eed" font-family="Nunito, sans-serif" font-size="20" opacity="1">Main Isolate</text>
  <rect x="80" y="120" width="180" height="70" rx="10.5" fill="#1e3a5f" stroke="#4a9eed" stroke-width="2" opacity="1"/>
  <text x="170" y="159.5" text-anchor="middle" fill="#e5e5e5" font-family="Nunito, sans-serif" font-size="18">코드 실행</text>
  <defs><marker id="arrow-execArrow" markerWidth="10" markerHeight="7" refX="9" refY="3.5" orient="auto"><polygon points="0 0, 10 3.5, 0 7" fill="#4a9eed"/></marker></defs>
  <path d="M395,155 L265,155" fill="none" stroke="#4a9eed" stroke-width="2" opacity="1" marker-end="url(#arrow-execArrow)"/>
  <rect x="400" y="120" width="200" height="70" rx="10.5" fill="#2d1b69" stroke="#8b5cf6" stroke-width="2" opacity="1"/>
  <text x="500" y="148.6" text-anchor="middle" fill="#e5e5e5" font-family="Nunito, sans-serif" font-size="16">Event Queue</text>
  <text x="500" y="169.4" text-anchor="middle" fill="#e5e5e5" font-family="Nunito, sans-serif" font-size="16">(비동기 결과)</text>
  <text x="140" y="244.4" fill="#a0a0a0" font-family="Nunito, sans-serif" font-size="16" opacity="1">단일 스레드, 공유 메모리 없음</text>
  <text x="150" y="356.2" fill="#f59e0b" font-family="Nunito, sans-serif" font-size="18" opacity="1">별도 Isolate (멀티코어 활용 시)</text>
  <rect x="60" y="390" width="200" height="80" rx="12" fill="#5c3d1a" stroke="#f59e0b" stroke-width="2" opacity="1"/>
  <text x="160" y="423.59999999999997" text-anchor="middle" fill="#e5e5e5" font-family="Nunito, sans-serif" font-size="16">Isolate A</text>
  <text x="160" y="444.4" text-anchor="middle" fill="#e5e5e5" font-family="Nunito, sans-serif" font-size="16">(독립 메모리)</text>
  <defs><marker id="arrow-msgR" markerWidth="10" markerHeight="7" refX="9" refY="3.5" orient="auto"><polygon points="0 0, 10 3.5, 0 7" fill="#f59e0b"/></marker></defs>
  <path d="M265,420 L445,420" fill="none" stroke="#f59e0b" stroke-width="2" opacity="1" marker-end="url(#arrow-msgR)"/>
  <text x="310" y="412.6" fill="#f59e0b" font-family="Nunito, sans-serif" font-size="14" opacity="1">메시지 전달</text>
  <defs><marker id="arrow-msgL" markerWidth="10" markerHeight="7" refX="9" refY="3.5" orient="auto"><polygon points="0 0, 10 3.5, 0 7" fill="#f59e0b"/></marker></defs>
  <path d="M445,440 L265,440" fill="none" stroke="#f59e0b" stroke-width="2" opacity="1" marker-end="url(#arrow-msgL)"/>
  <rect x="450" y="390" width="200" height="80" rx="12" fill="#5c3d1a" stroke="#f59e0b" stroke-width="2" opacity="1"/>
  <text x="550" y="423.59999999999997" text-anchor="middle" fill="#e5e5e5" font-family="Nunito, sans-serif" font-size="16">Isolate B</text>
  <text x="550" y="444.4" text-anchor="middle" fill="#e5e5e5" font-family="Nunito, sans-serif" font-size="16">(독립 메모리)</text>
</svg>