<svg xmlns="http://www.w3.org/2000/svg" width="600" height="404" viewBox="70 -20 534.7 360">
  <style>
    @import url('https://fonts.googleapis.com/css2?family=Nunito:wght@400;600;700&amp;display=swap');
  </style>
  <rect x="70" y="-20" width="534.7" height="360" rx="12" fill="#141414"/>
  <text x="160" y="35.2" fill="#e5e5e5" font-family="Nunito, sans-serif" font-size="28" opacity="1">Bloc 단방향 데이터 흐름</text>
  <rect x="100" y="160" width="160" height="70" rx="10.5" fill="#1e3a5f" stroke="#4a9eed" stroke-width="2" opacity="1"/>
  <text x="180" y="200.5" text-anchor="middle" fill="#e5e5e5" font-family="Nunito, sans-serif" font-size="22">UI</text>
  <rect x="320" y="100" width="160" height="70" rx="10.5" fill="#2d1b69" stroke="#8b5cf6" stroke-width="2" opacity="1"/>
  <text x="400" y="140.5" text-anchor="middle" fill="#e5e5e5" font-family="Nunito, sans-serif" font-size="22">Bloc</text>
  <rect x="320" y="240" width="160" height="70" rx="10.5" fill="#1a4d2e" stroke="#22c55e" stroke-width="2" opacity="1"/>
  <text x="400" y="279.5" text-anchor="middle" fill="#e5e5e5" font-family="Nunito, sans-serif" font-size="18">BlocBuilder</text>
  <defs><marker id="arrow-a1" markerWidth="10" markerHeight="7" refX="9" refY="3.5" orient="auto"><polygon points="0 0, 10 3.5, 0 7" fill="#4a9eed"/></marker></defs>
  <path d="M260,165 L315,130" fill="none" stroke="#4a9eed" stroke-width="2" opacity="1" marker-end="url(#arrow-a1)"/>
  <text x="245" y="122.6" fill="#4a9eed" font-family="Nunito, sans-serif" font-size="14" opacity="1">add(Event)</text>
  <defs><marker id="arrow-a2" markerWidth="10" markerHeight="7" refX="9" refY="3.5" orient="auto"><polygon points="0 0, 10 3.5, 0 7" fill="#8b5cf6"/></marker></defs>
  <path d="M480,155 L480,245" fill="none" stroke="#8b5cf6" stroke-width="2" opacity="1" marker-end="url(#arrow-a2)"/>
  <text x="490" y="197.6" fill="#8b5cf6" font-family="Nunito, sans-serif" font-size="14" opacity="1">emit(State)</text>
  <defs><marker id="arrow-a3" markerWidth="10" markerHeight="7" refX="9" refY="3.5" orient="auto"><polygon points="0 0, 10 3.5, 0 7" fill="#22c55e"/></marker></defs>
  <path d="M320,280 L265,245" fill="none" stroke="#22c55e" stroke-width="2" opacity="1" marker-end="url(#arrow-a3)"/>
  <text x="235" y="292.6" fill="#22c55e" font-family="Nunito, sans-serif" font-size="14" opacity="1">rebuild</text>
  <text x="330" y="207.6" fill="#a0a0a0" font-family="Nunito, sans-serif" font-size="14" opacity="1">Event → State 변환</text>
</svg>