<svg xmlns="http://www.w3.org/2000/svg" width="600" height="651" viewBox="100 -20 530 575">
  <style>
    @import url('https://fonts.googleapis.com/css2?family=Nunito:wght@400;600;700&amp;display=swap');
  </style>
  <rect x="100" y="-20" width="530" height="575" rx="12" fill="#141414"/>
  <text x="150" y="35.2" fill="#e5e5e5" font-family="Nunito, sans-serif" font-size="28" opacity="1">StatefulWidget 생명주기</text>
  <text x="130" y="86.2" fill="#4a9eed" font-family="Nunito, sans-serif" font-size="18" opacity="1">①</text>
  <rect x="160" y="60" width="200" height="45" rx="6.75" fill="#1e3a5f" stroke="#4a9eed" stroke-width="2" opacity="1"/>
  <text x="260" y="86.75" text-anchor="middle" fill="#e5e5e5" font-family="Nunito, sans-serif" font-size="17">createState()</text>
  <defs><marker id="arrow-a1" markerWidth="10" markerHeight="7" refX="9" refY="3.5" orient="auto"><polygon points="0 0, 10 3.5, 0 7" fill="#e5e5e5"/></marker></defs>
  <path d="M260,105 L260,130" fill="none" stroke="#e5e5e5" stroke-width="2" opacity="1" marker-end="url(#arrow-a1)"/>
  <text x="130" y="156.2" fill="#22c55e" font-family="Nunito, sans-serif" font-size="18" opacity="1">②</text>
  <rect x="160" y="130" width="200" height="45" rx="6.75" fill="#1a4d2e" stroke="#22c55e" stroke-width="2" opacity="1"/>
  <text x="260" y="156.75" text-anchor="middle" fill="#e5e5e5" font-family="Nunito, sans-serif" font-size="17">initState()</text>
  <defs><marker id="arrow-a2" markerWidth="10" markerHeight="7" refX="9" refY="3.5" orient="auto"><polygon points="0 0, 10 3.5, 0 7" fill="#e5e5e5"/></marker></defs>
  <path d="M260,175 L260,200" fill="none" stroke="#e5e5e5" stroke-width="2" opacity="1" marker-end="url(#arrow-a2)"/>
  <text x="130" y="226.2" fill="#06b6d4" font-family="Nunito, sans-serif" font-size="18" opacity="1">③</text>
  <rect x="160" y="200" width="200" height="45" rx="6.75" fill="#1a4d4d" stroke="#06b6d4" stroke-width="2" opacity="1"/>
  <text x="260" y="226.5" text-anchor="middle" fill="#e5e5e5" font-family="Nunito, sans-serif" font-size="16">didChangeDeps()</text>
  <defs><marker id="arrow-a3" markerWidth="10" markerHeight="7" refX="9" refY="3.5" orient="auto"><polygon points="0 0, 10 3.5, 0 7" fill="#e5e5e5"/></marker></defs>
  <path d="M260,245 L260,270" fill="none" stroke="#e5e5e5" stroke-width="2" opacity="1" marker-end="url(#arrow-a3)"/>
  <text x="130" y="296.2" fill="#8b5cf6" font-family="Nunito, sans-serif" font-size="18" opacity="1">④</text>
  <rect x="160" y="270" width="200" height="45" rx="6.75" fill="#2d1b69" stroke="#8b5cf6" stroke-width="2" opacity="1"/>
  <text x="260" y="296.75" text-anchor="middle" fill="#e5e5e5" font-family="Nunito, sans-serif" font-size="17">build()</text>
  <defs><marker id="arrow-a4" markerWidth="10" markerHeight="7" refX="9" refY="3.5" orient="auto"><polygon points="0 0, 10 3.5, 0 7" fill="#e5e5e5"/></marker></defs>
  <path d="M260,315 L260,340" fill="none" stroke="#e5e5e5" stroke-width="2" opacity="1" marker-end="url(#arrow-a4)"/>
  <text x="130" y="366.2" fill="#f59e0b" font-family="Nunito, sans-serif" font-size="18" opacity="1">⑤</text>
  <rect x="160" y="340" width="200" height="45" rx="6.75" fill="#5c3d1a" stroke="#f59e0b" stroke-width="2" opacity="1"/>
  <text x="260" y="366.5" text-anchor="middle" fill="#e5e5e5" font-family="Nunito, sans-serif" font-size="16">didUpdateWidget()</text>
  <defs><marker id="arrow-a5" markerWidth="10" markerHeight="7" refX="9" refY="3.5" orient="auto"><polygon points="0 0, 10 3.5, 0 7" fill="#e5e5e5"/></marker></defs>
  <path d="M260,385 L260,410" fill="none" stroke="#e5e5e5" stroke-width="2" opacity="1" marker-end="url(#arrow-a5)"/>
  <text x="130" y="436.2" fill="#ef4444" font-family="Nunito, sans-serif" font-size="18" opacity="1">⑥</text>
  <rect x="160" y="410" width="200" height="45" rx="6.75" fill="#5c1a1a" stroke="#ef4444" stroke-width="2" opacity="1"/>
  <text x="260" y="436.75" text-anchor="middle" fill="#e5e5e5" font-family="Nunito, sans-serif" font-size="17">deactivate()</text>
  <defs><marker id="arrow-a6" markerWidth="10" markerHeight="7" refX="9" refY="3.5" orient="auto"><polygon points="0 0, 10 3.5, 0 7" fill="#e5e5e5"/></marker></defs>
  <path d="M260,455 L260,480" fill="none" stroke="#e5e5e5" stroke-width="2" opacity="1" marker-end="url(#arrow-a6)"/>
  <text x="130" y="506.2" fill="#ef4444" font-family="Nunito, sans-serif" font-size="18" opacity="1">⑦</text>
  <rect x="160" y="480" width="200" height="45" rx="6.75" fill="#5c1a1a" stroke="#ef4444" stroke-width="2" opacity="1"/>
  <text x="260" y="506.75" text-anchor="middle" fill="#e5e5e5" font-family="Nunito, sans-serif" font-size="17">dispose()</text>
  <rect x="440" y="200" width="160" height="45" rx="6.75" fill="#5c3d1a" stroke="#f59e0b" stroke-width="2" opacity="1"/>
  <text x="520" y="226.75" text-anchor="middle" fill="#e5e5e5" font-family="Nunito, sans-serif" font-size="17">setState()</text>
  <defs><marker id="arrow-a_setstate" markerWidth="10" markerHeight="7" refX="9" refY="3.5" orient="auto"><polygon points="0 0, 10 3.5, 0 7" fill="#f59e0b"/></marker></defs>
  <path d="M440,222 L360,292" fill="none" stroke="#f59e0b" stroke-width="2" opacity="1" marker-end="url(#arrow-a_setstate)"/>
  <text x="395" y="260.8" fill="#f59e0b" font-family="Nunito, sans-serif" font-size="12" opacity="1">rebuild</text>
  <defs><marker id="arrow-a_update_back" markerWidth="10" markerHeight="7" refX="9" refY="3.5" orient="auto"><polygon points="0 0, 10 3.5, 0 7" fill="#f59e0b"/></marker></defs>
  <path d="M360,362 L420,287" fill="none" stroke="#f59e0b" stroke-width="1" opacity="1" marker-end="url(#arrow-a_update_back)"/>
  <text x="400" y="330.8" fill="#a0a0a0" font-family="Nunito, sans-serif" font-size="12" opacity="1">→ build()</text>
</svg>