<svg xmlns="http://www.w3.org/2000/svg" width="710" height="340" viewBox="0 -20 710 339.6">
  <style>
    @import url('https://fonts.googleapis.com/css2?family=Nunito:wght@400;600;700&amp;display=swap');
  </style>
  <rect x="0" y="-20" width="710" height="339.6" rx="12" fill="#141414"/>
  <text x="250" y="31.6" fill="#e5e5e5" font-family="Nunito, sans-serif" font-size="24" opacity="1">Isolate 구조</text>
  <rect x="30" y="55" width="260" height="200" rx="30" fill="#1e3a5f" stroke="#4a9eed" stroke-width="2" opacity="0.6"/>
  <text x="80" y="81.2" fill="#e5e5e5" font-family="Nunito, sans-serif" font-size="18" opacity="1">메인 Isolate</text>
  <rect x="55" y="100" width="210" height="50" rx="7.5" fill="#1e3a5f" stroke="#4a9eed" stroke-width="1" opacity="1"/>
  <text x="160" y="128.75" text-anchor="middle" fill="#e5e5e5" font-family="Nunito, sans-serif" font-size="15">힙 메모리 A</text>
  <rect x="55" y="165" width="210" height="50" rx="7.5" fill="#1e3a5f" stroke="#4a9eed" stroke-width="1" opacity="1"/>
  <text x="160" y="193.75" text-anchor="middle" fill="#e5e5e5" font-family="Nunito, sans-serif" font-size="15">Event Loop A</text>
  <defs><marker id="arrow-msg_right" markerWidth="10" markerHeight="7" refX="9" refY="3.5" orient="auto"><polygon points="0 0, 10 3.5, 0 7" fill="#f59e0b"/></marker></defs>
  <path d="M290,145 L410,145" fill="none" stroke="#f59e0b" stroke-width="2" opacity="1" marker-end="url(#arrow-msg_right)"/>
  <defs><marker id="arrow-msg_left" markerWidth="10" markerHeight="7" refX="9" refY="3.5" orient="auto"><polygon points="0 0, 10 3.5, 0 7" fill="#f59e0b"/></marker></defs>
  <path d="M410,165 L290,165" fill="none" stroke="#f59e0b" stroke-width="2" opacity="1" marker-end="url(#arrow-msg_left)"/>
  <text x="310" y="131.7" fill="#f59e0b" font-family="Nunito, sans-serif" font-size="13" opacity="1">메시지 패싱</text>
  <rect x="410" y="55" width="270" height="200" rx="30" fill="#1a4d2e" stroke="#22c55e" stroke-width="2" opacity="0.6"/>
  <text x="460" y="81.2" fill="#e5e5e5" font-family="Nunito, sans-serif" font-size="18" opacity="1">워커 Isolate</text>
  <rect x="435" y="100" width="220" height="50" rx="7.5" fill="#1a4d2e" stroke="#22c55e" stroke-width="1" opacity="1"/>
  <text x="545" y="128.75" text-anchor="middle" fill="#e5e5e5" font-family="Nunito, sans-serif" font-size="15">힙 메모리 B</text>
  <rect x="435" y="165" width="220" height="50" rx="7.5" fill="#1a4d2e" stroke="#22c55e" stroke-width="1" opacity="1"/>
  <text x="545" y="193.75" text-anchor="middle" fill="#e5e5e5" font-family="Nunito, sans-serif" font-size="15">Event Loop B</text>
  <text x="170" y="282.6" fill="#a0a0a0" font-family="Nunito, sans-serif" font-size="14" opacity="1">메모리 완전 격리 — 공유 상태 없음</text>
</svg>