<svg xmlns="http://www.w3.org/2000/svg" width="701.2" height="366" viewBox="20 -20 701.2 366">
  <style>
    @import url('https://fonts.googleapis.com/css2?family=Nunito:wght@400;600;700&amp;display=swap');
  </style>
  <rect x="20" y="-20" width="701.2" height="366" rx="12" fill="#141414"/>
  <text x="150" y="31.6" fill="#e5e5e5" font-family="Nunito, sans-serif" font-size="24" opacity="1">extends / implements / abstract class 비교표</text>
  <rect x="50" y="60" width="130" height="40" rx="0" fill="#333333" stroke="#666666" stroke-width="2" opacity="1"/>
  <text x="115" y="84" text-anchor="middle" fill="#e5e5e5" font-family="Nunito, sans-serif" font-size="16">특성</text>
  <rect x="180" y="60" width="150" height="40" rx="0" fill="#1e3a5f" stroke="#4a9eed" stroke-width="2" opacity="1"/>
  <text x="255" y="84" text-anchor="middle" fill="#e5e5e5" font-family="Nunito, sans-serif" font-size="16">extends</text>
  <rect x="330" y="60" width="150" height="40" rx="0" fill="#2d1b69" stroke="#8b5cf6" stroke-width="2" opacity="1"/>
  <text x="405" y="84" text-anchor="middle" fill="#e5e5e5" font-family="Nunito, sans-serif" font-size="16">implements</text>
  <rect x="480" y="60" width="170" height="40" rx="0" fill="#5c3d1a" stroke="#f59e0b" stroke-width="2" opacity="1"/>
  <text x="565" y="84" text-anchor="middle" fill="#e5e5e5" font-family="Nunito, sans-serif" font-size="16">abstract class</text>
  <rect x="50" y="100" width="130" height="36" rx="0" fill="#292929" stroke="#555555" stroke-width="1" opacity="1"/>
  <text x="115" y="121.5" text-anchor="middle" fill="#e5e5e5" font-family="Nunito, sans-serif" font-size="14">구현 상속</text>
  <rect x="180" y="100" width="150" height="36" rx="0" fill="#1e3a5f" stroke="#4a9eed" stroke-width="1" opacity="1"/>
  <text x="255" y="121.5" text-anchor="middle" fill="#e5e5e5" font-family="Nunito, sans-serif" font-size="14">O</text>
  <rect x="330" y="100" width="150" height="36" rx="0" fill="#2d1b69" stroke="#8b5cf6" stroke-width="1" opacity="1"/>
  <text x="405" y="121.5" text-anchor="middle" fill="#e5e5e5" font-family="Nunito, sans-serif" font-size="14">X</text>
  <rect x="480" y="100" width="170" height="36" rx="0" fill="#5c3d1a" stroke="#f59e0b" stroke-width="1" opacity="1"/>
  <text x="565" y="121.5" text-anchor="middle" fill="#e5e5e5" font-family="Nunito, sans-serif" font-size="14">부분적</text>
  <rect x="50" y="136" width="130" height="36" rx="0" fill="#292929" stroke="#555555" stroke-width="1" opacity="1"/>
  <text x="115" y="157.5" text-anchor="middle" fill="#e5e5e5" font-family="Nunito, sans-serif" font-size="14">다중 사용</text>
  <rect x="180" y="136" width="150" height="36" rx="0" fill="#1e3a5f" stroke="#4a9eed" stroke-width="1" opacity="1"/>
  <text x="255" y="157.5" text-anchor="middle" fill="#e5e5e5" font-family="Nunito, sans-serif" font-size="14">단일</text>
  <rect x="330" y="136" width="150" height="36" rx="0" fill="#2d1b69" stroke="#8b5cf6" stroke-width="1" opacity="1"/>
  <text x="405" y="157.5" text-anchor="middle" fill="#e5e5e5" font-family="Nunito, sans-serif" font-size="14">여러 개</text>
  <rect x="480" y="136" width="170" height="36" rx="0" fill="#5c3d1a" stroke="#f59e0b" stroke-width="1" opacity="1"/>
  <text x="565" y="157.5" text-anchor="middle" fill="#e5e5e5" font-family="Nunito, sans-serif" font-size="14">단일 상속</text>
  <rect x="50" y="172" width="130" height="36" rx="0" fill="#292929" stroke="#555555" stroke-width="1" opacity="1"/>
  <text x="115" y="193.5" text-anchor="middle" fill="#e5e5e5" font-family="Nunito, sans-serif" font-size="14">인스턴스 생성</text>
  <rect x="180" y="172" width="150" height="36" rx="0" fill="#1e3a5f" stroke="#4a9eed" stroke-width="1" opacity="1"/>
  <text x="255" y="193.5" text-anchor="middle" fill="#e5e5e5" font-family="Nunito, sans-serif" font-size="14">O</text>
  <rect x="330" y="172" width="150" height="36" rx="0" fill="#2d1b69" stroke="#8b5cf6" stroke-width="1" opacity="1"/>
  <text x="405" y="193.5" text-anchor="middle" fill="#e5e5e5" font-family="Nunito, sans-serif" font-size="14">O</text>
  <rect x="480" y="172" width="170" height="36" rx="0" fill="#5c3d1a" stroke="#f59e0b" stroke-width="1" opacity="1"/>
  <text x="565" y="193.5" text-anchor="middle" fill="#e5e5e5" font-family="Nunito, sans-serif" font-size="14">X</text>
  <rect x="50" y="208" width="130" height="36" rx="0" fill="#292929" stroke="#555555" stroke-width="1" opacity="1"/>
  <text x="115" y="229.5" text-anchor="middle" fill="#e5e5e5" font-family="Nunito, sans-serif" font-size="14">계약 강제</text>
  <rect x="180" y="208" width="150" height="36" rx="0" fill="#1e3a5f" stroke="#4a9eed" stroke-width="1" opacity="1"/>
  <text x="255" y="229.5" text-anchor="middle" fill="#e5e5e5" font-family="Nunito, sans-serif" font-size="14">X</text>
  <rect x="330" y="208" width="150" height="36" rx="0" fill="#2d1b69" stroke="#8b5cf6" stroke-width="1" opacity="1"/>
  <text x="405" y="229.5" text-anchor="middle" fill="#e5e5e5" font-family="Nunito, sans-serif" font-size="14">O</text>
  <rect x="480" y="208" width="170" height="36" rx="0" fill="#5c3d1a" stroke="#f59e0b" stroke-width="1" opacity="1"/>
  <text x="565" y="229.5" text-anchor="middle" fill="#e5e5e5" font-family="Nunito, sans-serif" font-size="14">추상 멤버만</text>
  <rect x="50" y="244" width="130" height="36" rx="0" fill="#292929" stroke="#555555" stroke-width="1" opacity="1"/>
  <text x="115" y="265.5" text-anchor="middle" fill="#e5e5e5" font-family="Nunito, sans-serif" font-size="14">공통 구현 제공</text>
  <rect x="180" y="244" width="150" height="36" rx="0" fill="#1e3a5f" stroke="#4a9eed" stroke-width="1" opacity="1"/>
  <text x="255" y="265.5" text-anchor="middle" fill="#e5e5e5" font-family="Nunito, sans-serif" font-size="14">O</text>
  <rect x="330" y="244" width="150" height="36" rx="0" fill="#2d1b69" stroke="#8b5cf6" stroke-width="1" opacity="1"/>
  <text x="405" y="265.5" text-anchor="middle" fill="#e5e5e5" font-family="Nunito, sans-serif" font-size="14">X</text>
  <rect x="480" y="244" width="170" height="36" rx="0" fill="#5c3d1a" stroke="#f59e0b" stroke-width="1" opacity="1"/>
  <text x="565" y="265.5" text-anchor="middle" fill="#e5e5e5" font-family="Nunito, sans-serif" font-size="14">O</text>
  <rect x="50" y="280" width="130" height="36" rx="0" fill="#292929" stroke="#555555" stroke-width="1" opacity="1"/>
  <text x="115" y="301.5" text-anchor="middle" fill="#e5e5e5" font-family="Nunito, sans-serif" font-size="14">주요 목적</text>
  <rect x="180" y="280" width="150" height="36" rx="0" fill="#1e3a5f" stroke="#4a9eed" stroke-width="1" opacity="1"/>
  <text x="255" y="301.5" text-anchor="middle" fill="#e5e5e5" font-family="Nunito, sans-serif" font-size="14">재사용+확장</text>
  <rect x="330" y="280" width="150" height="36" rx="0" fill="#2d1b69" stroke="#8b5cf6" stroke-width="1" opacity="1"/>
  <text x="405" y="301.5" text-anchor="middle" fill="#e5e5e5" font-family="Nunito, sans-serif" font-size="14">계약 정의</text>
  <rect x="480" y="280" width="170" height="36" rx="0" fill="#5c3d1a" stroke="#f59e0b" stroke-width="1" opacity="1"/>
  <text x="565" y="301.5" text-anchor="middle" fill="#e5e5e5" font-family="Nunito, sans-serif" font-size="14">계약+공통구현</text>
</svg>