<svg xmlns="http://www.w3.org/2000/svg" width="790" height="410" viewBox="-20 -20 790 410">
  <style>
    @import url('https://fonts.googleapis.com/css2?family=Nunito:wght@400;600;700&amp;display=swap');
  </style>
  <rect x="-20" y="-20" width="790" height="410" rx="12" fill="#141414"/>
  <text x="180" y="31.6" fill="#e5e5e5" font-family="Nunito, sans-serif" font-size="24" opacity="1">async/await vs Isolate 비교</text>
  <text x="40" y="69.4" fill="#4a9eed" font-family="Nunito, sans-serif" font-size="16" opacity="1">async/await (단일 스레드 - 이벤트 루프)</text>
  <rect x="40" y="90" width="180" height="50" rx="7.5" fill="#1e3a5f" stroke="#4a9eed" stroke-width="2" opacity="1"/>
  <text x="130" y="119" text-anchor="middle" fill="#e5e5e5" font-family="Nunito, sans-serif" font-size="16">UI 렌더링</text>
  <defs><marker id="arrow-a_async1" markerWidth="10" markerHeight="7" refX="9" refY="3.5" orient="auto"><polygon points="0 0, 10 3.5, 0 7" fill="#e5e5e5"/></marker></defs>
  <path d="M220,115 L280,115" fill="none" stroke="#e5e5e5" stroke-width="2" opacity="1" marker-end="url(#arrow-a_async1)"/>
  <rect x="280" y="90" width="180" height="50" rx="7.5" fill="#5c3d1a" stroke="#f59e0b" stroke-width="2" opacity="1"/>
  <text x="370" y="119" text-anchor="middle" fill="#e5e5e5" font-family="Nunito, sans-serif" font-size="16">await I/O 대기</text>
  <defs><marker id="arrow-a_async2" markerWidth="10" markerHeight="7" refX="9" refY="3.5" orient="auto"><polygon points="0 0, 10 3.5, 0 7" fill="#e5e5e5"/></marker></defs>
  <path d="M460,115 L520,115" fill="none" stroke="#e5e5e5" stroke-width="2" opacity="1" marker-end="url(#arrow-a_async2)"/>
  <rect x="520" y="90" width="180" height="50" rx="7.5" fill="#1e3a5f" stroke="#4a9eed" stroke-width="2" opacity="1"/>
  <text x="610" y="119" text-anchor="middle" fill="#e5e5e5" font-family="Nunito, sans-serif" font-size="16">다시 UI 렌더링</text>
  <text x="280" y="158.8" fill="#a0a0a0" font-family="Nunito, sans-serif" font-size="12" opacity="1">UI 스레드를 블로킹하지 않음</text>
  <path d="M30,185 L720,185" fill="none" stroke="#555555" stroke-width="1" opacity="1"/>
  <text x="40" y="214.4" fill="#8b5cf6" font-family="Nunito, sans-serif" font-size="16" opacity="1">Isolate (별도 스레드 - 독립 메모리)</text>
  <rect x="40" y="240" width="300" height="120" rx="18" fill="#1e3a5f" stroke="#4a9eed" stroke-width="1" opacity="0.2"/>
  <text x="120" y="262.4" fill="#4a9eed" font-family="Nunito, sans-serif" font-size="16" opacity="1">Main Isolate</text>
  <rect x="60" y="280" width="120" height="45" rx="6.75" fill="#1e3a5f" stroke="#4a9eed" stroke-width="2" opacity="1"/>
  <text x="120" y="306" text-anchor="middle" fill="#e5e5e5" font-family="Nunito, sans-serif" font-size="14">UI 렌더링</text>
  <rect x="200" y="280" width="120" height="45" rx="6.75" fill="#1e3a5f" stroke="#4a9eed" stroke-width="2" opacity="1"/>
  <text x="260" y="306" text-anchor="middle" fill="#e5e5e5" font-family="Nunito, sans-serif" font-size="14">이벤트 루프</text>
  <rect x="420" y="240" width="280" height="120" rx="18" fill="#2d1b69" stroke="#8b5cf6" stroke-width="1" opacity="0.2"/>
  <text x="500" y="262.4" fill="#8b5cf6" font-family="Nunito, sans-serif" font-size="16" opacity="1">Worker Isolate</text>
  <rect x="460" y="280" width="200" height="45" rx="6.75" fill="#2d1b69" stroke="#8b5cf6" stroke-width="2" opacity="1"/>
  <text x="560" y="306" text-anchor="middle" fill="#e5e5e5" font-family="Nunito, sans-serif" font-size="14">무거운 연산 처리</text>
  <defs><marker id="arrow-msg_send" markerWidth="10" markerHeight="7" refX="9" refY="3.5" orient="auto"><polygon points="0 0, 10 3.5, 0 7" fill="#22c55e"/></marker></defs>
  <path d="M340,290 L420,290" fill="none" stroke="#22c55e" stroke-width="2" opacity="1" marker-end="url(#arrow-msg_send)"/>
  <defs><marker id="arrow-msg_recv" markerWidth="10" markerHeight="7" refX="9" refY="3.5" orient="auto"><polygon points="0 0, 10 3.5, 0 7" fill="#f59e0b"/></marker></defs>
  <path d="M420,310 L340,310" fill="none" stroke="#f59e0b" stroke-width="2" opacity="1" marker-end="url(#arrow-msg_recv)"/>
  <text x="350" y="345.8" fill="#a0a0a0" font-family="Nunito, sans-serif" font-size="12" opacity="1">메시지 패싱</text>
</svg>