<svg xmlns="http://www.w3.org/2000/svg" width="600" height="715" viewBox="170 -15 470.15 560">
  <style>
    @import url('https://fonts.googleapis.com/css2?family=Nunito:wght@400;600;700&amp;display=swap');
  </style>
  <rect x="170" y="-15" width="470.15" height="560" rx="12" fill="#141414"/>
  <text x="200" y="36.6" fill="#e5e5e5" font-family="Nunito, sans-serif" font-size="24" opacity="1">Flutter 실행 흐름</text>
  <rect x="220" y="60" width="220" height="55" rx="8.25" fill="#1e3a5f" stroke="#4a9eed" stroke-width="2" opacity="1"/>
  <text x="330" y="92" text-anchor="middle" fill="#e5e5e5" font-family="Nunito, sans-serif" font-size="18">Dart 코드 작성</text>
  <text x="460" y="83.7" fill="#a0a0a0" font-family="Nunito, sans-serif" font-size="13" opacity="1">개발자가 Widget 트리 구성</text>
  <defs><marker id="arrow-a1" markerWidth="10" markerHeight="7" refX="9" refY="3.5" orient="auto"><polygon points="0 0, 10 3.5, 0 7" fill="#e5e5e5"/></marker></defs>
  <path d="M330,115 L330,160" fill="none" stroke="#e5e5e5" stroke-width="2" opacity="1" marker-end="url(#arrow-a1)"/>
  <rect x="220" y="160" width="220" height="55" rx="8.25" fill="#1e3a5f" stroke="#4a9eed" stroke-width="2" opacity="1"/>
  <text x="330" y="192" text-anchor="middle" fill="#e5e5e5" font-family="Nunito, sans-serif" font-size="18">Framework Layer</text>
  <text x="460" y="183.7" fill="#a0a0a0" font-family="Nunito, sans-serif" font-size="13" opacity="1">UI 논리, 레이아웃 계산</text>
  <defs><marker id="arrow-a2" markerWidth="10" markerHeight="7" refX="9" refY="3.5" orient="auto"><polygon points="0 0, 10 3.5, 0 7" fill="#e5e5e5"/></marker></defs>
  <path d="M330,215 L330,260" fill="none" stroke="#e5e5e5" stroke-width="2" opacity="1" marker-end="url(#arrow-a2)"/>
  <rect x="220" y="260" width="220" height="55" rx="8.25" fill="#2d1b69" stroke="#8b5cf6" stroke-width="2" opacity="1"/>
  <text x="330" y="292" text-anchor="middle" fill="#e5e5e5" font-family="Nunito, sans-serif" font-size="18">Engine Layer</text>
  <text x="460" y="283.7" fill="#a0a0a0" font-family="Nunito, sans-serif" font-size="13" opacity="1">Skia/Impeller로 픽셀 렌더링</text>
  <defs><marker id="arrow-a3" markerWidth="10" markerHeight="7" refX="9" refY="3.5" orient="auto"><polygon points="0 0, 10 3.5, 0 7" fill="#e5e5e5"/></marker></defs>
  <path d="M330,315 L330,360" fill="none" stroke="#e5e5e5" stroke-width="2" opacity="1" marker-end="url(#arrow-a3)"/>
  <rect x="220" y="360" width="220" height="55" rx="8.25" fill="#5c3d1a" stroke="#f59e0b" stroke-width="2" opacity="1"/>
  <text x="330" y="392" text-anchor="middle" fill="#e5e5e5" font-family="Nunito, sans-serif" font-size="18">Embedder Layer</text>
  <text x="460" y="383.7" fill="#a0a0a0" font-family="Nunito, sans-serif" font-size="13" opacity="1">플랫폼 창 관리, 입력 이벤트</text>
  <defs><marker id="arrow-a4" markerWidth="10" markerHeight="7" refX="9" refY="3.5" orient="auto"><polygon points="0 0, 10 3.5, 0 7" fill="#e5e5e5"/></marker></defs>
  <path d="M330,415 L330,460" fill="none" stroke="#e5e5e5" stroke-width="2" opacity="1" marker-end="url(#arrow-a4)"/>
  <rect x="220" y="460" width="220" height="55" rx="8.25" fill="#1a4d2e" stroke="#22c55e" stroke-width="2" opacity="1"/>
  <text x="330" y="492" text-anchor="middle" fill="#e5e5e5" font-family="Nunito, sans-serif" font-size="18">화면 출력</text>
  <text x="460" y="483.7" fill="#a0a0a0" font-family="Nunito, sans-serif" font-size="13" opacity="1">사용자에게 UI 표시</text>
</svg>