<svg xmlns="http://www.w3.org/2000/svg" width="870" height="447" viewBox="-30 -20 870 447">
  <style>
    @import url('https://fonts.googleapis.com/css2?family=Nunito:wght@400;600;700&amp;display=swap');
  </style>
  <rect x="-30" y="-20" width="870" height="447" rx="12" fill="#141414"/>
  <text x="230" y="35.2" fill="#e5e5e5" font-family="Nunito, sans-serif" font-size="28" opacity="1">Flutter 상태관리</text>
  <rect x="300" y="70" width="200" height="50" rx="7.5" fill="#1e3a5f" stroke="#4a9eed" stroke-width="2" opacity="1"/>
  <text x="400" y="99.5" text-anchor="middle" fill="#e5e5e5" font-family="Nunito, sans-serif" font-size="18">상태관리</text>
  <defs><marker id="arrow-a1" markerWidth="10" markerHeight="7" refX="9" refY="3.5" orient="auto"><polygon points="0 0, 10 3.5, 0 7" fill="#555555"/></marker></defs>
  <path d="M330,120 L100,170" fill="none" stroke="#555555" stroke-width="2" opacity="1" marker-end="url(#arrow-a1)"/>
  <defs><marker id="arrow-a2" markerWidth="10" markerHeight="7" refX="9" refY="3.5" orient="auto"><polygon points="0 0, 10 3.5, 0 7" fill="#555555"/></marker></defs>
  <path d="M370,120 L310,170" fill="none" stroke="#555555" stroke-width="2" opacity="1" marker-end="url(#arrow-a2)"/>
  <defs><marker id="arrow-a3" markerWidth="10" markerHeight="7" refX="9" refY="3.5" orient="auto"><polygon points="0 0, 10 3.5, 0 7" fill="#555555"/></marker></defs>
  <path d="M430,120 L530,170" fill="none" stroke="#555555" stroke-width="2" opacity="1" marker-end="url(#arrow-a3)"/>
  <defs><marker id="arrow-a4" markerWidth="10" markerHeight="7" refX="9" refY="3.5" orient="auto"><polygon points="0 0, 10 3.5, 0 7" fill="#555555"/></marker></defs>
  <path d="M470,120 L730,170" fill="none" stroke="#555555" stroke-width="2" opacity="1" marker-end="url(#arrow-a4)"/>
  <rect x="0" y="170" width="200" height="50" rx="7.5" fill="#1a4d2e" stroke="#22c55e" stroke-width="2" opacity="1"/>
  <text x="100" y="199.5" text-anchor="middle" fill="#e5e5e5" font-family="Nunito, sans-serif" font-size="18">상태 분류</text>
  <rect x="220" y="170" width="200" height="50" rx="7.5" fill="#2d1b69" stroke="#8b5cf6" stroke-width="2" opacity="1"/>
  <text x="320" y="199.5" text-anchor="middle" fill="#e5e5e5" font-family="Nunito, sans-serif" font-size="18">Reactive UI</text>
  <rect x="440" y="170" width="200" height="50" rx="7.5" fill="#5c3d1a" stroke="#f59e0b" stroke-width="2" opacity="1"/>
  <text x="540" y="199.5" text-anchor="middle" fill="#e5e5e5" font-family="Nunito, sans-serif" font-size="18">State Lifting</text>
  <rect x="660" y="170" width="150" height="50" rx="7.5" fill="#1a4d4d" stroke="#06b6d4" stroke-width="2" opacity="1"/>
  <text x="735" y="199.5" text-anchor="middle" fill="#e5e5e5" font-family="Nunito, sans-serif" font-size="18">솔루션</text>
  <rect x="0" y="245" width="90" height="32" rx="4.8" fill="#1a4d2e" stroke="#22c55e" stroke-width="1" opacity="1"/>
  <text x="45" y="264" text-anchor="middle" fill="#e5e5e5" font-family="Nunito, sans-serif" font-size="12">Local State</text>
  <rect x="100" y="245" width="100" height="32" rx="4.8" fill="#1a4d2e" stroke="#22c55e" stroke-width="1" opacity="1"/>
  <text x="150" y="264" text-anchor="middle" fill="#e5e5e5" font-family="Nunito, sans-serif" font-size="12">Global State</text>
  <rect x="220" y="245" width="200" height="32" rx="4.8" fill="#2d1b69" stroke="#8b5cf6" stroke-width="1" opacity="1"/>
  <text x="320" y="264" text-anchor="middle" fill="#e5e5e5" font-family="Nunito, sans-serif" font-size="12">상태 변경 → UI 자동 재구성</text>
  <rect x="440" y="245" width="200" height="32" rx="4.8" fill="#5c3d1a" stroke="#f59e0b" stroke-width="1" opacity="1"/>
  <text x="540" y="264" text-anchor="middle" fill="#e5e5e5" font-family="Nunito, sans-serif" font-size="12">공통 조상으로 이동</text>
  <rect x="660" y="245" width="70" height="32" rx="4.8" fill="#1a4d4d" stroke="#06b6d4" stroke-width="1" opacity="1"/>
  <text x="695" y="263.75" text-anchor="middle" fill="#e5e5e5" font-family="Nunito, sans-serif" font-size="11">setState</text>
  <defs><marker id="arrow-sol_a1" markerWidth="10" markerHeight="7" refX="9" refY="3.5" orient="auto"><polygon points="0 0, 10 3.5, 0 7" fill="#555555"/></marker></defs>
  <path d="M730,261 L750,261" fill="none" stroke="#555555" stroke-width="2" opacity="1" marker-end="url(#arrow-sol_a1)"/>
  <rect x="660" y="285" width="70" height="32" rx="4.8" fill="#1a4d4d" stroke="#06b6d4" stroke-width="1" opacity="1"/>
  <text x="695" y="303.75" text-anchor="middle" fill="#e5e5e5" font-family="Nunito, sans-serif" font-size="11">Provider</text>
  <defs><marker id="arrow-sol_a2" markerWidth="10" markerHeight="7" refX="9" refY="3.5" orient="auto"><polygon points="0 0, 10 3.5, 0 7" fill="#555555"/></marker></defs>
  <path d="M730,301 L750,301" fill="none" stroke="#555555" stroke-width="2" opacity="1" marker-end="url(#arrow-sol_a2)"/>
  <rect x="660" y="325" width="70" height="32" rx="4.8" fill="#1a4d4d" stroke="#06b6d4" stroke-width="1" opacity="1"/>
  <text x="695" y="343.75" text-anchor="middle" fill="#e5e5e5" font-family="Nunito, sans-serif" font-size="11">Riverpod</text>
  <defs><marker id="arrow-sol_a3" markerWidth="10" markerHeight="7" refX="9" refY="3.5" orient="auto"><polygon points="0 0, 10 3.5, 0 7" fill="#555555"/></marker></defs>
  <path d="M730,341 L750,341" fill="none" stroke="#555555" stroke-width="2" opacity="1" marker-end="url(#arrow-sol_a3)"/>
  <rect x="660" y="365" width="70" height="32" rx="4.8" fill="#1a4d4d" stroke="#06b6d4" stroke-width="1" opacity="1"/>
  <text x="695" y="383.75" text-anchor="middle" fill="#e5e5e5" font-family="Nunito, sans-serif" font-size="11">Bloc</text>
</svg>